<svg width="1440" height="900" viewBox="0 0 1440 900" fill="none" xmlns="http://www.w3.org/2000/svg">
<rect width="1440" height="900" fill="#E5E5E5"/>
<rect width="1440" height="900" fill="white"/>
<rect x="790" y="51" width="563" height="65" fill="#C4C4C4"/>
<path d="M952.333 92.144C950.669 92.144 949.165 91.776 947.821 91.04C946.493 90.304 945.445 89.288 944.677 87.992C943.925 86.68 943.549 85.216 943.549 83.6C943.549 81.984 943.925 80.528 944.677 79.232C945.445 77.92 946.501 76.896 947.845 76.16C949.189 75.424 950.693 75.056 952.357 75.056C953.605 75.056 954.757 75.264 955.813 75.68C956.869 76.096 957.765 76.704 958.501 77.504L957.373 78.632C956.061 77.304 954.405 76.64 952.405 76.64C951.077 76.64 949.869 76.944 948.781 77.552C947.693 78.16 946.837 78.992 946.213 80.048C945.605 81.104 945.301 82.288 945.301 83.6C945.301 84.912 945.605 86.096 946.213 87.152C946.837 88.208 947.693 89.04 948.781 89.648C949.869 90.256 951.077 90.56 952.405 90.56C954.421 90.56 956.077 89.888 957.373 88.544L958.501 89.672C957.765 90.472 956.861 91.088 955.789 91.52C954.733 91.936 953.581 92.144 952.333 92.144ZM963.559 81.848C963.959 81 964.551 80.36 965.335 79.928C966.135 79.496 967.119 79.28 968.287 79.28V80.936L967.879 80.912C966.551 80.912 965.511 81.32 964.759 82.136C964.007 82.952 963.631 84.096 963.631 85.568V92H961.927V79.376H963.559V81.848ZM982.247 86.216H971.687C971.783 87.528 972.287 88.592 973.199 89.408C974.111 90.208 975.263 90.608 976.655 90.608C977.439 90.608 978.159 90.472 978.815 90.2C979.471 89.912 980.039 89.496 980.519 88.952L981.479 90.056C980.919 90.728 980.215 91.24 979.367 91.592C978.535 91.944 977.615 92.12 976.607 92.12C975.311 92.12 974.159 91.848 973.151 91.304C972.159 90.744 971.383 89.976 970.823 89C970.263 88.024 969.983 86.92 969.983 85.688C969.983 84.456 970.247 83.352 970.775 82.376C971.319 81.4 972.055 80.64 972.983 80.096C973.927 79.552 974.983 79.28 976.151 79.28C977.319 79.28 978.367 79.552 979.295 80.096C980.223 80.64 980.951 81.4 981.479 82.376C982.007 83.336 982.271 84.44 982.271 85.688L982.247 86.216ZM976.151 80.744C974.935 80.744 973.911 81.136 973.079 81.92C972.263 82.688 971.799 83.696 971.687 84.944H980.639C980.527 83.696 980.055 82.688 979.223 81.92C978.407 81.136 977.383 80.744 976.151 80.744ZM989.804 79.28C991.452 79.28 992.716 79.696 993.596 80.528C994.476 81.344 994.916 82.56 994.916 84.176V92H993.284V90.032C992.9 90.688 992.332 91.2 991.58 91.568C990.844 91.936 989.964 92.12 988.94 92.12C987.532 92.12 986.412 91.784 985.58 91.112C984.748 90.44 984.332 89.552 984.332 88.448C984.332 87.376 984.716 86.512 985.484 85.856C986.268 85.2 987.508 84.872 989.204 84.872H993.212V84.104C993.212 83.016 992.908 82.192 992.3 81.632C991.692 81.056 990.804 80.768 989.636 80.768C988.836 80.768 988.068 80.904 987.332 81.176C986.596 81.432 985.964 81.792 985.436 82.256L984.668 80.984C985.308 80.44 986.076 80.024 986.972 79.736C987.868 79.432 988.812 79.28 989.804 79.28ZM989.204 90.776C990.164 90.776 990.988 90.56 991.676 90.128C992.364 89.68 992.876 89.04 993.212 88.208V86.144H989.252C987.092 86.144 986.012 86.896 986.012 88.4C986.012 89.136 986.292 89.72 986.852 90.152C987.412 90.568 988.196 90.776 989.204 90.776ZM1006.19 91.232C1005.87 91.52 1005.47 91.744 1004.99 91.904C1004.53 92.048 1004.04 92.12 1003.53 92.12C1002.34 92.12 1001.43 91.8 1000.79 91.16C1000.15 90.52 999.832 89.616 999.832 88.448V80.816H997.576V79.376H999.832V76.616H1001.54V79.376H1005.38V80.816H1001.54V88.352C1001.54 89.104 1001.72 89.68 1002.09 90.08C1002.47 90.464 1003.02 90.656 1003.72 90.656C1004.07 90.656 1004.41 90.6 1004.73 90.488C1005.06 90.376 1005.35 90.216 1005.59 90.008L1006.19 91.232ZM1019.84 86.216H1009.28C1009.38 87.528 1009.88 88.592 1010.79 89.408C1011.7 90.208 1012.86 90.608 1014.25 90.608C1015.03 90.608 1015.75 90.472 1016.41 90.2C1017.06 89.912 1017.63 89.496 1018.11 88.952L1019.07 90.056C1018.51 90.728 1017.81 91.24 1016.96 91.592C1016.13 91.944 1015.21 92.12 1014.2 92.12C1012.9 92.12 1011.75 91.848 1010.74 91.304C1009.75 90.744 1008.98 89.976 1008.42 89C1007.86 88.024 1007.58 86.92 1007.58 85.688C1007.58 84.456 1007.84 83.352 1008.37 82.376C1008.91 81.4 1009.65 80.64 1010.58 80.096C1011.52 79.552 1012.58 79.28 1013.74 79.28C1014.91 79.28 1015.96 79.552 1016.89 80.096C1017.82 80.64 1018.54 81.4 1019.07 82.376C1019.6 83.336 1019.86 84.44 1019.86 85.688L1019.84 86.216ZM1013.74 80.744C1012.53 80.744 1011.5 81.136 1010.67 81.92C1009.86 82.688 1009.39 83.696 1009.28 84.944H1018.23C1018.12 83.696 1017.65 82.688 1016.82 81.92C1016 81.136 1014.98 80.744 1013.74 80.744ZM1036.26 75.2C1038.41 75.2 1040.09 75.712 1041.3 76.736C1042.52 77.76 1043.13 79.168 1043.13 80.96C1043.13 82.752 1042.52 84.16 1041.3 85.184C1040.09 86.192 1038.41 86.696 1036.26 86.696H1031.75V92H1029.97V75.2H1036.26ZM1036.21 85.136C1037.88 85.136 1039.15 84.776 1040.03 84.056C1040.91 83.32 1041.35 82.288 1041.35 80.96C1041.35 79.6 1040.91 78.56 1040.03 77.84C1039.15 77.104 1037.88 76.736 1036.21 76.736H1031.75V85.136H1036.21ZM1051.7 92.12C1050.48 92.12 1049.38 91.848 1048.41 91.304C1047.43 90.744 1046.66 89.976 1046.1 89C1045.54 88.024 1045.26 86.92 1045.26 85.688C1045.26 84.456 1045.54 83.352 1046.1 82.376C1046.66 81.4 1047.43 80.64 1048.41 80.096C1049.38 79.552 1050.48 79.28 1051.7 79.28C1052.91 79.28 1054.01 79.552 1054.98 80.096C1055.96 80.64 1056.72 81.4 1057.26 82.376C1057.82 83.352 1058.1 84.456 1058.1 85.688C1058.1 86.92 1057.82 88.024 1057.26 89C1056.72 89.976 1055.96 90.744 1054.98 91.304C1054.01 91.848 1052.91 92.12 1051.7 92.12ZM1051.7 90.608C1052.59 90.608 1053.39 90.408 1054.1 90.008C1054.82 89.592 1055.38 89.008 1055.78 88.256C1056.18 87.504 1056.38 86.648 1056.38 85.688C1056.38 84.728 1056.18 83.872 1055.78 83.12C1055.38 82.368 1054.82 81.792 1054.1 81.392C1053.39 80.976 1052.59 80.768 1051.7 80.768C1050.8 80.768 1049.99 80.976 1049.27 81.392C1048.57 81.792 1048.01 82.368 1047.59 83.12C1047.19 83.872 1046.99 84.728 1046.99 85.688C1046.99 86.648 1047.19 87.504 1047.59 88.256C1048.01 89.008 1048.57 89.592 1049.27 90.008C1049.99 90.408 1050.8 90.608 1051.7 90.608ZM1064.97 92.12C1063.94 92.12 1062.96 91.976 1062.02 91.688C1061.09 91.384 1060.36 91.008 1059.83 90.56L1060.6 89.216C1061.13 89.632 1061.79 89.976 1062.59 90.248C1063.39 90.504 1064.22 90.632 1065.09 90.632C1066.24 90.632 1067.09 90.456 1067.63 90.104C1068.19 89.736 1068.47 89.224 1068.47 88.568C1068.47 88.104 1068.32 87.744 1068.02 87.488C1067.71 87.216 1067.33 87.016 1066.86 86.888C1066.4 86.744 1065.78 86.608 1065.02 86.48C1063.99 86.288 1063.17 86.096 1062.54 85.904C1061.92 85.696 1061.38 85.352 1060.94 84.872C1060.5 84.392 1060.29 83.728 1060.29 82.88C1060.29 81.824 1060.73 80.96 1061.61 80.288C1062.49 79.616 1063.71 79.28 1065.28 79.28C1066.1 79.28 1066.91 79.392 1067.73 79.616C1068.54 79.824 1069.22 80.104 1069.74 80.456L1069 81.824C1067.96 81.104 1066.72 80.744 1065.28 80.744C1064.19 80.744 1063.37 80.936 1062.81 81.32C1062.26 81.704 1061.99 82.208 1061.99 82.832C1061.99 83.312 1062.14 83.696 1062.45 83.984C1062.77 84.272 1063.16 84.488 1063.62 84.632C1064.09 84.76 1064.73 84.896 1065.54 85.04C1066.55 85.232 1067.36 85.424 1067.97 85.616C1068.58 85.808 1069.1 86.136 1069.53 86.6C1069.96 87.064 1070.18 87.704 1070.18 88.52C1070.18 89.624 1069.71 90.504 1068.78 91.16C1067.87 91.8 1066.6 92.12 1064.97 92.12ZM1079.97 91.232C1079.65 91.52 1079.25 91.744 1078.77 91.904C1078.31 92.048 1077.82 92.12 1077.31 92.12C1076.13 92.12 1075.21 91.8 1074.57 91.16C1073.93 90.52 1073.61 89.616 1073.61 88.448V80.816H1071.36V79.376H1073.61V76.616H1075.32V79.376H1079.16V80.816H1075.32V88.352C1075.32 89.104 1075.5 89.68 1075.87 90.08C1076.25 90.464 1076.8 90.656 1077.5 90.656C1077.85 90.656 1078.19 90.6 1078.51 90.488C1078.85 90.376 1079.13 90.216 1079.37 90.008L1079.97 91.232Z" fill="black"/>
<path d="M1235.54 75.2H1237.32V90.464H1246.72V92H1235.54V75.2ZM1254.29 92.12C1253.07 92.12 1251.97 91.848 1251 91.304C1250.02 90.744 1249.25 89.976 1248.69 89C1248.13 88.024 1247.85 86.92 1247.85 85.688C1247.85 84.456 1248.13 83.352 1248.69 82.376C1249.25 81.4 1250.02 80.64 1251 80.096C1251.97 79.552 1253.07 79.28 1254.29 79.28C1255.5 79.28 1256.6 79.552 1257.57 80.096C1258.55 80.64 1259.31 81.4 1259.85 82.376C1260.41 83.352 1260.69 84.456 1260.69 85.688C1260.69 86.92 1260.41 88.024 1259.85 89C1259.31 89.976 1258.55 90.744 1257.57 91.304C1256.6 91.848 1255.5 92.12 1254.29 92.12ZM1254.29 90.608C1255.18 90.608 1255.98 90.408 1256.69 90.008C1257.41 89.592 1257.97 89.008 1258.37 88.256C1258.77 87.504 1258.97 86.648 1258.97 85.688C1258.97 84.728 1258.77 83.872 1258.37 83.12C1257.97 82.368 1257.41 81.792 1256.69 81.392C1255.98 80.976 1255.18 80.768 1254.29 80.768C1253.39 80.768 1252.58 80.976 1251.86 81.392C1251.16 81.792 1250.6 82.368 1250.18 83.12C1249.78 83.872 1249.58 84.728 1249.58 85.688C1249.58 86.648 1249.78 87.504 1250.18 88.256C1250.6 89.008 1251.16 89.592 1251.86 90.008C1252.58 90.408 1253.39 90.608 1254.29 90.608ZM1275.86 79.376V90.464C1275.86 92.608 1275.33 94.192 1274.28 95.216C1273.24 96.256 1271.66 96.776 1269.55 96.776C1268.38 96.776 1267.27 96.6 1266.21 96.248C1265.17 95.912 1264.32 95.44 1263.67 94.832L1264.53 93.536C1265.14 94.08 1265.88 94.504 1266.74 94.808C1267.62 95.112 1268.54 95.264 1269.5 95.264C1271.1 95.264 1272.28 94.888 1273.03 94.136C1273.78 93.4 1274.16 92.248 1274.16 90.68V89.072C1273.63 89.872 1272.93 90.48 1272.07 90.896C1271.22 91.312 1270.28 91.52 1269.24 91.52C1268.05 91.52 1266.97 91.264 1266 90.752C1265.04 90.224 1264.28 89.496 1263.72 88.568C1263.17 87.624 1262.9 86.56 1262.9 85.376C1262.9 84.192 1263.17 83.136 1263.72 82.208C1264.28 81.28 1265.04 80.56 1266 80.048C1266.96 79.536 1268.04 79.28 1269.24 79.28C1270.31 79.28 1271.28 79.496 1272.14 79.928C1273 80.36 1273.7 80.984 1274.23 81.8V79.376H1275.86ZM1269.4 90.008C1270.32 90.008 1271.14 89.816 1271.88 89.432C1272.61 89.032 1273.18 88.48 1273.58 87.776C1274 87.072 1274.2 86.272 1274.2 85.376C1274.2 84.48 1274 83.688 1273.58 83C1273.18 82.296 1272.61 81.752 1271.88 81.368C1271.16 80.968 1270.33 80.768 1269.4 80.768C1268.49 80.768 1267.67 80.96 1266.93 81.344C1266.21 81.728 1265.64 82.272 1265.23 82.976C1264.83 83.68 1264.63 84.48 1264.63 85.376C1264.63 86.272 1264.83 87.072 1265.23 87.776C1265.64 88.48 1266.21 89.032 1266.93 89.432C1267.67 89.816 1268.49 90.008 1269.4 90.008ZM1285.79 92.12C1284.57 92.12 1283.47 91.848 1282.5 91.304C1281.52 90.744 1280.75 89.976 1280.19 89C1279.63 88.024 1279.35 86.92 1279.35 85.688C1279.35 84.456 1279.63 83.352 1280.19 82.376C1280.75 81.4 1281.52 80.64 1282.5 80.096C1283.47 79.552 1284.57 79.28 1285.79 79.28C1287 79.28 1288.1 79.552 1289.07 80.096C1290.05 80.64 1290.81 81.4 1291.35 82.376C1291.91 83.352 1292.19 84.456 1292.19 85.688C1292.19 86.92 1291.91 88.024 1291.35 89C1290.81 89.976 1290.05 90.744 1289.07 91.304C1288.1 91.848 1287 92.12 1285.79 92.12ZM1285.79 90.608C1286.68 90.608 1287.48 90.408 1288.19 90.008C1288.91 89.592 1289.47 89.008 1289.87 88.256C1290.27 87.504 1290.47 86.648 1290.47 85.688C1290.47 84.728 1290.27 83.872 1289.87 83.12C1289.47 82.368 1288.91 81.792 1288.19 81.392C1287.48 80.976 1286.68 80.768 1285.79 80.768C1284.89 80.768 1284.08 80.976 1283.36 81.392C1282.66 81.792 1282.1 82.368 1281.68 83.12C1281.28 83.872 1281.08 84.728 1281.08 85.688C1281.08 86.648 1281.28 87.504 1281.68 88.256C1282.1 89.008 1282.66 89.592 1283.36 90.008C1284.08 90.408 1284.89 90.608 1285.79 90.608ZM1307.05 79.376V92H1305.42V89.696C1304.97 90.464 1304.35 91.064 1303.57 91.496C1302.78 91.912 1301.89 92.12 1300.88 92.12C1299.23 92.12 1297.93 91.664 1296.97 90.752C1296.02 89.824 1295.55 88.472 1295.55 86.696V79.376H1297.26V86.528C1297.26 87.856 1297.58 88.864 1298.24 89.552C1298.9 90.24 1299.83 90.584 1301.05 90.584C1302.38 90.584 1303.42 90.184 1304.19 89.384C1304.96 88.568 1305.34 87.44 1305.34 86V79.376H1307.05ZM1318.47 91.232C1318.15 91.52 1317.75 91.744 1317.27 91.904C1316.81 92.048 1316.32 92.12 1315.81 92.12C1314.62 92.12 1313.71 91.8 1313.07 91.16C1312.43 90.52 1312.11 89.616 1312.11 88.448V80.816H1309.85V79.376H1312.11V76.616H1313.81V79.376H1317.65V80.816H1313.81V88.352C1313.81 89.104 1314 89.68 1314.37 90.08C1314.75 90.464 1315.29 90.656 1316 90.656C1316.35 90.656 1316.69 90.6 1317.01 90.488C1317.34 90.376 1317.63 90.216 1317.87 90.008L1318.47 91.232Z" fill="black"/>
<path d="M1135.78 74.2C1137.92 74.2 1139.6 74.712 1140.82 75.736C1142.03 76.76 1142.64 78.168 1142.64 79.96C1142.64 81.752 1142.03 83.16 1140.82 84.184C1139.6 85.192 1137.92 85.696 1135.78 85.696H1131.27V91H1129.49V74.2H1135.78ZM1135.73 84.136C1137.39 84.136 1138.67 83.776 1139.55 83.056C1140.43 82.32 1140.87 81.288 1140.87 79.96C1140.87 78.6 1140.43 77.56 1139.55 76.84C1138.67 76.104 1137.39 75.736 1135.73 75.736H1131.27V84.136H1135.73ZM1147.43 80.848C1147.83 80 1148.42 79.36 1149.2 78.928C1150 78.496 1150.99 78.28 1152.15 78.28V79.936L1151.75 79.912C1150.42 79.912 1149.38 80.32 1148.63 81.136C1147.87 81.952 1147.5 83.096 1147.5 84.568V91H1145.79V78.376H1147.43V80.848ZM1160.28 91.12C1159.07 91.12 1157.97 90.848 1156.99 90.304C1156.02 89.744 1155.25 88.976 1154.69 88C1154.13 87.024 1153.85 85.92 1153.85 84.688C1153.85 83.456 1154.13 82.352 1154.69 81.376C1155.25 80.4 1156.02 79.64 1156.99 79.096C1157.97 78.552 1159.07 78.28 1160.28 78.28C1161.5 78.28 1162.59 78.552 1163.57 79.096C1164.55 79.64 1165.31 80.4 1165.85 81.376C1166.41 82.352 1166.69 83.456 1166.69 84.688C1166.69 85.92 1166.41 87.024 1165.85 88C1165.31 88.976 1164.55 89.744 1163.57 90.304C1162.59 90.848 1161.5 91.12 1160.28 91.12ZM1160.28 89.608C1161.18 89.608 1161.98 89.408 1162.68 89.008C1163.4 88.592 1163.96 88.008 1164.36 87.256C1164.76 86.504 1164.96 85.648 1164.96 84.688C1164.96 83.728 1164.76 82.872 1164.36 82.12C1163.96 81.368 1163.4 80.792 1162.68 80.392C1161.98 79.976 1161.18 79.768 1160.28 79.768C1159.39 79.768 1158.58 79.976 1157.86 80.392C1157.15 80.792 1156.59 81.368 1156.18 82.12C1155.78 82.872 1155.58 83.728 1155.58 84.688C1155.58 85.648 1155.78 86.504 1156.18 87.256C1156.59 88.008 1157.15 88.592 1157.86 89.008C1158.58 89.408 1159.39 89.608 1160.28 89.608ZM1174.34 74.512C1173.61 74.512 1173.05 74.712 1172.66 75.112C1172.3 75.512 1172.11 76.104 1172.11 76.888V78.376H1176V79.816H1172.16V91H1170.46V79.816H1168.2V78.376H1170.46V76.816C1170.46 75.664 1170.78 74.752 1171.44 74.08C1172.11 73.408 1173.06 73.072 1174.27 73.072C1174.75 73.072 1175.22 73.144 1175.66 73.288C1176.11 73.416 1176.49 73.608 1176.79 73.864L1176.22 75.136C1175.72 74.72 1175.1 74.512 1174.34 74.512ZM1180.22 78.376H1181.93V91H1180.22V78.376ZM1181.09 75.616C1180.74 75.616 1180.44 75.496 1180.2 75.256C1179.96 75.016 1179.84 74.728 1179.84 74.392C1179.84 74.072 1179.96 73.792 1180.2 73.552C1180.44 73.312 1180.74 73.192 1181.09 73.192C1181.44 73.192 1181.74 73.312 1181.98 73.552C1182.22 73.776 1182.34 74.048 1182.34 74.368C1182.34 74.72 1182.22 75.016 1181.98 75.256C1181.74 75.496 1181.44 75.616 1181.09 75.616ZM1186.69 73.192H1188.4V91H1186.69V73.192ZM1204.13 85.216H1193.57C1193.67 86.528 1194.17 87.592 1195.08 88.408C1195.99 89.208 1197.15 89.608 1198.54 89.608C1199.32 89.608 1200.04 89.472 1200.7 89.2C1201.35 88.912 1201.92 88.496 1202.4 87.952L1203.36 89.056C1202.8 89.728 1202.1 90.24 1201.25 90.592C1200.42 90.944 1199.5 91.12 1198.49 91.12C1197.19 91.12 1196.04 90.848 1195.03 90.304C1194.04 89.744 1193.27 88.976 1192.71 88C1192.15 87.024 1191.87 85.92 1191.87 84.688C1191.87 83.456 1192.13 82.352 1192.66 81.376C1193.2 80.4 1193.94 79.64 1194.87 79.096C1195.81 78.552 1196.87 78.28 1198.03 78.28C1199.2 78.28 1200.25 78.552 1201.18 79.096C1202.11 79.64 1202.83 80.4 1203.36 81.376C1203.89 82.336 1204.15 83.44 1204.15 84.688L1204.13 85.216ZM1198.03 79.744C1196.82 79.744 1195.79 80.136 1194.96 80.92C1194.15 81.688 1193.68 82.696 1193.57 83.944H1202.52C1202.41 82.696 1201.94 81.688 1201.11 80.92C1200.29 80.136 1199.27 79.744 1198.03 79.744Z" fill="black"/>
<path d="M836.499 75.2V92H834.747V84.248H824.235V92H822.459V75.2H824.235V82.688H834.747V75.2H836.499ZM846.782 92.12C845.566 92.12 844.47 91.848 843.494 91.304C842.518 90.744 841.75 89.976 841.19 89C840.63 88.024 840.35 86.92 840.35 85.688C840.35 84.456 840.63 83.352 841.19 82.376C841.75 81.4 842.518 80.64 843.494 80.096C844.47 79.552 845.566 79.28 846.782 79.28C847.998 79.28 849.094 79.552 850.07 80.096C851.046 80.64 851.806 81.4 852.35 82.376C852.91 83.352 853.19 84.456 853.19 85.688C853.19 86.92 852.91 88.024 852.35 89C851.806 89.976 851.046 90.744 850.07 91.304C849.094 91.848 847.998 92.12 846.782 92.12ZM846.782 90.608C847.678 90.608 848.478 90.408 849.182 90.008C849.902 89.592 850.462 89.008 850.862 88.256C851.262 87.504 851.462 86.648 851.462 85.688C851.462 84.728 851.262 83.872 850.862 83.12C850.462 82.368 849.902 81.792 849.182 81.392C848.478 80.976 847.678 80.768 846.782 80.768C845.886 80.768 845.078 80.976 844.358 81.392C843.654 81.792 843.094 82.368 842.678 83.12C842.278 83.872 842.078 84.728 842.078 85.688C842.078 86.648 842.278 87.504 842.678 88.256C843.094 89.008 843.654 89.592 844.358 90.008C845.078 90.408 845.886 90.608 846.782 90.608ZM872.413 79.28C873.997 79.28 875.237 79.736 876.133 80.648C877.045 81.56 877.501 82.904 877.501 84.68V92H875.797V84.848C875.797 83.536 875.477 82.536 874.837 81.848C874.213 81.16 873.325 80.816 872.173 80.816C870.861 80.816 869.829 81.224 869.077 82.04C868.325 82.84 867.949 83.952 867.949 85.376V92H866.245V84.848C866.245 83.536 865.925 82.536 865.285 81.848C864.661 81.16 863.765 80.816 862.597 80.816C861.301 80.816 860.269 81.224 859.501 82.04C858.749 82.84 858.373 83.952 858.373 85.376V92H856.669V79.376H858.301V81.68C858.749 80.912 859.373 80.32 860.173 79.904C860.973 79.488 861.893 79.28 862.933 79.28C863.989 79.28 864.901 79.504 865.669 79.952C866.453 80.4 867.037 81.064 867.421 81.944C867.885 81.112 868.549 80.464 869.413 80C870.293 79.52 871.293 79.28 872.413 79.28ZM893.161 86.216H882.601C882.697 87.528 883.201 88.592 884.113 89.408C885.025 90.208 886.177 90.608 887.569 90.608C888.353 90.608 889.073 90.472 889.729 90.2C890.385 89.912 890.953 89.496 891.433 88.952L892.393 90.056C891.833 90.728 891.129 91.24 890.281 91.592C889.449 91.944 888.529 92.12 887.521 92.12C886.225 92.12 885.073 91.848 884.065 91.304C883.073 90.744 882.297 89.976 881.737 89C881.177 88.024 880.897 86.92 880.897 85.688C880.897 84.456 881.161 83.352 881.689 82.376C882.233 81.4 882.969 80.64 883.897 80.096C884.841 79.552 885.897 79.28 887.065 79.28C888.233 79.28 889.281 79.552 890.209 80.096C891.137 80.64 891.865 81.4 892.393 82.376C892.921 83.336 893.185 84.44 893.185 85.688L893.161 86.216ZM887.065 80.744C885.849 80.744 884.825 81.136 883.993 81.92C883.177 82.688 882.713 83.696 882.601 84.944H891.553C891.441 83.696 890.969 82.688 890.137 81.92C889.321 81.136 888.297 80.744 887.065 80.744Z" fill="black"/>
<path d="M171.446 272.288C167.094 272.288 163.702 271.04 161.27 268.544C158.838 266.048 157.622 262.416 157.622 257.648V238.4H161.174V257.504C161.174 261.408 162.054 264.32 163.814 266.24C165.574 268.16 168.118 269.12 171.446 269.12C174.806 269.12 177.366 268.16 179.126 266.24C180.886 264.32 181.766 261.408 181.766 257.504V238.4H185.222V257.648C185.222 262.416 184.006 266.048 181.574 268.544C179.174 271.04 175.798 272.288 171.446 272.288ZM201.973 272.24C199.925 272.24 197.957 271.952 196.069 271.376C194.213 270.768 192.757 270.016 191.701 269.12L193.237 266.432C194.293 267.264 195.621 267.952 197.221 268.496C198.821 269.008 200.485 269.264 202.213 269.264C204.517 269.264 206.213 268.912 207.301 268.208C208.421 267.472 208.981 266.448 208.981 265.136C208.981 264.208 208.677 263.488 208.069 262.976C207.461 262.432 206.693 262.032 205.765 261.776C204.837 261.488 203.605 261.216 202.069 260.96C200.021 260.576 198.373 260.192 197.125 259.808C195.877 259.392 194.805 258.704 193.909 257.744C193.045 256.784 192.613 255.456 192.613 253.76C192.613 251.648 193.493 249.92 195.253 248.576C197.013 247.232 199.461 246.56 202.597 246.56C204.229 246.56 205.861 246.784 207.493 247.232C209.125 247.648 210.469 248.208 211.525 248.912L210.037 251.648C207.957 250.208 205.477 249.488 202.597 249.488C200.421 249.488 198.773 249.872 197.653 250.64C196.565 251.408 196.021 252.416 196.021 253.664C196.021 254.624 196.325 255.392 196.933 255.968C197.573 256.544 198.357 256.976 199.285 257.264C200.213 257.52 201.493 257.792 203.125 258.08C205.141 258.464 206.757 258.848 207.973 259.232C209.189 259.616 210.229 260.272 211.093 261.2C211.957 262.128 212.389 263.408 212.389 265.04C212.389 267.248 211.461 269.008 209.605 270.32C207.781 271.6 205.237 272.24 201.973 272.24ZM240.674 260.432H219.554C219.746 263.056 220.754 265.184 222.578 266.816C224.402 268.416 226.706 269.216 229.49 269.216C231.058 269.216 232.498 268.944 233.81 268.4C235.122 267.824 236.258 266.992 237.218 265.904L239.138 268.112C238.018 269.456 236.61 270.48 234.914 271.184C233.25 271.888 231.41 272.24 229.394 272.24C226.802 272.24 224.498 271.696 222.482 270.608C220.498 269.488 218.946 267.952 217.826 266C216.706 264.048 216.146 261.84 216.146 259.376C216.146 256.912 216.674 254.704 217.73 252.752C218.818 250.8 220.29 249.28 222.146 248.192C224.034 247.104 226.146 246.56 228.482 246.56C230.818 246.56 232.914 247.104 234.77 248.192C236.626 249.28 238.082 250.8 239.138 252.752C240.194 254.672 240.722 256.88 240.722 259.376L240.674 260.432ZM228.482 249.488C226.05 249.488 224.002 250.272 222.338 251.84C220.706 253.376 219.778 255.392 219.554 257.888H237.458C237.234 255.392 236.29 253.376 234.626 251.84C232.994 250.272 230.946 249.488 228.482 249.488ZM250.922 251.696C251.722 250 252.906 248.72 254.474 247.856C256.074 246.992 258.042 246.56 260.378 246.56V249.872L259.562 249.824C256.906 249.824 254.826 250.64 253.322 252.272C251.818 253.904 251.066 256.192 251.066 259.136V272H247.658V246.752H250.922V251.696ZM279.413 246.56C282.581 246.56 285.093 247.488 286.949 249.344C288.837 251.168 289.781 253.84 289.781 257.36V272H286.373V257.696C286.373 255.072 285.717 253.072 284.405 251.696C283.093 250.32 281.221 249.632 278.789 249.632C276.069 249.632 273.909 250.448 272.309 252.08C270.741 253.68 269.957 255.904 269.957 258.752V272H266.549V246.752H269.813V251.408C270.741 249.872 272.021 248.688 273.653 247.856C275.317 246.992 277.237 246.56 279.413 246.56ZM307.865 246.56C311.161 246.56 313.689 247.392 315.449 249.056C317.209 250.688 318.089 253.12 318.089 256.352V272H314.825V268.064C314.057 269.376 312.921 270.4 311.417 271.136C309.945 271.872 308.185 272.24 306.137 272.24C303.321 272.24 301.081 271.568 299.417 270.224C297.753 268.88 296.921 267.104 296.921 264.896C296.921 262.752 297.689 261.024 299.225 259.712C300.793 258.4 303.273 257.744 306.665 257.744H314.681V256.208C314.681 254.032 314.073 252.384 312.857 251.264C311.641 250.112 309.865 249.536 307.529 249.536C305.929 249.536 304.393 249.808 302.921 250.352C301.449 250.864 300.185 251.584 299.129 252.512L297.593 249.968C298.873 248.88 300.409 248.048 302.201 247.472C303.993 246.864 305.881 246.56 307.865 246.56ZM306.665 269.552C308.585 269.552 310.233 269.12 311.609 268.256C312.985 267.36 314.009 266.08 314.681 264.416V260.288H306.761C302.441 260.288 300.281 261.792 300.281 264.8C300.281 266.272 300.841 267.44 301.961 268.304C303.081 269.136 304.649 269.552 306.665 269.552ZM358.834 246.56C362.002 246.56 364.482 247.472 366.274 249.296C368.098 251.12 369.01 253.808 369.01 257.36V272H365.602V257.696C365.602 255.072 364.962 253.072 363.682 251.696C362.434 250.32 360.658 249.632 358.354 249.632C355.73 249.632 353.666 250.448 352.162 252.08C350.658 253.68 349.906 255.904 349.906 258.752V272H346.498V257.696C346.498 255.072 345.858 253.072 344.578 251.696C343.33 250.32 341.538 249.632 339.202 249.632C336.61 249.632 334.546 250.448 333.01 252.08C331.506 253.68 330.754 255.904 330.754 258.752V272H327.346V246.752H330.61V251.36C331.506 249.824 332.754 248.64 334.354 247.808C335.954 246.976 337.794 246.56 339.874 246.56C341.986 246.56 343.81 247.008 345.346 247.904C346.914 248.8 348.082 250.128 348.85 251.888C349.778 250.224 351.106 248.928 352.834 248C354.594 247.04 356.594 246.56 358.834 246.56ZM400.33 260.432H379.21C379.402 263.056 380.41 265.184 382.234 266.816C384.058 268.416 386.362 269.216 389.146 269.216C390.714 269.216 392.154 268.944 393.466 268.4C394.778 267.824 395.914 266.992 396.874 265.904L398.794 268.112C397.674 269.456 396.266 270.48 394.57 271.184C392.906 271.888 391.066 272.24 389.05 272.24C386.458 272.24 384.154 271.696 382.138 270.608C380.154 269.488 378.602 267.952 377.482 266C376.362 264.048 375.802 261.84 375.802 259.376C375.802 256.912 376.33 254.704 377.386 252.752C378.474 250.8 379.946 249.28 381.802 248.192C383.69 247.104 385.802 246.56 388.138 246.56C390.474 246.56 392.57 247.104 394.426 248.192C396.282 249.28 397.738 250.8 398.794 252.752C399.85 254.672 400.378 256.88 400.378 259.376L400.33 260.432ZM388.138 249.488C385.706 249.488 383.658 250.272 381.994 251.84C380.362 253.376 379.434 255.392 379.21 257.888H397.114C396.89 255.392 395.946 253.376 394.282 251.84C392.65 250.272 390.602 249.488 388.138 249.488Z" fill="black"/>
<path d="M174.598 326.696V329H156.778V303.8H174.058V306.104H159.442V315.068H172.474V317.336H159.442V326.696H174.598ZM197.319 302.288V329H194.871V325.256C194.103 326.528 193.083 327.5 191.811 328.172C190.563 328.844 189.147 329.18 187.563 329.18C185.787 329.18 184.179 328.772 182.739 327.956C181.299 327.14 180.171 326 179.355 324.536C178.539 323.072 178.131 321.404 178.131 319.532C178.131 317.66 178.539 315.992 179.355 314.528C180.171 313.064 181.299 311.936 182.739 311.144C184.179 310.328 185.787 309.92 187.563 309.92C189.099 309.92 190.479 310.244 191.703 310.892C192.951 311.516 193.971 312.44 194.763 313.664V302.288H197.319ZM187.779 326.912C189.099 326.912 190.287 326.612 191.343 326.012C192.423 325.388 193.263 324.512 193.863 323.384C194.487 322.256 194.799 320.972 194.799 319.532C194.799 318.092 194.487 316.808 193.863 315.68C193.263 314.552 192.423 313.688 191.343 313.088C190.287 312.464 189.099 312.152 187.779 312.152C186.435 312.152 185.223 312.464 184.143 313.088C183.087 313.688 182.247 314.552 181.623 315.68C181.023 316.808 180.723 318.092 180.723 319.532C180.723 320.972 181.023 322.256 181.623 323.384C182.247 324.512 183.087 325.388 184.143 326.012C185.223 326.612 186.435 326.912 187.779 326.912ZM204.437 310.064H206.993V329H204.437V310.064ZM205.733 305.924C205.205 305.924 204.761 305.744 204.401 305.384C204.041 305.024 203.861 304.592 203.861 304.088C203.861 303.608 204.041 303.188 204.401 302.828C204.761 302.468 205.205 302.288 205.733 302.288C206.261 302.288 206.705 302.468 207.065 302.828C207.425 303.164 207.605 303.572 207.605 304.052C207.605 304.58 207.425 305.024 207.065 305.384C206.705 305.744 206.261 305.924 205.733 305.924ZM224.077 327.848C223.597 328.28 222.997 328.616 222.277 328.856C221.581 329.072 220.849 329.18 220.081 329.18C218.305 329.18 216.937 328.7 215.977 327.74C215.017 326.78 214.537 325.424 214.537 323.672V312.224H211.153V310.064H214.537V305.924H217.093V310.064H222.853V312.224H217.093V323.528C217.093 324.656 217.369 325.52 217.921 326.12C218.497 326.696 219.313 326.984 220.369 326.984C220.897 326.984 221.401 326.9 221.881 326.732C222.385 326.564 222.817 326.324 223.177 326.012L224.077 327.848ZM248.124 303.8C251.34 303.8 253.86 304.568 255.684 306.104C257.508 307.64 258.42 309.752 258.42 312.44C258.42 315.128 257.508 317.24 255.684 318.776C253.86 320.288 251.34 321.044 248.124 321.044H241.356V329H238.692V303.8H248.124ZM248.052 318.704C250.548 318.704 252.456 318.164 253.776 317.084C255.096 315.98 255.756 314.432 255.756 312.44C255.756 310.4 255.096 308.84 253.776 307.76C252.456 306.656 250.548 306.104 248.052 306.104H241.356V318.704H248.052ZM265.596 313.772C266.196 312.5 267.084 311.54 268.26 310.892C269.46 310.244 270.936 309.92 272.688 309.92V312.404L272.076 312.368C270.084 312.368 268.524 312.98 267.396 314.204C266.268 315.428 265.704 317.144 265.704 319.352V329H263.148V310.064H265.596V313.772ZM284.88 329.18C283.056 329.18 281.412 328.772 279.948 327.956C278.484 327.116 277.332 325.964 276.492 324.5C275.652 323.036 275.232 321.38 275.232 319.532C275.232 317.684 275.652 316.028 276.492 314.564C277.332 313.1 278.484 311.96 279.948 311.144C281.412 310.328 283.056 309.92 284.88 309.92C286.704 309.92 288.348 310.328 289.812 311.144C291.276 311.96 292.416 313.1 293.232 314.564C294.072 316.028 294.492 317.684 294.492 319.532C294.492 321.38 294.072 323.036 293.232 324.5C292.416 325.964 291.276 327.116 289.812 327.956C288.348 328.772 286.704 329.18 284.88 329.18ZM284.88 326.912C286.224 326.912 287.424 326.612 288.48 326.012C289.56 325.388 290.4 324.512 291 323.384C291.6 322.256 291.9 320.972 291.9 319.532C291.9 318.092 291.6 316.808 291 315.68C290.4 314.552 289.56 313.688 288.48 313.088C287.424 312.464 286.224 312.152 284.88 312.152C283.536 312.152 282.324 312.464 281.244 313.088C280.188 313.688 279.348 314.552 278.724 315.68C278.124 316.808 277.824 318.092 277.824 319.532C277.824 320.972 278.124 322.256 278.724 323.384C279.348 324.512 280.188 325.388 281.244 326.012C282.324 326.612 283.536 326.912 284.88 326.912ZM305.974 304.268C304.87 304.268 304.03 304.568 303.454 305.168C302.902 305.768 302.626 306.656 302.626 307.832V310.064H308.458V312.224H302.698V329H300.142V312.224H296.758V310.064H300.142V307.724C300.142 305.996 300.634 304.628 301.618 303.62C302.626 302.612 304.042 302.108 305.866 302.108C306.586 302.108 307.282 302.216 307.954 302.432C308.626 302.624 309.19 302.912 309.646 303.296L308.782 305.204C308.038 304.58 307.102 304.268 305.974 304.268ZM314.794 310.064H317.35V329H314.794V310.064ZM316.09 305.924C315.562 305.924 315.118 305.744 314.758 305.384C314.398 305.024 314.218 304.592 314.218 304.088C314.218 303.608 314.398 303.188 314.758 302.828C315.118 302.468 315.562 302.288 316.09 302.288C316.618 302.288 317.062 302.468 317.422 302.828C317.782 303.164 317.962 303.572 317.962 304.052C317.962 304.58 317.782 305.024 317.422 305.384C317.062 305.744 316.618 305.924 316.09 305.924ZM324.496 302.288H327.052V329H324.496V302.288ZM350.652 320.324H334.812C334.956 322.292 335.712 323.888 337.08 325.112C338.448 326.312 340.176 326.912 342.264 326.912C343.44 326.912 344.52 326.708 345.504 326.3C346.488 325.868 347.34 325.244 348.06 324.428L349.5 326.084C348.66 327.092 347.604 327.86 346.332 328.388C345.084 328.916 343.704 329.18 342.192 329.18C340.248 329.18 338.52 328.772 337.008 327.956C335.52 327.116 334.356 325.964 333.516 324.5C332.676 323.036 332.256 321.38 332.256 319.532C332.256 317.684 332.652 316.028 333.444 314.564C334.26 313.1 335.364 311.96 336.756 311.144C338.172 310.328 339.756 309.92 341.508 309.92C343.26 309.92 344.832 310.328 346.224 311.144C347.616 311.96 348.708 313.1 349.5 314.564C350.292 316.004 350.688 317.66 350.688 319.532L350.652 320.324ZM341.508 312.116C339.684 312.116 338.148 312.704 336.9 313.88C335.676 315.032 334.98 316.544 334.812 318.416H348.24C348.072 316.544 347.364 315.032 346.116 313.88C344.892 312.704 343.356 312.116 341.508 312.116Z" fill="black"/>
<rect x="154" y="388" width="400" height="400" fill="#C4C4C4"/>
<rect x="574" y="388" width="400" height="400" fill="#C4C4C4"/>
<rect x="994" y="388" width="400" height="400" fill="#C4C4C4"/>
</svg>
