<svg width="1440" height="900" viewBox="0 0 1440 900" fill="none" xmlns="http://www.w3.org/2000/svg">
<rect width="1440" height="900" fill="#E5E5E5"/>
<rect width="1440" height="900" fill="white"/>
<path d="M534.008 274.288C529.656 274.288 526.264 273.04 523.832 270.544C521.4 268.048 520.184 264.416 520.184 259.648V240.4H523.736V259.504C523.736 263.408 524.616 266.32 526.376 268.24C528.136 270.16 530.68 271.12 534.008 271.12C537.368 271.12 539.928 270.16 541.688 268.24C543.448 266.32 544.328 263.408 544.328 259.504V240.4H547.784V259.648C547.784 264.416 546.568 268.048 544.136 270.544C541.736 273.04 538.36 274.288 534.008 274.288ZM564.536 274.24C562.488 274.24 560.52 273.952 558.632 273.376C556.776 272.768 555.32 272.016 554.264 271.12L555.8 268.432C556.856 269.264 558.184 269.952 559.784 270.496C561.384 271.008 563.048 271.264 564.776 271.264C567.08 271.264 568.776 270.912 569.864 270.208C570.984 269.472 571.544 268.448 571.544 267.136C571.544 266.208 571.24 265.488 570.632 264.976C570.024 264.432 569.256 264.032 568.328 263.776C567.4 263.488 566.168 263.216 564.632 262.96C562.584 262.576 560.936 262.192 559.688 261.808C558.44 261.392 557.368 260.704 556.472 259.744C555.608 258.784 555.176 257.456 555.176 255.76C555.176 253.648 556.056 251.92 557.816 250.576C559.576 249.232 562.024 248.56 565.16 248.56C566.792 248.56 568.424 248.784 570.056 249.232C571.688 249.648 573.032 250.208 574.088 250.912L572.6 253.648C570.52 252.208 568.04 251.488 565.16 251.488C562.984 251.488 561.336 251.872 560.216 252.64C559.128 253.408 558.584 254.416 558.584 255.664C558.584 256.624 558.888 257.392 559.496 257.968C560.136 258.544 560.92 258.976 561.848 259.264C562.776 259.52 564.056 259.792 565.688 260.08C567.704 260.464 569.32 260.848 570.536 261.232C571.752 261.616 572.792 262.272 573.656 263.2C574.52 264.128 574.952 265.408 574.952 267.04C574.952 269.248 574.024 271.008 572.168 272.32C570.344 273.6 567.8 274.24 564.536 274.24ZM603.236 262.432H582.116C582.308 265.056 583.316 267.184 585.14 268.816C586.964 270.416 589.268 271.216 592.052 271.216C593.62 271.216 595.06 270.944 596.372 270.4C597.684 269.824 598.82 268.992 599.78 267.904L601.7 270.112C600.58 271.456 599.172 272.48 597.476 273.184C595.812 273.888 593.972 274.24 591.956 274.24C589.364 274.24 587.06 273.696 585.044 272.608C583.06 271.488 581.508 269.952 580.388 268C579.268 266.048 578.708 263.84 578.708 261.376C578.708 258.912 579.236 256.704 580.292 254.752C581.38 252.8 582.852 251.28 584.708 250.192C586.596 249.104 588.708 248.56 591.044 248.56C593.38 248.56 595.476 249.104 597.332 250.192C599.188 251.28 600.644 252.8 601.7 254.752C602.756 256.672 603.284 258.88 603.284 261.376L603.236 262.432ZM591.044 251.488C588.612 251.488 586.564 252.272 584.9 253.84C583.268 255.376 582.34 257.392 582.116 259.888H600.02C599.796 257.392 598.852 255.376 597.188 253.84C595.556 252.272 593.508 251.488 591.044 251.488ZM613.485 253.696C614.285 252 615.469 250.72 617.037 249.856C618.637 248.992 620.605 248.56 622.941 248.56V251.872L622.125 251.824C619.469 251.824 617.389 252.64 615.885 254.272C614.381 255.904 613.629 258.192 613.629 261.136V274H610.221V248.752H613.485V253.696ZM641.975 248.56C645.143 248.56 647.655 249.488 649.511 251.344C651.399 253.168 652.343 255.84 652.343 259.36V274H648.935V259.696C648.935 257.072 648.279 255.072 646.967 253.696C645.655 252.32 643.783 251.632 641.351 251.632C638.631 251.632 636.471 252.448 634.871 254.08C633.303 255.68 632.519 257.904 632.519 260.752V274H629.111V248.752H632.375V253.408C633.303 251.872 634.583 250.688 636.215 249.856C637.879 248.992 639.799 248.56 641.975 248.56ZM670.428 248.56C673.724 248.56 676.252 249.392 678.012 251.056C679.772 252.688 680.652 255.12 680.652 258.352V274H677.388V270.064C676.62 271.376 675.484 272.4 673.98 273.136C672.508 273.872 670.748 274.24 668.7 274.24C665.884 274.24 663.644 273.568 661.98 272.224C660.316 270.88 659.484 269.104 659.484 266.896C659.484 264.752 660.252 263.024 661.788 261.712C663.356 260.4 665.836 259.744 669.228 259.744H677.244V258.208C677.244 256.032 676.636 254.384 675.42 253.264C674.204 252.112 672.428 251.536 670.092 251.536C668.492 251.536 666.956 251.808 665.484 252.352C664.012 252.864 662.748 253.584 661.692 254.512L660.156 251.968C661.436 250.88 662.972 250.048 664.764 249.472C666.556 248.864 668.444 248.56 670.428 248.56ZM669.228 271.552C671.148 271.552 672.796 271.12 674.172 270.256C675.548 269.36 676.572 268.08 677.244 266.416V262.288H669.324C665.004 262.288 662.844 263.792 662.844 266.8C662.844 268.272 663.404 269.44 664.524 270.304C665.644 271.136 667.212 271.552 669.228 271.552ZM721.396 248.56C724.564 248.56 727.044 249.472 728.836 251.296C730.66 253.12 731.572 255.808 731.572 259.36V274H728.164V259.696C728.164 257.072 727.524 255.072 726.244 253.696C724.996 252.32 723.22 251.632 720.916 251.632C718.292 251.632 716.228 252.448 714.724 254.08C713.22 255.68 712.468 257.904 712.468 260.752V274H709.06V259.696C709.06 257.072 708.42 255.072 707.14 253.696C705.892 252.32 704.1 251.632 701.764 251.632C699.172 251.632 697.108 252.448 695.572 254.08C694.068 255.68 693.316 257.904 693.316 260.752V274H689.908V248.752H693.172V253.36C694.068 251.824 695.316 250.64 696.916 249.808C698.516 248.976 700.356 248.56 702.436 248.56C704.548 248.56 706.372 249.008 707.908 249.904C709.476 250.8 710.644 252.128 711.412 253.888C712.34 252.224 713.668 250.928 715.396 250C717.156 249.04 719.156 248.56 721.396 248.56ZM762.892 262.432H741.772C741.964 265.056 742.972 267.184 744.796 268.816C746.62 270.416 748.924 271.216 751.708 271.216C753.276 271.216 754.716 270.944 756.028 270.4C757.34 269.824 758.476 268.992 759.436 267.904L761.356 270.112C760.236 271.456 758.828 272.48 757.132 273.184C755.468 273.888 753.628 274.24 751.612 274.24C749.02 274.24 746.716 273.696 744.7 272.608C742.716 271.488 741.164 269.952 740.044 268C738.924 266.048 738.364 263.84 738.364 261.376C738.364 258.912 738.892 256.704 739.948 254.752C741.036 252.8 742.508 251.28 744.364 250.192C746.252 249.104 748.364 248.56 750.7 248.56C753.036 248.56 755.132 249.104 756.988 250.192C758.844 251.28 760.3 252.8 761.356 254.752C762.412 256.672 762.94 258.88 762.94 261.376L762.892 262.432ZM750.7 251.488C748.268 251.488 746.22 252.272 744.556 253.84C742.924 255.376 741.996 257.392 741.772 259.888H759.676C759.452 257.392 758.508 255.376 756.844 253.84C755.212 252.272 753.164 251.488 750.7 251.488Z" fill="black"/>
<path d="M526.736 302.2H533.576C535.352 302.2 536.92 302.56 538.28 303.28C539.64 303.984 540.696 304.976 541.448 306.256C542.2 307.52 542.576 308.968 542.576 310.6C542.576 312.232 542.2 313.688 541.448 314.968C540.696 316.232 539.64 317.224 538.28 317.944C536.92 318.648 535.352 319 533.576 319H526.736V302.2ZM533.48 317.464C534.952 317.464 536.24 317.176 537.344 316.6C538.448 316.008 539.304 315.2 539.912 314.176C540.52 313.136 540.824 311.944 540.824 310.6C540.824 309.256 540.52 308.072 539.912 307.048C539.304 306.008 538.448 305.2 537.344 304.624C536.24 304.032 534.952 303.736 533.48 303.736H528.512V317.464H533.48ZM550.62 306.28C552.268 306.28 553.532 306.696 554.412 307.528C555.292 308.344 555.732 309.56 555.732 311.176V319H554.1V317.032C553.716 317.688 553.148 318.2 552.396 318.568C551.66 318.936 550.78 319.12 549.756 319.12C548.348 319.12 547.228 318.784 546.396 318.112C545.564 317.44 545.148 316.552 545.148 315.448C545.148 314.376 545.532 313.512 546.3 312.856C547.084 312.2 548.324 311.872 550.02 311.872H554.028V311.104C554.028 310.016 553.724 309.192 553.116 308.632C552.508 308.056 551.62 307.768 550.452 307.768C549.652 307.768 548.884 307.904 548.148 308.176C547.412 308.432 546.78 308.792 546.252 309.256L545.484 307.984C546.124 307.44 546.892 307.024 547.788 306.736C548.684 306.432 549.628 306.28 550.62 306.28ZM550.02 317.776C550.98 317.776 551.804 317.56 552.492 317.128C553.18 316.68 553.692 316.04 554.028 315.208V313.144H550.068C547.908 313.144 546.828 313.896 546.828 315.4C546.828 316.136 547.108 316.72 547.668 317.152C548.228 317.568 549.012 317.776 550.02 317.776ZM567.008 318.232C566.688 318.52 566.288 318.744 565.808 318.904C565.344 319.048 564.856 319.12 564.344 319.12C563.16 319.12 562.248 318.8 561.608 318.16C560.968 317.52 560.648 316.616 560.648 315.448V307.816H558.392V306.376H560.648V303.616H562.352V306.376H566.192V307.816H562.352V315.352C562.352 316.104 562.536 316.68 562.904 317.08C563.288 317.464 563.832 317.656 564.536 317.656C564.888 317.656 565.224 317.6 565.544 317.488C565.88 317.376 566.168 317.216 566.408 317.008L567.008 318.232ZM580.657 313.216H570.097C570.193 314.528 570.697 315.592 571.609 316.408C572.521 317.208 573.673 317.608 575.065 317.608C575.849 317.608 576.569 317.472 577.225 317.2C577.881 316.912 578.449 316.496 578.929 315.952L579.889 317.056C579.329 317.728 578.625 318.24 577.777 318.592C576.945 318.944 576.025 319.12 575.017 319.12C573.721 319.12 572.569 318.848 571.561 318.304C570.569 317.744 569.793 316.976 569.233 316C568.673 315.024 568.393 313.92 568.393 312.688C568.393 311.456 568.657 310.352 569.185 309.376C569.729 308.4 570.465 307.64 571.393 307.096C572.337 306.552 573.393 306.28 574.561 306.28C575.729 306.28 576.777 306.552 577.705 307.096C578.633 307.64 579.361 308.4 579.889 309.376C580.417 310.336 580.681 311.44 580.681 312.688L580.657 313.216ZM574.561 307.744C573.345 307.744 572.321 308.136 571.489 308.92C570.673 309.688 570.209 310.696 570.097 311.944H579.049C578.937 310.696 578.465 309.688 577.633 308.92C576.817 308.136 575.793 307.744 574.561 307.744Z" fill="black"/>
<rect x="524" y="344" width="400" height="400" fill="#C4C4C4"/>
<path d="M535.032 783.144C533.368 783.144 531.864 782.776 530.52 782.04C529.192 781.304 528.144 780.288 527.376 778.992C526.624 777.68 526.248 776.216 526.248 774.6C526.248 772.984 526.624 771.528 527.376 770.232C528.144 768.92 529.2 767.896 530.544 767.16C531.888 766.424 533.392 766.056 535.056 766.056C536.304 766.056 537.456 766.264 538.512 766.68C539.568 767.096 540.464 767.704 541.2 768.504L540.072 769.632C538.76 768.304 537.104 767.64 535.104 767.64C533.776 767.64 532.568 767.944 531.48 768.552C530.392 769.16 529.536 769.992 528.912 771.048C528.304 772.104 528 773.288 528 774.6C528 775.912 528.304 777.096 528.912 778.152C529.536 779.208 530.392 780.04 531.48 780.648C532.568 781.256 533.776 781.56 535.104 781.56C537.12 781.56 538.776 780.888 540.072 779.544L541.2 780.672C540.464 781.472 539.56 782.088 538.488 782.52C537.432 782.936 536.28 783.144 535.032 783.144ZM548.855 770.28C550.503 770.28 551.767 770.696 552.647 771.528C553.527 772.344 553.967 773.56 553.967 775.176V783H552.335V781.032C551.951 781.688 551.383 782.2 550.631 782.568C549.895 782.936 549.015 783.12 547.991 783.12C546.583 783.12 545.463 782.784 544.631 782.112C543.799 781.44 543.383 780.552 543.383 779.448C543.383 778.376 543.767 777.512 544.535 776.856C545.319 776.2 546.559 775.872 548.255 775.872H552.263V775.104C552.263 774.016 551.959 773.192 551.351 772.632C550.743 772.056 549.855 771.768 548.687 771.768C547.887 771.768 547.119 771.904 546.383 772.176C545.647 772.432 545.015 772.792 544.487 773.256L543.719 771.984C544.359 771.44 545.127 771.024 546.023 770.736C546.919 770.432 547.863 770.28 548.855 770.28ZM548.255 781.776C549.215 781.776 550.039 781.56 550.727 781.128C551.415 780.68 551.927 780.04 552.263 779.208V777.144H548.303C546.143 777.144 545.062 777.896 545.062 779.4C545.062 780.136 545.343 780.72 545.903 781.152C546.463 781.568 547.247 781.776 548.255 781.776ZM565.099 770.28C566.283 770.28 567.355 770.552 568.315 771.096C569.275 771.624 570.027 772.376 570.571 773.352C571.115 774.328 571.387 775.44 571.387 776.688C571.387 777.952 571.115 779.072 570.571 780.048C570.027 781.024 569.275 781.784 568.315 782.328C567.371 782.856 566.299 783.12 565.099 783.12C564.075 783.12 563.147 782.912 562.315 782.496C561.499 782.064 560.827 781.44 560.299 780.624V787.656H558.595V770.376H560.227V772.872C560.739 772.04 561.411 771.4 562.243 770.952C563.091 770.504 564.043 770.28 565.099 770.28ZM564.979 781.608C565.859 781.608 566.659 781.408 567.379 781.008C568.099 780.592 568.659 780.008 569.059 779.256C569.475 778.504 569.683 777.648 569.683 776.688C569.683 775.728 569.475 774.88 569.059 774.144C568.659 773.392 568.099 772.808 567.379 772.392C566.659 771.976 565.859 771.768 564.979 771.768C564.083 771.768 563.275 771.976 562.555 772.392C561.851 772.808 561.291 773.392 560.875 774.144C560.475 774.88 560.275 775.728 560.275 776.688C560.275 777.648 560.475 778.504 560.875 779.256C561.291 780.008 561.851 780.592 562.555 781.008C563.275 781.408 564.083 781.608 564.979 781.608ZM581.508 782.232C581.188 782.52 580.788 782.744 580.308 782.904C579.844 783.048 579.356 783.12 578.844 783.12C577.66 783.12 576.748 782.8 576.108 782.16C575.468 781.52 575.148 780.616 575.148 779.448V771.816H572.892V770.376H575.148V767.616H576.852V770.376H580.692V771.816H576.852V779.352C576.852 780.104 577.036 780.68 577.404 781.08C577.788 781.464 578.332 781.656 579.036 781.656C579.388 781.656 579.724 781.6 580.044 781.488C580.38 781.376 580.668 781.216 580.908 781.008L581.508 782.232ZM584.61 770.376H586.314V783H584.61V770.376ZM585.474 767.616C585.122 767.616 584.826 767.496 584.586 767.256C584.346 767.016 584.226 766.728 584.226 766.392C584.226 766.072 584.346 765.792 584.586 765.552C584.826 765.312 585.122 765.192 585.474 765.192C585.826 765.192 586.122 765.312 586.362 765.552C586.602 765.776 586.722 766.048 586.722 766.368C586.722 766.72 586.602 767.016 586.362 767.256C586.122 767.496 585.826 767.616 585.474 767.616ZM596.216 783.12C595 783.12 593.904 782.848 592.928 782.304C591.952 781.744 591.184 780.976 590.624 780C590.064 779.024 589.784 777.92 589.784 776.688C589.784 775.456 590.064 774.352 590.624 773.376C591.184 772.4 591.952 771.64 592.928 771.096C593.904 770.552 595 770.28 596.216 770.28C597.432 770.28 598.528 770.552 599.504 771.096C600.48 771.64 601.24 772.4 601.784 773.376C602.344 774.352 602.624 775.456 602.624 776.688C602.624 777.92 602.344 779.024 601.784 780C601.24 780.976 600.48 781.744 599.504 782.304C598.528 782.848 597.432 783.12 596.216 783.12ZM596.216 781.608C597.112 781.608 597.912 781.408 598.616 781.008C599.336 780.592 599.896 780.008 600.296 779.256C600.696 778.504 600.896 777.648 600.896 776.688C600.896 775.728 600.696 774.872 600.296 774.12C599.896 773.368 599.336 772.792 598.616 772.392C597.912 771.976 597.112 771.768 596.216 771.768C595.32 771.768 594.512 771.976 593.792 772.392C593.088 772.792 592.528 773.368 592.112 774.12C591.712 774.872 591.512 775.728 591.512 776.688C591.512 777.648 591.712 778.504 592.112 779.256C592.528 780.008 593.088 780.592 593.792 781.008C594.512 781.408 595.32 781.608 596.216 781.608ZM612.535 770.28C614.119 770.28 615.375 770.744 616.303 771.672C617.247 772.584 617.719 773.92 617.719 775.68V783H616.015V775.848C616.015 774.536 615.687 773.536 615.031 772.848C614.375 772.16 613.439 771.816 612.223 771.816C610.863 771.816 609.783 772.224 608.983 773.04C608.199 773.84 607.807 774.952 607.807 776.376V783H606.103V770.376H607.735V772.704C608.199 771.936 608.839 771.344 609.655 770.928C610.487 770.496 611.447 770.28 612.535 770.28Z" fill="black"/>
<path d="M536.432 804.08L535.808 809.12H539.216V810.44H535.64L535.088 815H533.792L534.344 810.44H529.424L528.848 815H527.552L528.104 810.44H524.696V809.12H528.272L528.896 804.08H525.464V802.76H529.064L529.616 798.2H530.936L530.36 802.76H535.304L535.856 798.2H537.152L536.6 802.76H539.984V804.08H536.432ZM535.136 804.08H530.216L529.568 809.12H534.512L535.136 804.08ZM557.487 798.2V815H555.735V807.248H545.223V815H543.447V798.2H545.223V805.688H555.735V798.2H557.487ZM567.026 802.28C568.674 802.28 569.938 802.696 570.818 803.528C571.698 804.344 572.138 805.56 572.138 807.176V815H570.506V813.032C570.122 813.688 569.554 814.2 568.802 814.568C568.066 814.936 567.186 815.12 566.162 815.12C564.754 815.12 563.634 814.784 562.802 814.112C561.97 813.44 561.554 812.552 561.554 811.448C561.554 810.376 561.938 809.512 562.706 808.856C563.49 808.2 564.73 807.872 566.426 807.872H570.434V807.104C570.434 806.016 570.13 805.192 569.522 804.632C568.914 804.056 568.026 803.768 566.858 803.768C566.058 803.768 565.29 803.904 564.554 804.176C563.818 804.432 563.186 804.792 562.658 805.256L561.89 803.984C562.53 803.44 563.298 803.024 564.194 802.736C565.09 802.432 566.034 802.28 567.026 802.28ZM566.426 813.776C567.386 813.776 568.21 813.56 568.898 813.128C569.586 812.68 570.098 812.04 570.434 811.208V809.144H566.474C564.314 809.144 563.234 809.896 563.234 811.4C563.234 812.136 563.514 812.72 564.074 813.152C564.634 813.568 565.418 813.776 566.426 813.776ZM580.151 815.12C579.127 815.12 578.143 814.976 577.199 814.688C576.271 814.384 575.543 814.008 575.015 813.56L575.783 812.216C576.311 812.632 576.975 812.976 577.775 813.248C578.575 813.504 579.407 813.632 580.271 813.632C581.423 813.632 582.271 813.456 582.815 813.104C583.375 812.736 583.655 812.224 583.655 811.568C583.655 811.104 583.503 810.744 583.199 810.488C582.895 810.216 582.511 810.016 582.047 809.888C581.583 809.744 580.967 809.608 580.199 809.48C579.175 809.288 578.351 809.096 577.727 808.904C577.103 808.696 576.567 808.352 576.119 807.872C575.687 807.392 575.471 806.728 575.471 805.88C575.471 804.824 575.911 803.96 576.791 803.288C577.671 802.616 578.895 802.28 580.463 802.28C581.279 802.28 582.095 802.392 582.911 802.616C583.727 802.824 584.399 803.104 584.927 803.456L584.183 804.824C583.143 804.104 581.903 803.744 580.463 803.744C579.375 803.744 578.551 803.936 577.991 804.32C577.447 804.704 577.175 805.208 577.175 805.832C577.175 806.312 577.327 806.696 577.631 806.984C577.951 807.272 578.343 807.488 578.807 807.632C579.271 807.76 579.911 807.896 580.727 808.04C581.735 808.232 582.543 808.424 583.151 808.616C583.759 808.808 584.279 809.136 584.711 809.6C585.143 810.064 585.359 810.704 585.359 811.52C585.359 812.624 584.895 813.504 583.967 814.16C583.055 814.8 581.783 815.12 580.151 815.12ZM594.941 802.28C596.525 802.28 597.781 802.744 598.709 803.672C599.653 804.584 600.125 805.92 600.125 807.68V815H598.421V807.848C598.421 806.536 598.093 805.536 597.437 804.848C596.781 804.16 595.845 803.816 594.629 803.816C593.269 803.816 592.189 804.224 591.389 805.04C590.605 805.84 590.213 806.952 590.213 808.376V815H588.509V797.192H590.213V804.584C590.677 803.848 591.317 803.28 592.133 802.88C592.949 802.48 593.885 802.28 594.941 802.28ZM611.399 814.232C611.079 814.52 610.679 814.744 610.199 814.904C609.735 815.048 609.247 815.12 608.735 815.12C607.551 815.12 606.639 814.8 605.999 814.16C605.359 813.52 605.039 812.616 605.039 811.448V803.816H602.783V802.376H605.039V799.616H606.743V802.376H610.583V803.816H606.743V811.352C606.743 812.104 606.927 812.68 607.295 813.08C607.679 813.464 608.223 813.656 608.927 813.656C609.279 813.656 609.615 813.6 609.935 813.488C610.271 813.376 610.559 813.216 610.799 813.008L611.399 814.232ZM618.917 802.28C620.565 802.28 621.829 802.696 622.709 803.528C623.589 804.344 624.029 805.56 624.029 807.176V815H622.397V813.032C622.013 813.688 621.445 814.2 620.693 814.568C619.957 814.936 619.077 815.12 618.053 815.12C616.645 815.12 615.525 814.784 614.693 814.112C613.861 813.44 613.445 812.552 613.445 811.448C613.445 810.376 613.829 809.512 614.597 808.856C615.381 808.2 616.621 807.872 618.317 807.872H622.325V807.104C622.325 806.016 622.021 805.192 621.413 804.632C620.805 804.056 619.917 803.768 618.749 803.768C617.949 803.768 617.181 803.904 616.445 804.176C615.709 804.432 615.077 804.792 614.549 805.256L613.781 803.984C614.421 803.44 615.189 803.024 616.085 802.736C616.981 802.432 617.925 802.28 618.917 802.28ZM618.317 813.776C619.277 813.776 620.101 813.56 620.789 813.128C621.477 812.68 621.989 812.04 622.325 811.208V809.144H618.365C616.205 809.144 615.125 809.896 615.125 811.4C615.125 812.136 615.405 812.72 615.965 813.152C616.525 813.568 617.309 813.776 618.317 813.776ZM640.392 802.376V813.464C640.392 815.608 639.864 817.192 638.808 818.216C637.768 819.256 636.192 819.776 634.08 819.776C632.912 819.776 631.8 819.6 630.744 819.248C629.704 818.912 628.856 818.44 628.2 817.832L629.064 816.536C629.672 817.08 630.408 817.504 631.272 817.808C632.152 818.112 633.072 818.264 634.032 818.264C635.632 818.264 636.808 817.888 637.56 817.136C638.312 816.4 638.688 815.248 638.688 813.68V812.072C638.16 812.872 637.464 813.48 636.6 813.896C635.752 814.312 634.808 814.52 633.768 814.52C632.584 814.52 631.504 814.264 630.528 813.752C629.568 813.224 628.808 812.496 628.248 811.568C627.704 810.624 627.432 809.56 627.432 808.376C627.432 807.192 627.704 806.136 628.248 805.208C628.808 804.28 629.568 803.56 630.528 803.048C631.488 802.536 632.568 802.28 633.768 802.28C634.84 802.28 635.808 802.496 636.672 802.928C637.536 803.36 638.232 803.984 638.76 804.8V802.376H640.392ZM633.936 813.008C634.848 813.008 635.672 812.816 636.408 812.432C637.144 812.032 637.712 811.48 638.112 810.776C638.528 810.072 638.736 809.272 638.736 808.376C638.736 807.48 638.528 806.688 638.112 806C637.712 805.296 637.144 804.752 636.408 804.368C635.688 803.968 634.864 803.768 633.936 803.768C633.024 803.768 632.2 803.96 631.464 804.344C630.744 804.728 630.176 805.272 629.76 805.976C629.36 806.68 629.16 807.48 629.16 808.376C629.16 809.272 629.36 810.072 629.76 810.776C630.176 811.48 630.744 812.032 631.464 812.432C632.2 812.816 633.024 813.008 633.936 813.008Z" fill="black"/>
<rect x="790" y="51" width="563" height="65" fill="#C4C4C4"/>
<path d="M952.333 92.144C950.669 92.144 949.165 91.776 947.821 91.04C946.493 90.304 945.445 89.288 944.677 87.992C943.925 86.68 943.549 85.216 943.549 83.6C943.549 81.984 943.925 80.528 944.677 79.232C945.445 77.92 946.501 76.896 947.845 76.16C949.189 75.424 950.693 75.056 952.357 75.056C953.605 75.056 954.757 75.264 955.813 75.68C956.869 76.096 957.765 76.704 958.501 77.504L957.373 78.632C956.061 77.304 954.405 76.64 952.405 76.64C951.077 76.64 949.869 76.944 948.781 77.552C947.693 78.16 946.837 78.992 946.213 80.048C945.605 81.104 945.301 82.288 945.301 83.6C945.301 84.912 945.605 86.096 946.213 87.152C946.837 88.208 947.693 89.04 948.781 89.648C949.869 90.256 951.077 90.56 952.405 90.56C954.421 90.56 956.077 89.888 957.373 88.544L958.501 89.672C957.765 90.472 956.861 91.088 955.789 91.52C954.733 91.936 953.581 92.144 952.333 92.144ZM963.559 81.848C963.959 81 964.551 80.36 965.335 79.928C966.135 79.496 967.119 79.28 968.287 79.28V80.936L967.879 80.912C966.551 80.912 965.511 81.32 964.759 82.136C964.007 82.952 963.631 84.096 963.631 85.568V92H961.927V79.376H963.559V81.848ZM982.247 86.216H971.687C971.783 87.528 972.287 88.592 973.199 89.408C974.111 90.208 975.263 90.608 976.655 90.608C977.439 90.608 978.159 90.472 978.815 90.2C979.471 89.912 980.039 89.496 980.519 88.952L981.479 90.056C980.919 90.728 980.215 91.24 979.367 91.592C978.535 91.944 977.615 92.12 976.607 92.12C975.311 92.12 974.159 91.848 973.151 91.304C972.159 90.744 971.383 89.976 970.823 89C970.263 88.024 969.983 86.92 969.983 85.688C969.983 84.456 970.247 83.352 970.775 82.376C971.319 81.4 972.055 80.64 972.983 80.096C973.927 79.552 974.983 79.28 976.151 79.28C977.319 79.28 978.367 79.552 979.295 80.096C980.223 80.64 980.951 81.4 981.479 82.376C982.007 83.336 982.271 84.44 982.271 85.688L982.247 86.216ZM976.151 80.744C974.935 80.744 973.911 81.136 973.079 81.92C972.263 82.688 971.799 83.696 971.687 84.944H980.639C980.527 83.696 980.055 82.688 979.223 81.92C978.407 81.136 977.383 80.744 976.151 80.744ZM989.804 79.28C991.452 79.28 992.716 79.696 993.596 80.528C994.476 81.344 994.916 82.56 994.916 84.176V92H993.284V90.032C992.9 90.688 992.332 91.2 991.58 91.568C990.844 91.936 989.964 92.12 988.94 92.12C987.532 92.12 986.412 91.784 985.58 91.112C984.748 90.44 984.332 89.552 984.332 88.448C984.332 87.376 984.716 86.512 985.484 85.856C986.268 85.2 987.508 84.872 989.204 84.872H993.212V84.104C993.212 83.016 992.908 82.192 992.3 81.632C991.692 81.056 990.804 80.768 989.636 80.768C988.836 80.768 988.068 80.904 987.332 81.176C986.596 81.432 985.964 81.792 985.436 82.256L984.668 80.984C985.308 80.44 986.076 80.024 986.972 79.736C987.868 79.432 988.812 79.28 989.804 79.28ZM989.204 90.776C990.164 90.776 990.988 90.56 991.676 90.128C992.364 89.68 992.876 89.04 993.212 88.208V86.144H989.252C987.092 86.144 986.012 86.896 986.012 88.4C986.012 89.136 986.292 89.72 986.852 90.152C987.412 90.568 988.196 90.776 989.204 90.776ZM1006.19 91.232C1005.87 91.52 1005.47 91.744 1004.99 91.904C1004.53 92.048 1004.04 92.12 1003.53 92.12C1002.34 92.12 1001.43 91.8 1000.79 91.16C1000.15 90.52 999.832 89.616 999.832 88.448V80.816H997.576V79.376H999.832V76.616H1001.54V79.376H1005.38V80.816H1001.54V88.352C1001.54 89.104 1001.72 89.68 1002.09 90.08C1002.47 90.464 1003.02 90.656 1003.72 90.656C1004.07 90.656 1004.41 90.6 1004.73 90.488C1005.06 90.376 1005.35 90.216 1005.59 90.008L1006.19 91.232ZM1019.84 86.216H1009.28C1009.38 87.528 1009.88 88.592 1010.79 89.408C1011.7 90.208 1012.86 90.608 1014.25 90.608C1015.03 90.608 1015.75 90.472 1016.41 90.2C1017.06 89.912 1017.63 89.496 1018.11 88.952L1019.07 90.056C1018.51 90.728 1017.81 91.24 1016.96 91.592C1016.13 91.944 1015.21 92.12 1014.2 92.12C1012.9 92.12 1011.75 91.848 1010.74 91.304C1009.75 90.744 1008.98 89.976 1008.42 89C1007.86 88.024 1007.58 86.92 1007.58 85.688C1007.58 84.456 1007.84 83.352 1008.37 82.376C1008.91 81.4 1009.65 80.64 1010.58 80.096C1011.52 79.552 1012.58 79.28 1013.74 79.28C1014.91 79.28 1015.96 79.552 1016.89 80.096C1017.82 80.64 1018.54 81.4 1019.07 82.376C1019.6 83.336 1019.86 84.44 1019.86 85.688L1019.84 86.216ZM1013.74 80.744C1012.53 80.744 1011.5 81.136 1010.67 81.92C1009.86 82.688 1009.39 83.696 1009.28 84.944H1018.23C1018.12 83.696 1017.65 82.688 1016.82 81.92C1016 81.136 1014.98 80.744 1013.74 80.744ZM1036.26 75.2C1038.41 75.2 1040.09 75.712 1041.3 76.736C1042.52 77.76 1043.13 79.168 1043.13 80.96C1043.13 82.752 1042.52 84.16 1041.3 85.184C1040.09 86.192 1038.41 86.696 1036.26 86.696H1031.75V92H1029.97V75.2H1036.26ZM1036.21 85.136C1037.88 85.136 1039.15 84.776 1040.03 84.056C1040.91 83.32 1041.35 82.288 1041.35 80.96C1041.35 79.6 1040.91 78.56 1040.03 77.84C1039.15 77.104 1037.88 76.736 1036.21 76.736H1031.75V85.136H1036.21ZM1051.7 92.12C1050.48 92.12 1049.38 91.848 1048.41 91.304C1047.43 90.744 1046.66 89.976 1046.1 89C1045.54 88.024 1045.26 86.92 1045.26 85.688C1045.26 84.456 1045.54 83.352 1046.1 82.376C1046.66 81.4 1047.43 80.64 1048.41 80.096C1049.38 79.552 1050.48 79.28 1051.7 79.28C1052.91 79.28 1054.01 79.552 1054.98 80.096C1055.96 80.64 1056.72 81.4 1057.26 82.376C1057.82 83.352 1058.1 84.456 1058.1 85.688C1058.1 86.92 1057.82 88.024 1057.26 89C1056.72 89.976 1055.96 90.744 1054.98 91.304C1054.01 91.848 1052.91 92.12 1051.7 92.12ZM1051.7 90.608C1052.59 90.608 1053.39 90.408 1054.1 90.008C1054.82 89.592 1055.38 89.008 1055.78 88.256C1056.18 87.504 1056.38 86.648 1056.38 85.688C1056.38 84.728 1056.18 83.872 1055.78 83.12C1055.38 82.368 1054.82 81.792 1054.1 81.392C1053.39 80.976 1052.59 80.768 1051.7 80.768C1050.8 80.768 1049.99 80.976 1049.27 81.392C1048.57 81.792 1048.01 82.368 1047.59 83.12C1047.19 83.872 1046.99 84.728 1046.99 85.688C1046.99 86.648 1047.19 87.504 1047.59 88.256C1048.01 89.008 1048.57 89.592 1049.27 90.008C1049.99 90.408 1050.8 90.608 1051.7 90.608ZM1064.97 92.12C1063.94 92.12 1062.96 91.976 1062.02 91.688C1061.09 91.384 1060.36 91.008 1059.83 90.56L1060.6 89.216C1061.13 89.632 1061.79 89.976 1062.59 90.248C1063.39 90.504 1064.22 90.632 1065.09 90.632C1066.24 90.632 1067.09 90.456 1067.63 90.104C1068.19 89.736 1068.47 89.224 1068.47 88.568C1068.47 88.104 1068.32 87.744 1068.02 87.488C1067.71 87.216 1067.33 87.016 1066.86 86.888C1066.4 86.744 1065.78 86.608 1065.02 86.48C1063.99 86.288 1063.17 86.096 1062.54 85.904C1061.92 85.696 1061.38 85.352 1060.94 84.872C1060.5 84.392 1060.29 83.728 1060.29 82.88C1060.29 81.824 1060.73 80.96 1061.61 80.288C1062.49 79.616 1063.71 79.28 1065.28 79.28C1066.1 79.28 1066.91 79.392 1067.73 79.616C1068.54 79.824 1069.22 80.104 1069.74 80.456L1069 81.824C1067.96 81.104 1066.72 80.744 1065.28 80.744C1064.19 80.744 1063.37 80.936 1062.81 81.32C1062.26 81.704 1061.99 82.208 1061.99 82.832C1061.99 83.312 1062.14 83.696 1062.45 83.984C1062.77 84.272 1063.16 84.488 1063.62 84.632C1064.09 84.76 1064.73 84.896 1065.54 85.04C1066.55 85.232 1067.36 85.424 1067.97 85.616C1068.58 85.808 1069.1 86.136 1069.53 86.6C1069.96 87.064 1070.18 87.704 1070.18 88.52C1070.18 89.624 1069.71 90.504 1068.78 91.16C1067.87 91.8 1066.6 92.12 1064.97 92.12ZM1079.97 91.232C1079.65 91.52 1079.25 91.744 1078.77 91.904C1078.31 92.048 1077.82 92.12 1077.31 92.12C1076.13 92.12 1075.21 91.8 1074.57 91.16C1073.93 90.52 1073.61 89.616 1073.61 88.448V80.816H1071.36V79.376H1073.61V76.616H1075.32V79.376H1079.16V80.816H1075.32V88.352C1075.32 89.104 1075.5 89.68 1075.87 90.08C1076.25 90.464 1076.8 90.656 1077.5 90.656C1077.85 90.656 1078.19 90.6 1078.51 90.488C1078.85 90.376 1079.13 90.216 1079.37 90.008L1079.97 91.232Z" fill="black"/>
<path d="M1235.54 75.2H1237.32V90.464H1246.72V92H1235.54V75.2ZM1254.29 92.12C1253.07 92.12 1251.97 91.848 1251 91.304C1250.02 90.744 1249.25 89.976 1248.69 89C1248.13 88.024 1247.85 86.92 1247.85 85.688C1247.85 84.456 1248.13 83.352 1248.69 82.376C1249.25 81.4 1250.02 80.64 1251 80.096C1251.97 79.552 1253.07 79.28 1254.29 79.28C1255.5 79.28 1256.6 79.552 1257.57 80.096C1258.55 80.64 1259.31 81.4 1259.85 82.376C1260.41 83.352 1260.69 84.456 1260.69 85.688C1260.69 86.92 1260.41 88.024 1259.85 89C1259.31 89.976 1258.55 90.744 1257.57 91.304C1256.6 91.848 1255.5 92.12 1254.29 92.12ZM1254.29 90.608C1255.18 90.608 1255.98 90.408 1256.69 90.008C1257.41 89.592 1257.97 89.008 1258.37 88.256C1258.77 87.504 1258.97 86.648 1258.97 85.688C1258.97 84.728 1258.77 83.872 1258.37 83.12C1257.97 82.368 1257.41 81.792 1256.69 81.392C1255.98 80.976 1255.18 80.768 1254.29 80.768C1253.39 80.768 1252.58 80.976 1251.86 81.392C1251.16 81.792 1250.6 82.368 1250.18 83.12C1249.78 83.872 1249.58 84.728 1249.58 85.688C1249.58 86.648 1249.78 87.504 1250.18 88.256C1250.6 89.008 1251.16 89.592 1251.86 90.008C1252.58 90.408 1253.39 90.608 1254.29 90.608ZM1275.86 79.376V90.464C1275.86 92.608 1275.33 94.192 1274.28 95.216C1273.24 96.256 1271.66 96.776 1269.55 96.776C1268.38 96.776 1267.27 96.6 1266.21 96.248C1265.17 95.912 1264.32 95.44 1263.67 94.832L1264.53 93.536C1265.14 94.08 1265.88 94.504 1266.74 94.808C1267.62 95.112 1268.54 95.264 1269.5 95.264C1271.1 95.264 1272.28 94.888 1273.03 94.136C1273.78 93.4 1274.16 92.248 1274.16 90.68V89.072C1273.63 89.872 1272.93 90.48 1272.07 90.896C1271.22 91.312 1270.28 91.52 1269.24 91.52C1268.05 91.52 1266.97 91.264 1266 90.752C1265.04 90.224 1264.28 89.496 1263.72 88.568C1263.17 87.624 1262.9 86.56 1262.9 85.376C1262.9 84.192 1263.17 83.136 1263.72 82.208C1264.28 81.28 1265.04 80.56 1266 80.048C1266.96 79.536 1268.04 79.28 1269.24 79.28C1270.31 79.28 1271.28 79.496 1272.14 79.928C1273 80.36 1273.7 80.984 1274.23 81.8V79.376H1275.86ZM1269.4 90.008C1270.32 90.008 1271.14 89.816 1271.88 89.432C1272.61 89.032 1273.18 88.48 1273.58 87.776C1274 87.072 1274.2 86.272 1274.2 85.376C1274.2 84.48 1274 83.688 1273.58 83C1273.18 82.296 1272.61 81.752 1271.88 81.368C1271.16 80.968 1270.33 80.768 1269.4 80.768C1268.49 80.768 1267.67 80.96 1266.93 81.344C1266.21 81.728 1265.64 82.272 1265.23 82.976C1264.83 83.68 1264.63 84.48 1264.63 85.376C1264.63 86.272 1264.83 87.072 1265.23 87.776C1265.64 88.48 1266.21 89.032 1266.93 89.432C1267.67 89.816 1268.49 90.008 1269.4 90.008ZM1285.79 92.12C1284.57 92.12 1283.47 91.848 1282.5 91.304C1281.52 90.744 1280.75 89.976 1280.19 89C1279.63 88.024 1279.35 86.92 1279.35 85.688C1279.35 84.456 1279.63 83.352 1280.19 82.376C1280.75 81.4 1281.52 80.64 1282.5 80.096C1283.47 79.552 1284.57 79.28 1285.79 79.28C1287 79.28 1288.1 79.552 1289.07 80.096C1290.05 80.64 1290.81 81.4 1291.35 82.376C1291.91 83.352 1292.19 84.456 1292.19 85.688C1292.19 86.92 1291.91 88.024 1291.35 89C1290.81 89.976 1290.05 90.744 1289.07 91.304C1288.1 91.848 1287 92.12 1285.79 92.12ZM1285.79 90.608C1286.68 90.608 1287.48 90.408 1288.19 90.008C1288.91 89.592 1289.47 89.008 1289.87 88.256C1290.27 87.504 1290.47 86.648 1290.47 85.688C1290.47 84.728 1290.27 83.872 1289.87 83.12C1289.47 82.368 1288.91 81.792 1288.19 81.392C1287.48 80.976 1286.68 80.768 1285.79 80.768C1284.89 80.768 1284.08 80.976 1283.36 81.392C1282.66 81.792 1282.1 82.368 1281.68 83.12C1281.28 83.872 1281.08 84.728 1281.08 85.688C1281.08 86.648 1281.28 87.504 1281.68 88.256C1282.1 89.008 1282.66 89.592 1283.36 90.008C1284.08 90.408 1284.89 90.608 1285.79 90.608ZM1307.05 79.376V92H1305.42V89.696C1304.97 90.464 1304.35 91.064 1303.57 91.496C1302.78 91.912 1301.89 92.12 1300.88 92.12C1299.23 92.12 1297.93 91.664 1296.97 90.752C1296.02 89.824 1295.55 88.472 1295.55 86.696V79.376H1297.26V86.528C1297.26 87.856 1297.58 88.864 1298.24 89.552C1298.9 90.24 1299.83 90.584 1301.05 90.584C1302.38 90.584 1303.42 90.184 1304.19 89.384C1304.96 88.568 1305.34 87.44 1305.34 86V79.376H1307.05ZM1318.47 91.232C1318.15 91.52 1317.75 91.744 1317.27 91.904C1316.81 92.048 1316.32 92.12 1315.81 92.12C1314.62 92.12 1313.71 91.8 1313.07 91.16C1312.43 90.52 1312.11 89.616 1312.11 88.448V80.816H1309.85V79.376H1312.11V76.616H1313.81V79.376H1317.65V80.816H1313.81V88.352C1313.81 89.104 1314 89.68 1314.37 90.08C1314.75 90.464 1315.29 90.656 1316 90.656C1316.35 90.656 1316.69 90.6 1317.01 90.488C1317.34 90.376 1317.63 90.216 1317.87 90.008L1318.47 91.232Z" fill="black"/>
<path d="M1135.78 74.2C1137.92 74.2 1139.6 74.712 1140.82 75.736C1142.03 76.76 1142.64 78.168 1142.64 79.96C1142.64 81.752 1142.03 83.16 1140.82 84.184C1139.6 85.192 1137.92 85.696 1135.78 85.696H1131.27V91H1129.49V74.2H1135.78ZM1135.73 84.136C1137.39 84.136 1138.67 83.776 1139.55 83.056C1140.43 82.32 1140.87 81.288 1140.87 79.96C1140.87 78.6 1140.43 77.56 1139.55 76.84C1138.67 76.104 1137.39 75.736 1135.73 75.736H1131.27V84.136H1135.73ZM1147.43 80.848C1147.83 80 1148.42 79.36 1149.2 78.928C1150 78.496 1150.99 78.28 1152.15 78.28V79.936L1151.75 79.912C1150.42 79.912 1149.38 80.32 1148.63 81.136C1147.87 81.952 1147.5 83.096 1147.5 84.568V91H1145.79V78.376H1147.43V80.848ZM1160.28 91.12C1159.07 91.12 1157.97 90.848 1156.99 90.304C1156.02 89.744 1155.25 88.976 1154.69 88C1154.13 87.024 1153.85 85.92 1153.85 84.688C1153.85 83.456 1154.13 82.352 1154.69 81.376C1155.25 80.4 1156.02 79.64 1156.99 79.096C1157.97 78.552 1159.07 78.28 1160.28 78.28C1161.5 78.28 1162.59 78.552 1163.57 79.096C1164.55 79.64 1165.31 80.4 1165.85 81.376C1166.41 82.352 1166.69 83.456 1166.69 84.688C1166.69 85.92 1166.41 87.024 1165.85 88C1165.31 88.976 1164.55 89.744 1163.57 90.304C1162.59 90.848 1161.5 91.12 1160.28 91.12ZM1160.28 89.608C1161.18 89.608 1161.98 89.408 1162.68 89.008C1163.4 88.592 1163.96 88.008 1164.36 87.256C1164.76 86.504 1164.96 85.648 1164.96 84.688C1164.96 83.728 1164.76 82.872 1164.36 82.12C1163.96 81.368 1163.4 80.792 1162.68 80.392C1161.98 79.976 1161.18 79.768 1160.28 79.768C1159.39 79.768 1158.58 79.976 1157.86 80.392C1157.15 80.792 1156.59 81.368 1156.18 82.12C1155.78 82.872 1155.58 83.728 1155.58 84.688C1155.58 85.648 1155.78 86.504 1156.18 87.256C1156.59 88.008 1157.15 88.592 1157.86 89.008C1158.58 89.408 1159.39 89.608 1160.28 89.608ZM1174.34 74.512C1173.61 74.512 1173.05 74.712 1172.66 75.112C1172.3 75.512 1172.11 76.104 1172.11 76.888V78.376H1176V79.816H1172.16V91H1170.46V79.816H1168.2V78.376H1170.46V76.816C1170.46 75.664 1170.78 74.752 1171.44 74.08C1172.11 73.408 1173.06 73.072 1174.27 73.072C1174.75 73.072 1175.22 73.144 1175.66 73.288C1176.11 73.416 1176.49 73.608 1176.79 73.864L1176.22 75.136C1175.72 74.72 1175.1 74.512 1174.34 74.512ZM1180.22 78.376H1181.93V91H1180.22V78.376ZM1181.09 75.616C1180.74 75.616 1180.44 75.496 1180.2 75.256C1179.96 75.016 1179.84 74.728 1179.84 74.392C1179.84 74.072 1179.96 73.792 1180.2 73.552C1180.44 73.312 1180.74 73.192 1181.09 73.192C1181.44 73.192 1181.74 73.312 1181.98 73.552C1182.22 73.776 1182.34 74.048 1182.34 74.368C1182.34 74.72 1182.22 75.016 1181.98 75.256C1181.74 75.496 1181.44 75.616 1181.09 75.616ZM1186.69 73.192H1188.4V91H1186.69V73.192ZM1204.13 85.216H1193.57C1193.67 86.528 1194.17 87.592 1195.08 88.408C1195.99 89.208 1197.15 89.608 1198.54 89.608C1199.32 89.608 1200.04 89.472 1200.7 89.2C1201.35 88.912 1201.92 88.496 1202.4 87.952L1203.36 89.056C1202.8 89.728 1202.1 90.24 1201.25 90.592C1200.42 90.944 1199.5 91.12 1198.49 91.12C1197.19 91.12 1196.04 90.848 1195.03 90.304C1194.04 89.744 1193.27 88.976 1192.71 88C1192.15 87.024 1191.87 85.92 1191.87 84.688C1191.87 83.456 1192.13 82.352 1192.66 81.376C1193.2 80.4 1193.94 79.64 1194.87 79.096C1195.81 78.552 1196.87 78.28 1198.03 78.28C1199.2 78.28 1200.25 78.552 1201.18 79.096C1202.11 79.64 1202.83 80.4 1203.36 81.376C1203.89 82.336 1204.15 83.44 1204.15 84.688L1204.13 85.216ZM1198.03 79.744C1196.82 79.744 1195.79 80.136 1194.96 80.92C1194.15 81.688 1193.68 82.696 1193.57 83.944H1202.52C1202.41 82.696 1201.94 81.688 1201.11 80.92C1200.29 80.136 1199.27 79.744 1198.03 79.744Z" fill="black"/>
<path d="M836.499 75.2V92H834.747V84.248H824.235V92H822.459V75.2H824.235V82.688H834.747V75.2H836.499ZM846.782 92.12C845.566 92.12 844.47 91.848 843.494 91.304C842.518 90.744 841.75 89.976 841.19 89C840.63 88.024 840.35 86.92 840.35 85.688C840.35 84.456 840.63 83.352 841.19 82.376C841.75 81.4 842.518 80.64 843.494 80.096C844.47 79.552 845.566 79.28 846.782 79.28C847.998 79.28 849.094 79.552 850.07 80.096C851.046 80.64 851.806 81.4 852.35 82.376C852.91 83.352 853.19 84.456 853.19 85.688C853.19 86.92 852.91 88.024 852.35 89C851.806 89.976 851.046 90.744 850.07 91.304C849.094 91.848 847.998 92.12 846.782 92.12ZM846.782 90.608C847.678 90.608 848.478 90.408 849.182 90.008C849.902 89.592 850.462 89.008 850.862 88.256C851.262 87.504 851.462 86.648 851.462 85.688C851.462 84.728 851.262 83.872 850.862 83.12C850.462 82.368 849.902 81.792 849.182 81.392C848.478 80.976 847.678 80.768 846.782 80.768C845.886 80.768 845.078 80.976 844.358 81.392C843.654 81.792 843.094 82.368 842.678 83.12C842.278 83.872 842.078 84.728 842.078 85.688C842.078 86.648 842.278 87.504 842.678 88.256C843.094 89.008 843.654 89.592 844.358 90.008C845.078 90.408 845.886 90.608 846.782 90.608ZM872.413 79.28C873.997 79.28 875.237 79.736 876.133 80.648C877.045 81.56 877.501 82.904 877.501 84.68V92H875.797V84.848C875.797 83.536 875.477 82.536 874.837 81.848C874.213 81.16 873.325 80.816 872.173 80.816C870.861 80.816 869.829 81.224 869.077 82.04C868.325 82.84 867.949 83.952 867.949 85.376V92H866.245V84.848C866.245 83.536 865.925 82.536 865.285 81.848C864.661 81.16 863.765 80.816 862.597 80.816C861.301 80.816 860.269 81.224 859.501 82.04C858.749 82.84 858.373 83.952 858.373 85.376V92H856.669V79.376H858.301V81.68C858.749 80.912 859.373 80.32 860.173 79.904C860.973 79.488 861.893 79.28 862.933 79.28C863.989 79.28 864.901 79.504 865.669 79.952C866.453 80.4 867.037 81.064 867.421 81.944C867.885 81.112 868.549 80.464 869.413 80C870.293 79.52 871.293 79.28 872.413 79.28ZM893.161 86.216H882.601C882.697 87.528 883.201 88.592 884.113 89.408C885.025 90.208 886.177 90.608 887.569 90.608C888.353 90.608 889.073 90.472 889.729 90.2C890.385 89.912 890.953 89.496 891.433 88.952L892.393 90.056C891.833 90.728 891.129 91.24 890.281 91.592C889.449 91.944 888.529 92.12 887.521 92.12C886.225 92.12 885.073 91.848 884.065 91.304C883.073 90.744 882.297 89.976 881.737 89C881.177 88.024 880.897 86.92 880.897 85.688C880.897 84.456 881.161 83.352 881.689 82.376C882.233 81.4 882.969 80.64 883.897 80.096C884.841 79.552 885.897 79.28 887.065 79.28C888.233 79.28 889.281 79.552 890.209 80.096C891.137 80.64 891.865 81.4 892.393 82.376C892.921 83.336 893.185 84.44 893.185 85.688L893.161 86.216ZM887.065 80.744C885.849 80.744 884.825 81.136 883.993 81.92C883.177 82.688 882.713 83.696 882.601 84.944H891.553C891.441 83.696 890.969 82.688 890.137 81.92C889.321 81.136 888.297 80.744 887.065 80.744Z" fill="black"/>
</svg>
