<svg width="1440" height="900" viewBox="0 0 1440 900" fill="none" xmlns="http://www.w3.org/2000/svg">
<rect width="1440" height="900" fill="#E5E5E5"/>
<rect width="1440" height="900" fill="white"/>
<rect x="672" y="496" width="108" height="36" fill="#C4C4C4"/>
<path d="M695.17 505.2H696.946V520.464H706.354V522H695.17V505.2ZM713.915 522.12C712.699 522.12 711.603 521.848 710.627 521.304C709.651 520.744 708.883 519.976 708.323 519C707.763 518.024 707.483 516.92 707.483 515.688C707.483 514.456 707.763 513.352 708.323 512.376C708.883 511.4 709.651 510.64 710.627 510.096C711.603 509.552 712.699 509.28 713.915 509.28C715.131 509.28 716.227 509.552 717.203 510.096C718.179 510.64 718.939 511.4 719.483 512.376C720.043 513.352 720.323 514.456 720.323 515.688C720.323 516.92 720.043 518.024 719.483 519C718.939 519.976 718.179 520.744 717.203 521.304C716.227 521.848 715.131 522.12 713.915 522.12ZM713.915 520.608C714.811 520.608 715.611 520.408 716.315 520.008C717.035 519.592 717.595 519.008 717.995 518.256C718.395 517.504 718.595 516.648 718.595 515.688C718.595 514.728 718.395 513.872 717.995 513.12C717.595 512.368 717.035 511.792 716.315 511.392C715.611 510.976 714.811 510.768 713.915 510.768C713.019 510.768 712.211 510.976 711.491 511.392C710.787 511.792 710.227 512.368 709.811 513.12C709.411 513.872 709.211 514.728 709.211 515.688C709.211 516.648 709.411 517.504 709.811 518.256C710.227 519.008 710.787 519.592 711.491 520.008C712.211 520.408 713.019 520.608 713.915 520.608ZM735.49 509.376V520.464C735.49 522.608 734.962 524.192 733.906 525.216C732.866 526.256 731.29 526.776 729.178 526.776C728.01 526.776 726.898 526.6 725.842 526.248C724.802 525.912 723.954 525.44 723.298 524.832L724.162 523.536C724.77 524.08 725.506 524.504 726.37 524.808C727.25 525.112 728.17 525.264 729.13 525.264C730.73 525.264 731.906 524.888 732.658 524.136C733.41 523.4 733.786 522.248 733.786 520.68V519.072C733.258 519.872 732.562 520.48 731.698 520.896C730.85 521.312 729.906 521.52 728.866 521.52C727.682 521.52 726.602 521.264 725.626 520.752C724.666 520.224 723.906 519.496 723.346 518.568C722.802 517.624 722.53 516.56 722.53 515.376C722.53 514.192 722.802 513.136 723.346 512.208C723.906 511.28 724.666 510.56 725.626 510.048C726.586 509.536 727.666 509.28 728.866 509.28C729.938 509.28 730.906 509.496 731.77 509.928C732.634 510.36 733.33 510.984 733.858 511.8V509.376H735.49ZM729.034 520.008C729.946 520.008 730.77 519.816 731.506 519.432C732.242 519.032 732.81 518.48 733.21 517.776C733.626 517.072 733.834 516.272 733.834 515.376C733.834 514.48 733.626 513.688 733.21 513C732.81 512.296 732.242 511.752 731.506 511.368C730.786 510.968 729.962 510.768 729.034 510.768C728.122 510.768 727.298 510.96 726.562 511.344C725.842 511.728 725.274 512.272 724.858 512.976C724.458 513.68 724.258 514.48 724.258 515.376C724.258 516.272 724.458 517.072 724.858 517.776C725.274 518.48 725.842 519.032 726.562 519.432C727.298 519.816 728.122 520.008 729.034 520.008ZM740.255 509.376H741.959V522H740.255V509.376ZM741.119 506.616C740.767 506.616 740.471 506.496 740.231 506.256C739.991 506.016 739.871 505.728 739.871 505.392C739.871 505.072 739.991 504.792 740.231 504.552C740.471 504.312 740.767 504.192 741.119 504.192C741.471 504.192 741.767 504.312 742.007 504.552C742.247 504.776 742.367 505.048 742.367 505.368C742.367 505.72 742.247 506.016 742.007 506.256C741.767 506.496 741.471 506.616 741.119 506.616ZM753.132 509.28C754.716 509.28 755.972 509.744 756.9 510.672C757.844 511.584 758.316 512.92 758.316 514.68V522H756.612V514.848C756.612 513.536 756.284 512.536 755.628 511.848C754.972 511.16 754.036 510.816 752.82 510.816C751.46 510.816 750.38 511.224 749.58 512.04C748.796 512.84 748.404 513.952 748.404 515.376V522H746.7V509.376H748.332V511.704C748.796 510.936 749.436 510.344 750.252 509.928C751.084 509.496 752.044 509.28 753.132 509.28Z" fill="black"/>
<rect x="1182" y="51" width="187" height="65" fill="#C4C4C4"/>
<path d="M1245.25 70.8V96H1242.62V84.372H1226.85V96H1224.19V70.8H1226.85V82.032H1242.62V70.8H1245.25ZM1260.67 96.18C1258.85 96.18 1257.21 95.772 1255.74 94.956C1254.28 94.116 1253.13 92.964 1252.29 91.5C1251.45 90.036 1251.03 88.38 1251.03 86.532C1251.03 84.684 1251.45 83.028 1252.29 81.564C1253.13 80.1 1254.28 78.96 1255.74 78.144C1257.21 77.328 1258.85 76.92 1260.67 76.92C1262.5 76.92 1264.14 77.328 1265.61 78.144C1267.07 78.96 1268.21 80.1 1269.03 81.564C1269.87 83.028 1270.29 84.684 1270.29 86.532C1270.29 88.38 1269.87 90.036 1269.03 91.5C1268.21 92.964 1267.07 94.116 1265.61 94.956C1264.14 95.772 1262.5 96.18 1260.67 96.18ZM1260.67 93.912C1262.02 93.912 1263.22 93.612 1264.27 93.012C1265.35 92.388 1266.19 91.512 1266.79 90.384C1267.39 89.256 1267.69 87.972 1267.69 86.532C1267.69 85.092 1267.39 83.808 1266.79 82.68C1266.19 81.552 1265.35 80.688 1264.27 80.088C1263.22 79.464 1262.02 79.152 1260.67 79.152C1259.33 79.152 1258.12 79.464 1257.04 80.088C1255.98 80.688 1255.14 81.552 1254.52 82.68C1253.92 83.808 1253.62 85.092 1253.62 86.532C1253.62 87.972 1253.92 89.256 1254.52 90.384C1255.14 91.512 1255.98 92.388 1257.04 93.012C1258.12 93.612 1259.33 93.912 1260.67 93.912ZM1299.12 76.92C1301.5 76.92 1303.36 77.604 1304.7 78.972C1306.07 80.34 1306.75 82.356 1306.75 85.02V96H1304.2V85.272C1304.2 83.304 1303.72 81.804 1302.76 80.772C1301.82 79.74 1300.49 79.224 1298.76 79.224C1296.79 79.224 1295.24 79.836 1294.12 81.06C1292.99 82.26 1292.42 83.928 1292.42 86.064V96H1289.87V85.272C1289.87 83.304 1289.39 81.804 1288.43 80.772C1287.49 79.74 1286.15 79.224 1284.4 79.224C1282.45 79.224 1280.9 79.836 1279.75 81.06C1278.62 82.26 1278.06 83.928 1278.06 86.064V96H1275.5V77.064H1277.95V80.52C1278.62 79.368 1279.56 78.48 1280.76 77.856C1281.96 77.232 1283.34 76.92 1284.9 76.92C1286.48 76.92 1287.85 77.256 1289 77.928C1290.18 78.6 1291.06 79.596 1291.63 80.916C1292.33 79.668 1293.32 78.696 1294.62 78C1295.94 77.28 1297.44 76.92 1299.12 76.92ZM1330.24 87.324H1314.4C1314.55 89.292 1315.3 90.888 1316.67 92.112C1318.04 93.312 1319.77 93.912 1321.85 93.912C1323.03 93.912 1324.11 93.708 1325.09 93.3C1326.08 92.868 1326.93 92.244 1327.65 91.428L1329.09 93.084C1328.25 94.092 1327.19 94.86 1325.92 95.388C1324.67 95.916 1323.29 96.18 1321.78 96.18C1319.84 96.18 1318.11 95.772 1316.6 94.956C1315.11 94.116 1313.95 92.964 1313.11 91.5C1312.27 90.036 1311.85 88.38 1311.85 86.532C1311.85 84.684 1312.24 83.028 1313.03 81.564C1313.85 80.1 1314.95 78.96 1316.35 78.144C1317.76 77.328 1319.35 76.92 1321.1 76.92C1322.85 76.92 1324.42 77.328 1325.81 78.144C1327.21 78.96 1328.3 80.1 1329.09 81.564C1329.88 83.004 1330.28 84.66 1330.28 86.532L1330.24 87.324ZM1321.1 79.116C1319.27 79.116 1317.74 79.704 1316.49 80.88C1315.27 82.032 1314.57 83.544 1314.4 85.416H1327.83C1327.66 83.544 1326.95 82.032 1325.71 80.88C1324.48 79.704 1322.95 79.116 1321.1 79.116Z" fill="black"/>
<path d="M471.37 255.4H474.922V285.928H493.738V289H471.37V255.4ZM508.861 289.24C506.429 289.24 504.237 288.696 502.285 287.608C500.333 286.488 498.797 284.952 497.677 283C496.557 281.048 495.997 278.84 495.997 276.376C495.997 273.912 496.557 271.704 497.677 269.752C498.797 267.8 500.333 266.28 502.285 265.192C504.237 264.104 506.429 263.56 508.861 263.56C511.293 263.56 513.485 264.104 515.437 265.192C517.389 266.28 518.909 267.8 519.997 269.752C521.117 271.704 521.677 273.912 521.677 276.376C521.677 278.84 521.117 281.048 519.997 283C518.909 284.952 517.389 286.488 515.437 287.608C513.485 288.696 511.293 289.24 508.861 289.24ZM508.861 286.216C510.653 286.216 512.253 285.816 513.661 285.016C515.101 284.184 516.221 283.016 517.021 281.512C517.821 280.008 518.221 278.296 518.221 276.376C518.221 274.456 517.821 272.744 517.021 271.24C516.221 269.736 515.101 268.584 513.661 267.784C512.253 266.952 510.653 266.536 508.861 266.536C507.069 266.536 505.453 266.952 504.013 267.784C502.605 268.584 501.485 269.736 500.653 271.24C499.853 272.744 499.453 274.456 499.453 276.376C499.453 278.296 499.853 280.008 500.653 281.512C501.485 283.016 502.605 284.184 504.013 285.016C505.453 285.816 507.069 286.216 508.861 286.216ZM552.011 263.752V285.928C552.011 290.216 550.955 293.384 548.843 295.432C546.763 297.512 543.611 298.552 539.387 298.552C537.051 298.552 534.827 298.2 532.715 297.496C530.635 296.824 528.939 295.88 527.627 294.664L529.355 292.072C530.571 293.16 532.043 294.008 533.771 294.616C535.531 295.224 537.371 295.528 539.291 295.528C542.491 295.528 544.843 294.776 546.347 293.272C547.851 291.8 548.603 289.496 548.603 286.36V283.144C547.547 284.744 546.155 285.96 544.427 286.792C542.731 287.624 540.843 288.04 538.763 288.04C536.395 288.04 534.235 287.528 532.283 286.504C530.363 285.448 528.843 283.992 527.723 282.136C526.635 280.248 526.091 278.12 526.091 275.752C526.091 273.384 526.635 271.272 527.723 269.416C528.843 267.56 530.363 266.12 532.283 265.096C534.203 264.072 536.363 263.56 538.763 263.56C540.907 263.56 542.843 263.992 544.571 264.856C546.299 265.72 547.691 266.968 548.747 268.6V263.752H552.011ZM539.099 285.016C540.923 285.016 542.571 284.632 544.043 283.864C545.515 283.064 546.651 281.96 547.451 280.552C548.283 279.144 548.699 277.544 548.699 275.752C548.699 273.96 548.283 272.376 547.451 271C546.651 269.592 545.515 268.504 544.043 267.736C542.603 266.936 540.955 266.536 539.099 266.536C537.275 266.536 535.627 266.92 534.155 267.688C532.715 268.456 531.579 269.544 530.747 270.952C529.947 272.36 529.547 273.96 529.547 275.752C529.547 277.544 529.947 279.144 530.747 280.552C531.579 281.96 532.715 283.064 534.155 283.864C535.627 284.632 537.275 285.016 539.099 285.016ZM561.541 263.752H564.949V289H561.541V263.752ZM563.269 258.232C562.565 258.232 561.973 257.992 561.493 257.512C561.013 257.032 560.773 256.456 560.773 255.784C560.773 255.144 561.013 254.584 561.493 254.104C561.973 253.624 562.565 253.384 563.269 253.384C563.973 253.384 564.565 253.624 565.045 254.104C565.525 254.552 565.765 255.096 565.765 255.736C565.765 256.44 565.525 257.032 565.045 257.512C564.565 257.992 563.973 258.232 563.269 258.232ZM587.296 263.56C590.464 263.56 592.976 264.488 594.832 266.344C596.72 268.168 597.664 270.84 597.664 274.36V289H594.256V274.696C594.256 272.072 593.6 270.072 592.288 268.696C590.976 267.32 589.104 266.632 586.672 266.632C583.952 266.632 581.792 267.448 580.192 269.08C578.624 270.68 577.84 272.904 577.84 275.752V289H574.432V263.752H577.696V268.408C578.624 266.872 579.904 265.688 581.536 264.856C583.2 263.992 585.12 263.56 587.296 263.56ZM632.775 287.464C632.135 288.04 631.335 288.488 630.375 288.808C629.447 289.096 628.471 289.24 627.447 289.24C625.079 289.24 623.255 288.6 621.975 287.32C620.695 286.04 620.055 284.232 620.055 281.896V266.632H615.543V263.752H620.055V258.232H623.463V263.752H631.143V266.632H623.463V281.704C623.463 283.208 623.831 284.36 624.567 285.16C625.335 285.928 626.423 286.312 627.831 286.312C628.535 286.312 629.207 286.2 629.847 285.976C630.519 285.752 631.095 285.432 631.575 285.016L632.775 287.464ZM648.408 289.24C645.976 289.24 643.784 288.696 641.832 287.608C639.88 286.488 638.344 284.952 637.224 283C636.104 281.048 635.544 278.84 635.544 276.376C635.544 273.912 636.104 271.704 637.224 269.752C638.344 267.8 639.88 266.28 641.832 265.192C643.784 264.104 645.976 263.56 648.408 263.56C650.84 263.56 653.032 264.104 654.984 265.192C656.936 266.28 658.456 267.8 659.544 269.752C660.664 271.704 661.224 273.912 661.224 276.376C661.224 278.84 660.664 281.048 659.544 283C658.456 284.952 656.936 286.488 654.984 287.608C653.032 288.696 650.84 289.24 648.408 289.24ZM648.408 286.216C650.2 286.216 651.8 285.816 653.208 285.016C654.648 284.184 655.768 283.016 656.568 281.512C657.368 280.008 657.768 278.296 657.768 276.376C657.768 274.456 657.368 272.744 656.568 271.24C655.768 269.736 654.648 268.584 653.208 267.784C651.8 266.952 650.2 266.536 648.408 266.536C646.616 266.536 645 266.952 643.56 267.784C642.152 268.584 641.032 269.736 640.2 271.24C639.4 272.744 639 274.456 639 276.376C639 278.296 639.4 280.008 640.2 281.512C641.032 283.016 642.152 284.184 643.56 285.016C645 285.816 646.616 286.216 648.408 286.216ZM702.536 280.024H683.816L679.784 289H676.088L691.448 255.4H694.952L710.312 289H706.568L702.536 280.024ZM701.24 277.144L693.176 259.096L685.112 277.144H701.24ZM725.38 289.24C722.884 289.24 720.644 288.696 718.66 287.608C716.708 286.52 715.172 285 714.052 283.048C712.932 281.064 712.372 278.84 712.372 276.376C712.372 273.912 712.932 271.704 714.052 269.752C715.172 267.8 716.708 266.28 718.66 265.192C720.644 264.104 722.884 263.56 725.38 263.56C727.556 263.56 729.492 263.992 731.188 264.856C732.916 265.688 734.276 266.92 735.268 268.552L732.724 270.28C731.892 269.032 730.836 268.104 729.556 267.496C728.276 266.856 726.884 266.536 725.38 266.536C723.556 266.536 721.908 266.952 720.436 267.784C718.996 268.584 717.86 269.736 717.028 271.24C716.228 272.744 715.828 274.456 715.828 276.376C715.828 278.328 716.228 280.056 717.028 281.56C717.86 283.032 718.996 284.184 720.436 285.016C721.908 285.816 723.556 286.216 725.38 286.216C726.884 286.216 728.276 285.912 729.556 285.304C730.836 284.696 731.892 283.768 732.724 282.52L735.268 284.248C734.276 285.88 732.916 287.128 731.188 287.992C729.46 288.824 727.524 289.24 725.38 289.24ZM752.005 289.24C749.509 289.24 747.269 288.696 745.285 287.608C743.333 286.52 741.797 285 740.677 283.048C739.557 281.064 738.997 278.84 738.997 276.376C738.997 273.912 739.557 271.704 740.677 269.752C741.797 267.8 743.333 266.28 745.285 265.192C747.269 264.104 749.509 263.56 752.005 263.56C754.181 263.56 756.117 263.992 757.813 264.856C759.541 265.688 760.901 266.92 761.893 268.552L759.349 270.28C758.517 269.032 757.461 268.104 756.181 267.496C754.901 266.856 753.509 266.536 752.005 266.536C750.181 266.536 748.533 266.952 747.061 267.784C745.621 268.584 744.485 269.736 743.653 271.24C742.853 272.744 742.453 274.456 742.453 276.376C742.453 278.328 742.853 280.056 743.653 281.56C744.485 283.032 745.621 284.184 747.061 285.016C748.533 285.816 750.181 286.216 752.005 286.216C753.509 286.216 754.901 285.912 756.181 285.304C757.461 284.696 758.517 283.768 759.349 282.52L761.893 284.248C760.901 285.88 759.541 287.128 757.813 287.992C756.085 288.824 754.149 289.24 752.005 289.24ZM790.15 277.432H769.03C769.222 280.056 770.23 282.184 772.054 283.816C773.878 285.416 776.182 286.216 778.966 286.216C780.534 286.216 781.974 285.944 783.286 285.4C784.598 284.824 785.734 283.992 786.694 282.904L788.614 285.112C787.494 286.456 786.086 287.48 784.39 288.184C782.726 288.888 780.886 289.24 778.87 289.24C776.278 289.24 773.974 288.696 771.958 287.608C769.974 286.488 768.422 284.952 767.302 283C766.182 281.048 765.622 278.84 765.622 276.376C765.622 273.912 766.15 271.704 767.206 269.752C768.294 267.8 769.766 266.28 771.622 265.192C773.51 264.104 775.622 263.56 777.958 263.56C780.294 263.56 782.39 264.104 784.246 265.192C786.102 266.28 787.558 267.8 788.614 269.752C789.67 271.672 790.198 273.88 790.198 276.376L790.15 277.432ZM777.958 266.488C775.526 266.488 773.478 267.272 771.814 268.84C770.182 270.376 769.254 272.392 769.03 274.888H786.934C786.71 272.392 785.766 270.376 784.102 268.84C782.47 267.272 780.422 266.488 777.958 266.488ZM803.903 289.24C801.855 289.24 799.887 288.952 797.999 288.376C796.143 287.768 794.687 287.016 793.631 286.12L795.167 283.432C796.223 284.264 797.551 284.952 799.151 285.496C800.751 286.008 802.415 286.264 804.143 286.264C806.447 286.264 808.143 285.912 809.231 285.208C810.351 284.472 810.911 283.448 810.911 282.136C810.911 281.208 810.607 280.488 809.999 279.976C809.391 279.432 808.623 279.032 807.695 278.776C806.767 278.488 805.535 278.216 803.999 277.96C801.951 277.576 800.303 277.192 799.055 276.808C797.807 276.392 796.735 275.704 795.839 274.744C794.975 273.784 794.543 272.456 794.543 270.76C794.543 268.648 795.423 266.92 797.183 265.576C798.943 264.232 801.391 263.56 804.527 263.56C806.159 263.56 807.791 263.784 809.423 264.232C811.055 264.648 812.399 265.208 813.455 265.912L811.967 268.648C809.887 267.208 807.407 266.488 804.527 266.488C802.351 266.488 800.703 266.872 799.583 267.64C798.495 268.408 797.951 269.416 797.951 270.664C797.951 271.624 798.255 272.392 798.863 272.968C799.503 273.544 800.287 273.976 801.215 274.264C802.143 274.52 803.423 274.792 805.055 275.08C807.071 275.464 808.687 275.848 809.903 276.232C811.119 276.616 812.159 277.272 813.023 278.2C813.887 279.128 814.319 280.408 814.319 282.04C814.319 284.248 813.391 286.008 811.535 287.32C809.711 288.6 807.167 289.24 803.903 289.24ZM827.387 289.24C825.339 289.24 823.371 288.952 821.483 288.376C819.627 287.768 818.171 287.016 817.115 286.12L818.651 283.432C819.707 284.264 821.035 284.952 822.635 285.496C824.235 286.008 825.899 286.264 827.627 286.264C829.931 286.264 831.627 285.912 832.715 285.208C833.835 284.472 834.395 283.448 834.395 282.136C834.395 281.208 834.091 280.488 833.483 279.976C832.875 279.432 832.107 279.032 831.179 278.776C830.251 278.488 829.019 278.216 827.483 277.96C825.435 277.576 823.787 277.192 822.539 276.808C821.291 276.392 820.219 275.704 819.323 274.744C818.459 273.784 818.027 272.456 818.027 270.76C818.027 268.648 818.907 266.92 820.667 265.576C822.427 264.232 824.875 263.56 828.011 263.56C829.643 263.56 831.275 263.784 832.907 264.232C834.539 264.648 835.883 265.208 836.939 265.912L835.451 268.648C833.371 267.208 830.891 266.488 828.011 266.488C825.835 266.488 824.187 266.872 823.067 267.64C821.979 268.408 821.435 269.416 821.435 270.664C821.435 271.624 821.739 272.392 822.347 272.968C822.987 273.544 823.771 273.976 824.699 274.264C825.627 274.52 826.907 274.792 828.539 275.08C830.555 275.464 832.171 275.848 833.387 276.232C834.603 276.616 835.643 277.272 836.507 278.2C837.371 279.128 837.803 280.408 837.803 282.04C837.803 284.248 836.875 286.008 835.019 287.32C833.195 288.6 830.651 289.24 827.387 289.24ZM881.05 272.2H884.458V285.016C882.89 286.392 881.034 287.448 878.89 288.184C876.746 288.92 874.49 289.288 872.122 289.288C868.762 289.288 865.738 288.552 863.05 287.08C860.362 285.608 858.25 283.576 856.714 280.984C855.178 278.36 854.41 275.432 854.41 272.2C854.41 268.968 855.178 266.056 856.714 263.464C858.25 260.84 860.362 258.792 863.05 257.32C865.738 255.848 868.778 255.112 872.17 255.112C874.73 255.112 877.082 255.528 879.226 256.36C881.37 257.16 883.178 258.36 884.65 259.96L882.442 262.216C879.786 259.592 876.41 258.28 872.314 258.28C869.594 258.28 867.13 258.888 864.922 260.104C862.746 261.288 861.034 262.952 859.786 265.096C858.538 267.208 857.914 269.576 857.914 272.2C857.914 274.824 858.538 277.192 859.786 279.304C861.034 281.416 862.746 283.08 864.922 284.296C867.098 285.512 869.546 286.12 872.266 286.12C875.722 286.12 878.65 285.256 881.05 283.528V272.2ZM897.055 268.696C897.855 267 899.039 265.72 900.607 264.856C902.207 263.992 904.175 263.56 906.511 263.56V266.872L905.695 266.824C903.039 266.824 900.959 267.64 899.455 269.272C897.951 270.904 897.199 273.192 897.199 276.136V289H893.791V263.752H897.055V268.696ZM921.467 263.56C924.763 263.56 927.291 264.392 929.051 266.056C930.811 267.688 931.691 270.12 931.691 273.352V289H928.427V285.064C927.659 286.376 926.523 287.4 925.019 288.136C923.547 288.872 921.787 289.24 919.739 289.24C916.923 289.24 914.683 288.568 913.019 287.224C911.355 285.88 910.523 284.104 910.523 281.896C910.523 279.752 911.291 278.024 912.827 276.712C914.395 275.4 916.875 274.744 920.267 274.744H928.283V273.208C928.283 271.032 927.675 269.384 926.459 268.264C925.243 267.112 923.467 266.536 921.131 266.536C919.531 266.536 917.995 266.808 916.523 267.352C915.051 267.864 913.787 268.584 912.731 269.512L911.195 266.968C912.475 265.88 914.011 265.048 915.803 264.472C917.595 263.864 919.483 263.56 921.467 263.56ZM920.267 286.552C922.187 286.552 923.835 286.12 925.211 285.256C926.587 284.36 927.611 283.08 928.283 281.416V277.288H920.363C916.043 277.288 913.883 278.792 913.883 281.8C913.883 283.272 914.443 284.44 915.563 285.304C916.683 286.136 918.251 286.552 920.267 286.552ZM972.435 263.56C975.603 263.56 978.083 264.472 979.875 266.296C981.699 268.12 982.611 270.808 982.611 274.36V289H979.203V274.696C979.203 272.072 978.563 270.072 977.283 268.696C976.035 267.32 974.259 266.632 971.955 266.632C969.331 266.632 967.267 267.448 965.763 269.08C964.259 270.68 963.507 272.904 963.507 275.752V289H960.099V274.696C960.099 272.072 959.459 270.072 958.179 268.696C956.931 267.32 955.139 266.632 952.803 266.632C950.211 266.632 948.147 267.448 946.611 269.08C945.107 270.68 944.355 272.904 944.355 275.752V289H940.947V263.752H944.211V268.36C945.107 266.824 946.355 265.64 947.955 264.808C949.555 263.976 951.395 263.56 953.475 263.56C955.587 263.56 957.411 264.008 958.947 264.904C960.515 265.8 961.683 267.128 962.451 268.888C963.379 267.224 964.707 265.928 966.435 265C968.195 264.04 970.195 263.56 972.435 263.56Z" fill="black"/>
<path d="M570.781 571.336C571.885 571.576 572.733 572.056 573.325 572.776C573.933 573.48 574.237 574.392 574.237 575.512C574.237 576.952 573.701 578.064 572.629 578.848C571.573 579.616 570.005 580 567.925 580H560.197V563.2H567.445C569.317 563.2 570.765 563.576 571.789 564.328C572.829 565.08 573.349 566.144 573.349 567.52C573.349 568.448 573.117 569.24 572.653 569.896C572.205 570.536 571.581 571.016 570.781 571.336ZM561.973 564.664V570.76H567.325C568.685 570.76 569.733 570.504 570.469 569.992C571.205 569.464 571.573 568.704 571.573 567.712C571.573 566.72 571.205 565.968 570.469 565.456C569.733 564.928 568.685 564.664 567.325 564.664H561.973ZM567.901 578.536C569.405 578.536 570.541 578.28 571.309 577.768C572.077 577.256 572.461 576.456 572.461 575.368C572.461 573.272 570.941 572.224 567.901 572.224H561.973V578.536H567.901ZM579.563 569.848C579.963 569 580.555 568.36 581.339 567.928C582.139 567.496 583.123 567.28 584.291 567.28V568.936L583.883 568.912C582.555 568.912 581.515 569.32 580.763 570.136C580.011 570.952 579.635 572.096 579.635 573.568V580H577.931V567.376H579.563V569.848ZM591.769 567.28C593.417 567.28 594.681 567.696 595.561 568.528C596.441 569.344 596.881 570.56 596.881 572.176V580H595.249V578.032C594.865 578.688 594.297 579.2 593.545 579.568C592.809 579.936 591.929 580.12 590.905 580.12C589.497 580.12 588.377 579.784 587.545 579.112C586.713 578.44 586.297 577.552 586.297 576.448C586.297 575.376 586.681 574.512 587.449 573.856C588.233 573.2 589.473 572.872 591.169 572.872H595.177V572.104C595.177 571.016 594.873 570.192 594.265 569.632C593.657 569.056 592.769 568.768 591.601 568.768C590.801 568.768 590.033 568.904 589.297 569.176C588.561 569.432 587.929 569.792 587.401 570.256L586.633 568.984C587.273 568.44 588.041 568.024 588.937 567.736C589.833 567.432 590.777 567.28 591.769 567.28ZM591.169 578.776C592.129 578.776 592.953 578.56 593.641 578.128C594.329 577.68 594.841 577.04 595.177 576.208V574.144H591.217C589.057 574.144 587.977 574.896 587.977 576.4C587.977 577.136 588.257 577.72 588.817 578.152C589.377 578.568 590.161 578.776 591.169 578.776ZM607.941 567.28C609.525 567.28 610.781 567.744 611.709 568.672C612.653 569.584 613.125 570.92 613.125 572.68V580H611.421V572.848C611.421 571.536 611.093 570.536 610.437 569.848C609.781 569.16 608.845 568.816 607.629 568.816C606.269 568.816 605.189 569.224 604.389 570.04C603.605 570.84 603.213 571.952 603.213 573.376V580H601.509V567.376H603.141V569.704C603.605 568.936 604.245 568.344 605.061 567.928C605.893 567.496 606.853 567.28 607.941 567.28ZM629.318 562.192V580H627.686V577.504C627.174 578.352 626.494 579 625.646 579.448C624.814 579.896 623.87 580.12 622.814 580.12C621.63 580.12 620.558 579.848 619.598 579.304C618.638 578.76 617.886 578 617.342 577.024C616.798 576.048 616.526 574.936 616.526 573.688C616.526 572.44 616.798 571.328 617.342 570.352C617.886 569.376 618.638 568.624 619.598 568.096C620.558 567.552 621.63 567.28 622.814 567.28C623.838 567.28 624.758 567.496 625.574 567.928C626.406 568.344 627.086 568.96 627.614 569.776V562.192H629.318ZM622.958 578.608C623.838 578.608 624.63 578.408 625.334 578.008C626.054 577.592 626.614 577.008 627.014 576.256C627.43 575.504 627.638 574.648 627.638 573.688C627.638 572.728 627.43 571.872 627.014 571.12C626.614 570.368 626.054 569.792 625.334 569.392C624.63 568.976 623.838 568.768 622.958 568.768C622.062 568.768 621.254 568.976 620.534 569.392C619.83 569.792 619.27 570.368 618.854 571.12C618.454 571.872 618.254 572.728 618.254 573.688C618.254 574.648 618.454 575.504 618.854 576.256C619.27 577.008 619.83 577.592 620.534 578.008C621.254 578.408 622.062 578.608 622.958 578.608ZM646.777 567.28C648.361 567.28 649.617 567.744 650.545 568.672C651.489 569.584 651.961 570.92 651.961 572.68V580H650.257V572.848C650.257 571.536 649.929 570.536 649.273 569.848C648.617 569.16 647.681 568.816 646.465 568.816C645.105 568.816 644.025 569.224 643.225 570.04C642.441 570.84 642.049 571.952 642.049 573.376V580H640.345V567.376H641.977V569.704C642.441 568.936 643.081 568.344 643.897 567.928C644.729 567.496 645.689 567.28 646.777 567.28ZM667.626 574.216H657.066C657.162 575.528 657.666 576.592 658.578 577.408C659.49 578.208 660.642 578.608 662.034 578.608C662.818 578.608 663.538 578.472 664.194 578.2C664.85 577.912 665.418 577.496 665.898 576.952L666.858 578.056C666.298 578.728 665.594 579.24 664.746 579.592C663.914 579.944 662.994 580.12 661.986 580.12C660.69 580.12 659.538 579.848 658.53 579.304C657.538 578.744 656.762 577.976 656.202 577C655.642 576.024 655.362 574.92 655.362 573.688C655.362 572.456 655.626 571.352 656.154 570.376C656.698 569.4 657.434 568.64 658.362 568.096C659.306 567.552 660.362 567.28 661.53 567.28C662.698 567.28 663.746 567.552 664.674 568.096C665.602 568.64 666.33 569.4 666.858 570.376C667.386 571.336 667.65 572.44 667.65 573.688L667.626 574.216ZM661.53 568.744C660.314 568.744 659.29 569.136 658.458 569.92C657.642 570.688 657.178 571.696 657.066 572.944H666.018C665.906 571.696 665.434 570.688 664.602 569.92C663.786 569.136 662.762 568.744 661.53 568.744ZM689.412 567.376L684.636 580H683.028L679.044 569.656L675.06 580H673.452L668.7 567.376H670.332L674.292 578.104L678.348 567.376H679.812L683.844 578.104L687.852 567.376H689.412ZM704.907 579.232C704.587 579.52 704.187 579.744 703.707 579.904C703.243 580.048 702.755 580.12 702.243 580.12C701.059 580.12 700.147 579.8 699.507 579.16C698.867 578.52 698.547 577.616 698.547 576.448V568.816H696.291V567.376H698.547V564.616H700.251V567.376H704.091V568.816H700.251V576.352C700.251 577.104 700.435 577.68 700.803 578.08C701.187 578.464 701.731 578.656 702.435 578.656C702.787 578.656 703.123 578.6 703.443 578.488C703.779 578.376 704.067 578.216 704.307 578.008L704.907 579.232ZM712.724 580.12C711.508 580.12 710.412 579.848 709.436 579.304C708.46 578.744 707.692 577.976 707.132 577C706.572 576.024 706.292 574.92 706.292 573.688C706.292 572.456 706.572 571.352 707.132 570.376C707.692 569.4 708.46 568.64 709.436 568.096C710.412 567.552 711.508 567.28 712.724 567.28C713.94 567.28 715.036 567.552 716.012 568.096C716.988 568.64 717.748 569.4 718.292 570.376C718.852 571.352 719.132 572.456 719.132 573.688C719.132 574.92 718.852 576.024 718.292 577C717.748 577.976 716.988 578.744 716.012 579.304C715.036 579.848 713.94 580.12 712.724 580.12ZM712.724 578.608C713.62 578.608 714.42 578.408 715.124 578.008C715.844 577.592 716.404 577.008 716.804 576.256C717.204 575.504 717.404 574.648 717.404 573.688C717.404 572.728 717.204 571.872 716.804 571.12C716.404 570.368 715.844 569.792 715.124 569.392C714.42 568.976 713.62 568.768 712.724 568.768C711.828 568.768 711.02 568.976 710.3 569.392C709.596 569.792 709.036 570.368 708.62 571.12C708.22 571.872 708.02 572.728 708.02 573.688C708.02 574.648 708.22 575.504 708.62 576.256C709.036 577.008 709.596 577.592 710.3 578.008C711.02 578.408 711.828 578.608 712.724 578.608ZM739.788 575.512H730.428L728.412 580H726.564L734.244 563.2H735.996L743.676 580H741.804L739.788 575.512ZM739.14 574.072L735.108 565.048L731.076 574.072H739.14ZM751.21 580.12C749.962 580.12 748.842 579.848 747.85 579.304C746.874 578.76 746.106 578 745.546 577.024C744.986 576.032 744.706 574.92 744.706 573.688C744.706 572.456 744.986 571.352 745.546 570.376C746.106 569.4 746.874 568.64 747.85 568.096C748.842 567.552 749.962 567.28 751.21 567.28C752.298 567.28 753.266 567.496 754.114 567.928C754.978 568.344 755.658 568.96 756.154 569.776L754.882 570.64C754.466 570.016 753.938 569.552 753.298 569.248C752.658 568.928 751.962 568.768 751.21 568.768C750.298 568.768 749.474 568.976 748.738 569.392C748.018 569.792 747.45 570.368 747.034 571.12C746.634 571.872 746.434 572.728 746.434 573.688C746.434 574.664 746.634 575.528 747.034 576.28C747.45 577.016 748.018 577.592 748.738 578.008C749.474 578.408 750.298 578.608 751.21 578.608C751.962 578.608 752.658 578.456 753.298 578.152C753.938 577.848 754.466 577.384 754.882 576.76L756.154 577.624C755.658 578.44 754.978 579.064 754.114 579.496C753.25 579.912 752.282 580.12 751.21 580.12ZM764.522 580.12C763.274 580.12 762.154 579.848 761.162 579.304C760.186 578.76 759.418 578 758.858 577.024C758.298 576.032 758.018 574.92 758.018 573.688C758.018 572.456 758.298 571.352 758.858 570.376C759.418 569.4 760.186 568.64 761.162 568.096C762.154 567.552 763.274 567.28 764.522 567.28C765.61 567.28 766.578 567.496 767.426 567.928C768.29 568.344 768.97 568.96 769.466 569.776L768.194 570.64C767.778 570.016 767.25 569.552 766.61 569.248C765.97 568.928 765.274 568.768 764.522 568.768C763.61 568.768 762.786 568.976 762.05 569.392C761.33 569.792 760.762 570.368 760.346 571.12C759.946 571.872 759.746 572.728 759.746 573.688C759.746 574.664 759.946 575.528 760.346 576.28C760.762 577.016 761.33 577.592 762.05 578.008C762.786 578.408 763.61 578.608 764.522 578.608C765.274 578.608 765.97 578.456 766.61 578.152C767.25 577.848 767.778 577.384 768.194 576.76L769.466 577.624C768.97 578.44 768.29 579.064 767.426 579.496C766.562 579.912 765.594 580.12 764.522 580.12ZM783.595 574.216H773.035C773.131 575.528 773.635 576.592 774.547 577.408C775.459 578.208 776.611 578.608 778.003 578.608C778.787 578.608 779.507 578.472 780.163 578.2C780.819 577.912 781.387 577.496 781.867 576.952L782.827 578.056C782.267 578.728 781.563 579.24 780.715 579.592C779.883 579.944 778.963 580.12 777.955 580.12C776.659 580.12 775.507 579.848 774.499 579.304C773.507 578.744 772.731 577.976 772.171 577C771.611 576.024 771.331 574.92 771.331 573.688C771.331 572.456 771.595 571.352 772.123 570.376C772.667 569.4 773.403 568.64 774.331 568.096C775.275 567.552 776.331 567.28 777.499 567.28C778.667 567.28 779.715 567.552 780.643 568.096C781.571 568.64 782.299 569.4 782.827 570.376C783.355 571.336 783.619 572.44 783.619 573.688L783.595 574.216ZM777.499 568.744C776.283 568.744 775.259 569.136 774.427 569.92C773.611 570.688 773.147 571.696 773.035 572.944H781.987C781.875 571.696 781.403 570.688 780.571 569.92C779.755 569.136 778.731 568.744 777.499 568.744ZM790.471 580.12C789.447 580.12 788.463 579.976 787.519 579.688C786.591 579.384 785.863 579.008 785.335 578.56L786.103 577.216C786.631 577.632 787.295 577.976 788.095 578.248C788.895 578.504 789.727 578.632 790.591 578.632C791.743 578.632 792.591 578.456 793.135 578.104C793.695 577.736 793.975 577.224 793.975 576.568C793.975 576.104 793.823 575.744 793.519 575.488C793.215 575.216 792.831 575.016 792.367 574.888C791.903 574.744 791.287 574.608 790.519 574.48C789.495 574.288 788.671 574.096 788.047 573.904C787.423 573.696 786.887 573.352 786.439 572.872C786.007 572.392 785.791 571.728 785.791 570.88C785.791 569.824 786.231 568.96 787.111 568.288C787.991 567.616 789.215 567.28 790.783 567.28C791.599 567.28 792.415 567.392 793.231 567.616C794.047 567.824 794.719 568.104 795.247 568.456L794.503 569.824C793.463 569.104 792.223 568.744 790.783 568.744C789.695 568.744 788.871 568.936 788.311 569.32C787.767 569.704 787.495 570.208 787.495 570.832C787.495 571.312 787.647 571.696 787.951 571.984C788.271 572.272 788.663 572.488 789.127 572.632C789.591 572.76 790.231 572.896 791.047 573.04C792.055 573.232 792.863 573.424 793.471 573.616C794.079 573.808 794.599 574.136 795.031 574.6C795.463 575.064 795.679 575.704 795.679 576.52C795.679 577.624 795.215 578.504 794.287 579.16C793.375 579.8 792.103 580.12 790.471 580.12ZM802.213 580.12C801.189 580.12 800.205 579.976 799.261 579.688C798.333 579.384 797.605 579.008 797.077 578.56L797.845 577.216C798.373 577.632 799.037 577.976 799.837 578.248C800.637 578.504 801.469 578.632 802.333 578.632C803.485 578.632 804.333 578.456 804.877 578.104C805.437 577.736 805.717 577.224 805.717 576.568C805.717 576.104 805.565 575.744 805.261 575.488C804.957 575.216 804.573 575.016 804.109 574.888C803.645 574.744 803.029 574.608 802.261 574.48C801.237 574.288 800.413 574.096 799.789 573.904C799.165 573.696 798.629 573.352 798.181 572.872C797.749 572.392 797.533 571.728 797.533 570.88C797.533 569.824 797.973 568.96 798.853 568.288C799.733 567.616 800.957 567.28 802.525 567.28C803.341 567.28 804.157 567.392 804.973 567.616C805.789 567.824 806.461 568.104 806.989 568.456L806.245 569.824C805.205 569.104 803.965 568.744 802.525 568.744C801.437 568.744 800.613 568.936 800.053 569.32C799.509 569.704 799.237 570.208 799.237 570.832C799.237 571.312 799.389 571.696 799.693 571.984C800.013 572.272 800.405 572.488 800.869 572.632C801.333 572.76 801.973 572.896 802.789 573.04C803.797 573.232 804.605 573.424 805.213 573.616C805.821 573.808 806.341 574.136 806.773 574.6C807.205 575.064 807.421 575.704 807.421 576.52C807.421 577.624 806.957 578.504 806.029 579.16C805.117 579.8 803.845 580.12 802.213 580.12ZM829.045 571.6H830.749V578.008C829.965 578.696 829.037 579.224 827.965 579.592C826.893 579.96 825.765 580.144 824.581 580.144C822.901 580.144 821.389 579.776 820.045 579.04C818.701 578.304 817.645 577.288 816.877 575.992C816.109 574.68 815.725 573.216 815.725 571.6C815.725 569.984 816.109 568.528 816.877 567.232C817.645 565.92 818.701 564.896 820.045 564.16C821.389 563.424 822.909 563.056 824.605 563.056C825.885 563.056 827.061 563.264 828.133 563.68C829.205 564.08 830.109 564.68 830.845 565.48L829.741 566.608C828.413 565.296 826.725 564.64 824.677 564.64C823.317 564.64 822.085 564.944 820.981 565.552C819.893 566.144 819.037 566.976 818.413 568.048C817.789 569.104 817.477 570.288 817.477 571.6C817.477 572.912 817.789 574.096 818.413 575.152C819.037 576.208 819.893 577.04 820.981 577.648C822.069 578.256 823.293 578.56 824.653 578.56C826.381 578.56 827.845 578.128 829.045 577.264V571.6ZM837.047 569.848C837.447 569 838.039 568.36 838.823 567.928C839.623 567.496 840.607 567.28 841.775 567.28V568.936L841.367 568.912C840.039 568.912 838.999 569.32 838.247 570.136C837.495 570.952 837.119 572.096 837.119 573.568V580H835.415V567.376H837.047V569.848ZM849.253 567.28C850.901 567.28 852.165 567.696 853.045 568.528C853.925 569.344 854.365 570.56 854.365 572.176V580H852.733V578.032C852.349 578.688 851.781 579.2 851.029 579.568C850.293 579.936 849.413 580.12 848.389 580.12C846.981 580.12 845.861 579.784 845.029 579.112C844.197 578.44 843.781 577.552 843.781 576.448C843.781 575.376 844.165 574.512 844.933 573.856C845.717 573.2 846.957 572.872 848.653 572.872H852.661V572.104C852.661 571.016 852.357 570.192 851.749 569.632C851.141 569.056 850.253 568.768 849.085 568.768C848.285 568.768 847.517 568.904 846.781 569.176C846.045 569.432 845.413 569.792 844.885 570.256L844.117 568.984C844.757 568.44 845.525 568.024 846.421 567.736C847.317 567.432 848.261 567.28 849.253 567.28ZM848.653 578.776C849.613 578.776 850.437 578.56 851.125 578.128C851.813 577.68 852.325 577.04 852.661 576.208V574.144H848.701C846.541 574.144 845.461 574.896 845.461 576.4C845.461 577.136 845.741 577.72 846.301 578.152C846.861 578.568 847.645 578.776 848.653 578.776ZM874.737 567.28C876.321 567.28 877.561 567.736 878.457 568.648C879.369 569.56 879.825 570.904 879.825 572.68V580H878.121V572.848C878.121 571.536 877.801 570.536 877.161 569.848C876.537 569.16 875.649 568.816 874.497 568.816C873.185 568.816 872.153 569.224 871.401 570.04C870.649 570.84 870.273 571.952 870.273 573.376V580H868.569V572.848C868.569 571.536 868.249 570.536 867.609 569.848C866.985 569.16 866.089 568.816 864.921 568.816C863.625 568.816 862.593 569.224 861.825 570.04C861.073 570.84 860.697 571.952 860.697 573.376V580H858.993V567.376H860.625V569.68C861.073 568.912 861.697 568.32 862.497 567.904C863.297 567.488 864.217 567.28 865.257 567.28C866.313 567.28 867.225 567.504 867.993 567.952C868.777 568.4 869.361 569.064 869.745 569.944C870.209 569.112 870.873 568.464 871.737 568C872.617 567.52 873.617 567.28 874.737 567.28ZM886.562 574.96C886.562 574.304 886.666 573.728 886.874 573.232C887.098 572.736 887.37 572.312 887.69 571.96C888.01 571.608 888.426 571.208 888.938 570.76C889.626 570.152 890.13 569.624 890.45 569.176C890.786 568.712 890.954 568.152 890.954 567.496C890.954 566.616 890.61 565.912 889.922 565.384C889.234 564.84 888.29 564.568 887.09 564.568C885.106 564.568 883.578 565.216 882.506 566.512L881.234 565.552C882.594 563.888 884.586 563.056 887.21 563.056C888.89 563.056 890.226 563.432 891.218 564.184C892.226 564.936 892.73 565.952 892.73 567.232C892.73 567.888 892.618 568.472 892.394 568.984C892.186 569.48 891.922 569.904 891.602 570.256C891.298 570.608 890.89 571.016 890.378 571.48C889.69 572.104 889.178 572.664 888.842 573.16C888.506 573.64 888.338 574.24 888.338 574.96H886.562ZM887.45 580.12C887.098 580.12 886.802 580 886.562 579.76C886.322 579.504 886.202 579.208 886.202 578.872C886.202 578.52 886.322 578.232 886.562 578.008C886.802 577.768 887.098 577.648 887.45 577.648C887.818 577.648 888.122 577.768 888.362 578.008C888.602 578.232 888.722 578.52 888.722 578.872C888.722 579.208 888.594 579.504 888.338 579.76C888.098 580 887.802 580.12 887.45 580.12ZM655.204 609.144C653.956 609.144 652.756 608.944 651.604 608.544C650.468 608.144 649.588 607.616 648.964 606.96L649.66 605.592C650.268 606.2 651.076 606.696 652.084 607.08C653.092 607.448 654.132 607.632 655.204 607.632C656.708 607.632 657.836 607.36 658.588 606.816C659.34 606.256 659.716 605.536 659.716 604.656C659.716 603.984 659.508 603.448 659.092 603.048C658.692 602.648 658.196 602.344 657.604 602.136C657.012 601.912 656.188 601.672 655.132 601.416C653.868 601.096 652.86 600.792 652.108 600.504C651.356 600.2 650.708 599.744 650.164 599.136C649.636 598.528 649.372 597.704 649.372 596.664C649.372 595.816 649.596 595.048 650.044 594.36C650.492 593.656 651.18 593.096 652.108 592.68C653.036 592.264 654.188 592.056 655.564 592.056C656.524 592.056 657.46 592.192 658.372 592.464C659.3 592.72 660.1 593.08 660.772 593.544L660.172 594.96C659.468 594.496 658.716 594.152 657.916 593.928C657.116 593.688 656.332 593.568 655.564 593.568C654.092 593.568 652.98 593.856 652.228 594.432C651.492 594.992 651.124 595.72 651.124 596.616C651.124 597.288 651.324 597.832 651.724 598.248C652.14 598.648 652.652 598.96 653.26 599.184C653.884 599.392 654.716 599.624 655.756 599.88C656.988 600.184 657.98 600.488 658.732 600.792C659.5 601.08 660.148 601.528 660.676 602.136C661.204 602.728 661.468 603.536 661.468 604.56C661.468 605.408 661.236 606.184 660.772 606.888C660.324 607.576 659.628 608.128 658.684 608.544C657.74 608.944 656.58 609.144 655.204 609.144ZM664.978 596.376H666.682V609H664.978V596.376ZM665.842 593.616C665.49 593.616 665.194 593.496 664.954 593.256C664.714 593.016 664.594 592.728 664.594 592.392C664.594 592.072 664.714 591.792 664.954 591.552C665.194 591.312 665.49 591.192 665.842 591.192C666.194 591.192 666.49 591.312 666.73 591.552C666.97 591.776 667.09 592.048 667.09 592.368C667.09 592.72 666.97 593.016 666.73 593.256C666.49 593.496 666.194 593.616 665.842 593.616ZM683.111 596.376V607.464C683.111 609.608 682.583 611.192 681.527 612.216C680.487 613.256 678.911 613.776 676.799 613.776C675.631 613.776 674.519 613.6 673.463 613.248C672.423 612.912 671.575 612.44 670.919 611.832L671.783 610.536C672.391 611.08 673.127 611.504 673.991 611.808C674.871 612.112 675.791 612.264 676.751 612.264C678.351 612.264 679.527 611.888 680.279 611.136C681.031 610.4 681.407 609.248 681.407 607.68V606.072C680.879 606.872 680.183 607.48 679.319 607.896C678.471 608.312 677.527 608.52 676.487 608.52C675.303 608.52 674.223 608.264 673.247 607.752C672.287 607.224 671.527 606.496 670.967 605.568C670.423 604.624 670.151 603.56 670.151 602.376C670.151 601.192 670.423 600.136 670.967 599.208C671.527 598.28 672.287 597.56 673.247 597.048C674.207 596.536 675.287 596.28 676.487 596.28C677.559 596.28 678.527 596.496 679.391 596.928C680.255 597.36 680.951 597.984 681.479 598.8V596.376H683.111ZM676.655 607.008C677.567 607.008 678.391 606.816 679.127 606.432C679.863 606.032 680.431 605.48 680.831 604.776C681.247 604.072 681.455 603.272 681.455 602.376C681.455 601.48 681.247 600.688 680.831 600C680.431 599.296 679.863 598.752 679.127 598.368C678.407 597.968 677.583 597.768 676.655 597.768C675.743 597.768 674.919 597.96 674.183 598.344C673.463 598.728 672.895 599.272 672.479 599.976C672.079 600.68 671.879 601.48 671.879 602.376C671.879 603.272 672.079 604.072 672.479 604.776C672.895 605.48 673.463 606.032 674.183 606.432C674.919 606.816 675.743 607.008 676.655 607.008ZM694.308 596.28C695.892 596.28 697.148 596.744 698.076 597.672C699.02 598.584 699.492 599.92 699.492 601.68V609H697.788V601.848C697.788 600.536 697.46 599.536 696.804 598.848C696.148 598.16 695.212 597.816 693.996 597.816C692.636 597.816 691.556 598.224 690.756 599.04C689.972 599.84 689.58 600.952 689.58 602.376V609H687.876V596.376H689.508V598.704C689.972 597.936 690.612 597.344 691.428 596.928C692.26 596.496 693.22 596.28 694.308 596.28ZM717.527 609.144C715.351 609.144 713.655 608.52 712.439 607.272C711.223 606.024 710.615 604.208 710.615 601.824V592.2H712.391V601.752C712.391 603.704 712.831 605.16 713.711 606.12C714.591 607.08 715.863 607.56 717.527 607.56C719.207 607.56 720.487 607.08 721.367 606.12C722.247 605.16 722.687 603.704 722.687 601.752V592.2H724.415V601.824C724.415 604.208 723.807 606.024 722.591 607.272C721.391 608.52 719.703 609.144 717.527 609.144ZM735.911 596.28C737.095 596.28 738.167 596.552 739.127 597.096C740.087 597.624 740.839 598.376 741.383 599.352C741.927 600.328 742.199 601.44 742.199 602.688C742.199 603.952 741.927 605.072 741.383 606.048C740.839 607.024 740.087 607.784 739.127 608.328C738.183 608.856 737.111 609.12 735.911 609.12C734.887 609.12 733.959 608.912 733.127 608.496C732.311 608.064 731.639 607.44 731.111 606.624V613.656H729.407V596.376H731.039V598.872C731.551 598.04 732.223 597.4 733.055 596.952C733.903 596.504 734.855 596.28 735.911 596.28ZM735.791 607.608C736.671 607.608 737.471 607.408 738.191 607.008C738.911 606.592 739.471 606.008 739.871 605.256C740.287 604.504 740.495 603.648 740.495 602.688C740.495 601.728 740.287 600.88 739.871 600.144C739.471 599.392 738.911 598.808 738.191 598.392C737.471 597.976 736.671 597.768 735.791 597.768C734.895 597.768 734.087 597.976 733.367 598.392C732.663 598.808 732.103 599.392 731.687 600.144C731.287 600.88 731.087 601.728 731.087 602.688C731.087 603.648 731.287 604.504 731.687 605.256C732.103 606.008 732.663 606.592 733.367 607.008C734.087 607.408 734.895 607.608 735.791 607.608ZM758.386 596.28C759.97 596.28 761.226 596.744 762.154 597.672C763.098 598.584 763.57 599.92 763.57 601.68V609H761.866V601.848C761.866 600.536 761.538 599.536 760.882 598.848C760.226 598.16 759.29 597.816 758.074 597.816C756.714 597.816 755.634 598.224 754.834 599.04C754.05 599.84 753.658 600.952 753.658 602.376V609H751.954V591.192H753.658V598.584C754.122 597.848 754.762 597.28 755.578 596.88C756.394 596.48 757.33 596.28 758.386 596.28ZM779.235 603.216H768.675C768.771 604.528 769.275 605.592 770.187 606.408C771.099 607.208 772.251 607.608 773.643 607.608C774.427 607.608 775.147 607.472 775.803 607.2C776.459 606.912 777.027 606.496 777.507 605.952L778.467 607.056C777.907 607.728 777.203 608.24 776.355 608.592C775.523 608.944 774.603 609.12 773.595 609.12C772.299 609.12 771.147 608.848 770.139 608.304C769.147 607.744 768.371 606.976 767.811 606C767.251 605.024 766.971 603.92 766.971 602.688C766.971 601.456 767.235 600.352 767.763 599.376C768.307 598.4 769.043 597.64 769.971 597.096C770.915 596.552 771.971 596.28 773.139 596.28C774.307 596.28 775.355 596.552 776.283 597.096C777.211 597.64 777.939 598.4 778.467 599.376C778.995 600.336 779.259 601.44 779.259 602.688L779.235 603.216ZM773.139 597.744C771.923 597.744 770.899 598.136 770.067 598.92C769.251 599.688 768.787 600.696 768.675 601.944H777.627C777.515 600.696 777.043 599.688 776.211 598.92C775.395 598.136 774.371 597.744 773.139 597.744ZM784.36 598.848C784.76 598 785.352 597.36 786.136 596.928C786.936 596.496 787.92 596.28 789.088 596.28V597.936L788.68 597.912C787.352 597.912 786.312 598.32 785.56 599.136C784.808 599.952 784.432 601.096 784.432 602.568V609H782.728V596.376H784.36V598.848ZM803.048 603.216H792.488C792.584 604.528 793.088 605.592 794 606.408C794.912 607.208 796.064 607.608 797.456 607.608C798.24 607.608 798.96 607.472 799.616 607.2C800.272 606.912 800.84 606.496 801.32 605.952L802.28 607.056C801.72 607.728 801.016 608.24 800.168 608.592C799.336 608.944 798.416 609.12 797.408 609.12C796.112 609.12 794.96 608.848 793.952 608.304C792.96 607.744 792.184 606.976 791.624 606C791.064 605.024 790.784 603.92 790.784 602.688C790.784 601.456 791.048 600.352 791.576 599.376C792.12 598.4 792.856 597.64 793.784 597.096C794.728 596.552 795.784 596.28 796.952 596.28C798.12 596.28 799.168 596.552 800.096 597.096C801.024 597.64 801.752 598.4 802.28 599.376C802.808 600.336 803.072 601.44 803.072 602.688L803.048 603.216ZM796.952 597.744C795.736 597.744 794.712 598.136 793.88 598.92C793.064 599.688 792.6 600.696 792.488 601.944H801.44C801.328 600.696 800.856 599.688 800.024 598.92C799.208 598.136 798.184 597.744 796.952 597.744Z" fill="black"/>
<path d="M707.021 333.464V335H695.141V318.2H706.661V319.736H696.917V325.712H705.605V327.224H696.917V333.464H707.021ZM726.58 322.28C728.164 322.28 729.404 322.736 730.3 323.648C731.212 324.56 731.668 325.904 731.668 327.68V335H729.964V327.848C729.964 326.536 729.644 325.536 729.004 324.848C728.38 324.16 727.492 323.816 726.34 323.816C725.028 323.816 723.996 324.224 723.244 325.04C722.492 325.84 722.116 326.952 722.116 328.376V335H720.412V327.848C720.412 326.536 720.092 325.536 719.452 324.848C718.828 324.16 717.932 323.816 716.764 323.816C715.468 323.816 714.436 324.224 713.668 325.04C712.916 325.84 712.54 326.952 712.54 328.376V335H710.836V322.376H712.468V324.68C712.916 323.912 713.54 323.32 714.34 322.904C715.14 322.488 716.06 322.28 717.1 322.28C718.156 322.28 719.068 322.504 719.836 322.952C720.62 323.4 721.204 324.064 721.588 324.944C722.052 324.112 722.716 323.464 723.58 323C724.46 322.52 725.46 322.28 726.58 322.28ZM740.705 322.28C742.353 322.28 743.617 322.696 744.497 323.528C745.377 324.344 745.817 325.56 745.817 327.176V335H744.185V333.032C743.801 333.688 743.233 334.2 742.481 334.568C741.745 334.936 740.865 335.12 739.841 335.12C738.433 335.12 737.313 334.784 736.481 334.112C735.649 333.44 735.233 332.552 735.233 331.448C735.233 330.376 735.617 329.512 736.385 328.856C737.169 328.2 738.409 327.872 740.105 327.872H744.113V327.104C744.113 326.016 743.809 325.192 743.201 324.632C742.593 324.056 741.705 323.768 740.537 323.768C739.737 323.768 738.969 323.904 738.233 324.176C737.497 324.432 736.865 324.792 736.337 325.256L735.569 323.984C736.209 323.44 736.977 323.024 737.873 322.736C738.769 322.432 739.713 322.28 740.705 322.28ZM740.105 333.776C741.065 333.776 741.889 333.56 742.577 333.128C743.265 332.68 743.777 332.04 744.113 331.208V329.144H740.153C737.993 329.144 736.913 329.896 736.913 331.4C736.913 332.136 737.193 332.72 737.753 333.152C738.313 333.568 739.097 333.776 740.105 333.776ZM750.445 322.376H752.149V335H750.445V322.376ZM751.309 319.616C750.957 319.616 750.661 319.496 750.421 319.256C750.181 319.016 750.061 318.728 750.061 318.392C750.061 318.072 750.181 317.792 750.421 317.552C750.661 317.312 750.957 317.192 751.309 317.192C751.661 317.192 751.957 317.312 752.197 317.552C752.437 317.776 752.557 318.048 752.557 318.368C752.557 318.72 752.437 319.016 752.197 319.256C751.957 319.496 751.661 319.616 751.309 319.616ZM756.891 317.192H758.595V335H756.891V317.192Z" fill="black"/>
<path d="M677.874 399.2C680.018 399.2 681.698 399.712 682.914 400.736C684.13 401.76 684.738 403.168 684.738 404.96C684.738 406.752 684.13 408.16 682.914 409.184C681.698 410.192 680.018 410.696 677.874 410.696H673.362V416H671.586V399.2H677.874ZM677.826 409.136C679.49 409.136 680.762 408.776 681.642 408.056C682.522 407.32 682.962 406.288 682.962 404.96C682.962 403.6 682.522 402.56 681.642 401.84C680.762 401.104 679.49 400.736 677.826 400.736H673.362V409.136H677.826ZM692.517 403.28C694.165 403.28 695.429 403.696 696.309 404.528C697.189 405.344 697.629 406.56 697.629 408.176V416H695.997V414.032C695.613 414.688 695.045 415.2 694.293 415.568C693.557 415.936 692.677 416.12 691.653 416.12C690.245 416.12 689.125 415.784 688.293 415.112C687.461 414.44 687.045 413.552 687.045 412.448C687.045 411.376 687.429 410.512 688.197 409.856C688.981 409.2 690.221 408.872 691.917 408.872H695.925V408.104C695.925 407.016 695.621 406.192 695.013 405.632C694.405 405.056 693.517 404.768 692.349 404.768C691.549 404.768 690.781 404.904 690.045 405.176C689.309 405.432 688.677 405.792 688.149 406.256L687.381 404.984C688.021 404.44 688.789 404.024 689.685 403.736C690.581 403.432 691.525 403.28 692.517 403.28ZM691.917 414.776C692.877 414.776 693.701 414.56 694.389 414.128C695.077 413.68 695.589 413.04 695.925 412.208V410.144H691.965C689.805 410.144 688.725 410.896 688.725 412.4C688.725 413.136 689.005 413.72 689.565 414.152C690.125 414.568 690.909 414.776 691.917 414.776ZM705.642 416.12C704.618 416.12 703.634 415.976 702.69 415.688C701.762 415.384 701.034 415.008 700.506 414.56L701.274 413.216C701.802 413.632 702.466 413.976 703.266 414.248C704.066 414.504 704.898 414.632 705.762 414.632C706.914 414.632 707.762 414.456 708.306 414.104C708.866 413.736 709.146 413.224 709.146 412.568C709.146 412.104 708.994 411.744 708.69 411.488C708.386 411.216 708.002 411.016 707.538 410.888C707.074 410.744 706.458 410.608 705.69 410.48C704.666 410.288 703.842 410.096 703.218 409.904C702.594 409.696 702.058 409.352 701.61 408.872C701.178 408.392 700.962 407.728 700.962 406.88C700.962 405.824 701.402 404.96 702.282 404.288C703.162 403.616 704.386 403.28 705.954 403.28C706.77 403.28 707.586 403.392 708.402 403.616C709.218 403.824 709.89 404.104 710.418 404.456L709.674 405.824C708.634 405.104 707.394 404.744 705.954 404.744C704.866 404.744 704.042 404.936 703.482 405.32C702.938 405.704 702.666 406.208 702.666 406.832C702.666 407.312 702.818 407.696 703.122 407.984C703.442 408.272 703.834 408.488 704.298 408.632C704.762 408.76 705.402 408.896 706.218 409.04C707.226 409.232 708.034 409.424 708.642 409.616C709.25 409.808 709.77 410.136 710.202 410.6C710.634 411.064 710.85 411.704 710.85 412.52C710.85 413.624 710.386 414.504 709.458 415.16C708.546 415.8 707.274 416.12 705.642 416.12ZM717.384 416.12C716.36 416.12 715.376 415.976 714.432 415.688C713.504 415.384 712.776 415.008 712.248 414.56L713.016 413.216C713.544 413.632 714.208 413.976 715.008 414.248C715.808 414.504 716.64 414.632 717.504 414.632C718.656 414.632 719.504 414.456 720.048 414.104C720.608 413.736 720.888 413.224 720.888 412.568C720.888 412.104 720.736 411.744 720.432 411.488C720.128 411.216 719.744 411.016 719.28 410.888C718.816 410.744 718.2 410.608 717.432 410.48C716.408 410.288 715.584 410.096 714.96 409.904C714.336 409.696 713.8 409.352 713.352 408.872C712.92 408.392 712.704 407.728 712.704 406.88C712.704 405.824 713.144 404.96 714.024 404.288C714.904 403.616 716.128 403.28 717.696 403.28C718.512 403.28 719.328 403.392 720.144 403.616C720.96 403.824 721.632 404.104 722.16 404.456L721.416 405.824C720.376 405.104 719.136 404.744 717.696 404.744C716.608 404.744 715.784 404.936 715.224 405.32C714.68 405.704 714.408 406.208 714.408 406.832C714.408 407.312 714.56 407.696 714.864 407.984C715.184 408.272 715.576 408.488 716.04 408.632C716.504 408.76 717.144 408.896 717.96 409.04C718.968 409.232 719.776 409.424 720.384 409.616C720.992 409.808 721.512 410.136 721.944 410.6C722.376 411.064 722.592 411.704 722.592 412.52C722.592 413.624 722.128 414.504 721.2 415.16C720.288 415.8 719.016 416.12 717.384 416.12ZM744.036 403.376L739.26 416H737.652L733.668 405.656L729.684 416H728.076L723.324 403.376H724.956L728.916 414.104L732.972 403.376H734.436L738.468 414.104L742.476 403.376H744.036ZM751.41 416.12C750.194 416.12 749.098 415.848 748.122 415.304C747.146 414.744 746.378 413.976 745.818 413C745.258 412.024 744.978 410.92 744.978 409.688C744.978 408.456 745.258 407.352 745.818 406.376C746.378 405.4 747.146 404.64 748.122 404.096C749.098 403.552 750.194 403.28 751.41 403.28C752.626 403.28 753.722 403.552 754.698 404.096C755.674 404.64 756.434 405.4 756.978 406.376C757.538 407.352 757.818 408.456 757.818 409.688C757.818 410.92 757.538 412.024 756.978 413C756.434 413.976 755.674 414.744 754.698 415.304C753.722 415.848 752.626 416.12 751.41 416.12ZM751.41 414.608C752.306 414.608 753.106 414.408 753.81 414.008C754.53 413.592 755.09 413.008 755.49 412.256C755.89 411.504 756.09 410.648 756.09 409.688C756.09 408.728 755.89 407.872 755.49 407.12C755.09 406.368 754.53 405.792 753.81 405.392C753.106 404.976 752.306 404.768 751.41 404.768C750.514 404.768 749.706 404.976 748.986 405.392C748.282 405.792 747.722 406.368 747.306 407.12C746.906 407.872 746.706 408.728 746.706 409.688C746.706 410.648 746.906 411.504 747.306 412.256C747.722 413.008 748.282 413.592 748.986 414.008C749.706 414.408 750.514 414.608 751.41 414.608ZM762.929 405.848C763.329 405 763.921 404.36 764.705 403.928C765.505 403.496 766.489 403.28 767.657 403.28V404.936L767.249 404.912C765.921 404.912 764.881 405.32 764.129 406.136C763.377 406.952 763.001 408.096 763.001 409.568V416H761.297V403.376H762.929V405.848ZM782.145 398.192V416H780.513V413.504C780.001 414.352 779.321 415 778.473 415.448C777.641 415.896 776.697 416.12 775.641 416.12C774.457 416.12 773.385 415.848 772.425 415.304C771.465 414.76 770.713 414 770.169 413.024C769.625 412.048 769.353 410.936 769.353 409.688C769.353 408.44 769.625 407.328 770.169 406.352C770.713 405.376 771.465 404.624 772.425 404.096C773.385 403.552 774.457 403.28 775.641 403.28C776.665 403.28 777.585 403.496 778.401 403.928C779.233 404.344 779.913 404.96 780.441 405.776V398.192H782.145ZM775.785 414.608C776.665 414.608 777.457 414.408 778.161 414.008C778.881 413.592 779.441 413.008 779.841 412.256C780.257 411.504 780.465 410.648 780.465 409.688C780.465 408.728 780.257 407.872 779.841 407.12C779.441 406.368 778.881 405.792 778.161 405.392C777.457 404.976 776.665 404.768 775.785 404.768C774.889 404.768 774.081 404.976 773.361 405.392C772.657 405.792 772.097 406.368 771.681 407.12C771.281 407.872 771.081 408.728 771.081 409.688C771.081 410.648 771.281 411.504 771.681 412.256C772.097 413.008 772.657 413.592 773.361 414.008C774.081 414.408 774.889 414.608 775.785 414.608Z" fill="black"/>
<rect x="553" y="430" width="346" height="44" fill="#C4C4C4"/>
<rect x="553" y="349" width="346" height="39" fill="#C4C4C4"/>
</svg>
