<svg width="1440" height="900" viewBox="0 0 1440 900" fill="none" xmlns="http://www.w3.org/2000/svg">
<rect width="1440" height="900" fill="#E5E5E5"/>
<rect width="1440" height="900" fill="white"/>
<rect x="790" y="51" width="563" height="65" fill="#C4C4C4"/>
<path d="M952.333 92.144C950.669 92.144 949.165 91.776 947.821 91.04C946.493 90.304 945.445 89.288 944.677 87.992C943.925 86.68 943.549 85.216 943.549 83.6C943.549 81.984 943.925 80.528 944.677 79.232C945.445 77.92 946.501 76.896 947.845 76.16C949.189 75.424 950.693 75.056 952.357 75.056C953.605 75.056 954.757 75.264 955.813 75.68C956.869 76.096 957.765 76.704 958.501 77.504L957.373 78.632C956.061 77.304 954.405 76.64 952.405 76.64C951.077 76.64 949.869 76.944 948.781 77.552C947.693 78.16 946.837 78.992 946.213 80.048C945.605 81.104 945.301 82.288 945.301 83.6C945.301 84.912 945.605 86.096 946.213 87.152C946.837 88.208 947.693 89.04 948.781 89.648C949.869 90.256 951.077 90.56 952.405 90.56C954.421 90.56 956.077 89.888 957.373 88.544L958.501 89.672C957.765 90.472 956.861 91.088 955.789 91.52C954.733 91.936 953.581 92.144 952.333 92.144ZM963.559 81.848C963.959 81 964.551 80.36 965.335 79.928C966.135 79.496 967.119 79.28 968.287 79.28V80.936L967.879 80.912C966.551 80.912 965.511 81.32 964.759 82.136C964.007 82.952 963.631 84.096 963.631 85.568V92H961.927V79.376H963.559V81.848ZM982.247 86.216H971.687C971.783 87.528 972.287 88.592 973.199 89.408C974.111 90.208 975.263 90.608 976.655 90.608C977.439 90.608 978.159 90.472 978.815 90.2C979.471 89.912 980.039 89.496 980.519 88.952L981.479 90.056C980.919 90.728 980.215 91.24 979.367 91.592C978.535 91.944 977.615 92.12 976.607 92.12C975.311 92.12 974.159 91.848 973.151 91.304C972.159 90.744 971.383 89.976 970.823 89C970.263 88.024 969.983 86.92 969.983 85.688C969.983 84.456 970.247 83.352 970.775 82.376C971.319 81.4 972.055 80.64 972.983 80.096C973.927 79.552 974.983 79.28 976.151 79.28C977.319 79.28 978.367 79.552 979.295 80.096C980.223 80.64 980.951 81.4 981.479 82.376C982.007 83.336 982.271 84.44 982.271 85.688L982.247 86.216ZM976.151 80.744C974.935 80.744 973.911 81.136 973.079 81.92C972.263 82.688 971.799 83.696 971.687 84.944H980.639C980.527 83.696 980.055 82.688 979.223 81.92C978.407 81.136 977.383 80.744 976.151 80.744ZM989.804 79.28C991.452 79.28 992.716 79.696 993.596 80.528C994.476 81.344 994.916 82.56 994.916 84.176V92H993.284V90.032C992.9 90.688 992.332 91.2 991.58 91.568C990.844 91.936 989.964 92.12 988.94 92.12C987.532 92.12 986.412 91.784 985.58 91.112C984.748 90.44 984.332 89.552 984.332 88.448C984.332 87.376 984.716 86.512 985.484 85.856C986.268 85.2 987.508 84.872 989.204 84.872H993.212V84.104C993.212 83.016 992.908 82.192 992.3 81.632C991.692 81.056 990.804 80.768 989.636 80.768C988.836 80.768 988.068 80.904 987.332 81.176C986.596 81.432 985.964 81.792 985.436 82.256L984.668 80.984C985.308 80.44 986.076 80.024 986.972 79.736C987.868 79.432 988.812 79.28 989.804 79.28ZM989.204 90.776C990.164 90.776 990.988 90.56 991.676 90.128C992.364 89.68 992.876 89.04 993.212 88.208V86.144H989.252C987.092 86.144 986.012 86.896 986.012 88.4C986.012 89.136 986.292 89.72 986.852 90.152C987.412 90.568 988.196 90.776 989.204 90.776ZM1006.19 91.232C1005.87 91.52 1005.47 91.744 1004.99 91.904C1004.53 92.048 1004.04 92.12 1003.53 92.12C1002.34 92.12 1001.43 91.8 1000.79 91.16C1000.15 90.52 999.832 89.616 999.832 88.448V80.816H997.576V79.376H999.832V76.616H1001.54V79.376H1005.38V80.816H1001.54V88.352C1001.54 89.104 1001.72 89.68 1002.09 90.08C1002.47 90.464 1003.02 90.656 1003.72 90.656C1004.07 90.656 1004.41 90.6 1004.73 90.488C1005.06 90.376 1005.35 90.216 1005.59 90.008L1006.19 91.232ZM1019.84 86.216H1009.28C1009.38 87.528 1009.88 88.592 1010.79 89.408C1011.7 90.208 1012.86 90.608 1014.25 90.608C1015.03 90.608 1015.75 90.472 1016.41 90.2C1017.06 89.912 1017.63 89.496 1018.11 88.952L1019.07 90.056C1018.51 90.728 1017.81 91.24 1016.96 91.592C1016.13 91.944 1015.21 92.12 1014.2 92.12C1012.9 92.12 1011.75 91.848 1010.74 91.304C1009.75 90.744 1008.98 89.976 1008.42 89C1007.86 88.024 1007.58 86.92 1007.58 85.688C1007.58 84.456 1007.84 83.352 1008.37 82.376C1008.91 81.4 1009.65 80.64 1010.58 80.096C1011.52 79.552 1012.58 79.28 1013.74 79.28C1014.91 79.28 1015.96 79.552 1016.89 80.096C1017.82 80.64 1018.54 81.4 1019.07 82.376C1019.6 83.336 1019.86 84.44 1019.86 85.688L1019.84 86.216ZM1013.74 80.744C1012.53 80.744 1011.5 81.136 1010.67 81.92C1009.86 82.688 1009.39 83.696 1009.28 84.944H1018.23C1018.12 83.696 1017.65 82.688 1016.82 81.92C1016 81.136 1014.98 80.744 1013.74 80.744ZM1036.26 75.2C1038.41 75.2 1040.09 75.712 1041.3 76.736C1042.52 77.76 1043.13 79.168 1043.13 80.96C1043.13 82.752 1042.52 84.16 1041.3 85.184C1040.09 86.192 1038.41 86.696 1036.26 86.696H1031.75V92H1029.97V75.2H1036.26ZM1036.21 85.136C1037.88 85.136 1039.15 84.776 1040.03 84.056C1040.91 83.32 1041.35 82.288 1041.35 80.96C1041.35 79.6 1040.91 78.56 1040.03 77.84C1039.15 77.104 1037.88 76.736 1036.21 76.736H1031.75V85.136H1036.21ZM1051.7 92.12C1050.48 92.12 1049.38 91.848 1048.41 91.304C1047.43 90.744 1046.66 89.976 1046.1 89C1045.54 88.024 1045.26 86.92 1045.26 85.688C1045.26 84.456 1045.54 83.352 1046.1 82.376C1046.66 81.4 1047.43 80.64 1048.41 80.096C1049.38 79.552 1050.48 79.28 1051.7 79.28C1052.91 79.28 1054.01 79.552 1054.98 80.096C1055.96 80.64 1056.72 81.4 1057.26 82.376C1057.82 83.352 1058.1 84.456 1058.1 85.688C1058.1 86.92 1057.82 88.024 1057.26 89C1056.72 89.976 1055.96 90.744 1054.98 91.304C1054.01 91.848 1052.91 92.12 1051.7 92.12ZM1051.7 90.608C1052.59 90.608 1053.39 90.408 1054.1 90.008C1054.82 89.592 1055.38 89.008 1055.78 88.256C1056.18 87.504 1056.38 86.648 1056.38 85.688C1056.38 84.728 1056.18 83.872 1055.78 83.12C1055.38 82.368 1054.82 81.792 1054.1 81.392C1053.39 80.976 1052.59 80.768 1051.7 80.768C1050.8 80.768 1049.99 80.976 1049.27 81.392C1048.57 81.792 1048.01 82.368 1047.59 83.12C1047.19 83.872 1046.99 84.728 1046.99 85.688C1046.99 86.648 1047.19 87.504 1047.59 88.256C1048.01 89.008 1048.57 89.592 1049.27 90.008C1049.99 90.408 1050.8 90.608 1051.7 90.608ZM1064.97 92.12C1063.94 92.12 1062.96 91.976 1062.02 91.688C1061.09 91.384 1060.36 91.008 1059.83 90.56L1060.6 89.216C1061.13 89.632 1061.79 89.976 1062.59 90.248C1063.39 90.504 1064.22 90.632 1065.09 90.632C1066.24 90.632 1067.09 90.456 1067.63 90.104C1068.19 89.736 1068.47 89.224 1068.47 88.568C1068.47 88.104 1068.32 87.744 1068.02 87.488C1067.71 87.216 1067.33 87.016 1066.86 86.888C1066.4 86.744 1065.78 86.608 1065.02 86.48C1063.99 86.288 1063.17 86.096 1062.54 85.904C1061.92 85.696 1061.38 85.352 1060.94 84.872C1060.5 84.392 1060.29 83.728 1060.29 82.88C1060.29 81.824 1060.73 80.96 1061.61 80.288C1062.49 79.616 1063.71 79.28 1065.28 79.28C1066.1 79.28 1066.91 79.392 1067.73 79.616C1068.54 79.824 1069.22 80.104 1069.74 80.456L1069 81.824C1067.96 81.104 1066.72 80.744 1065.28 80.744C1064.19 80.744 1063.37 80.936 1062.81 81.32C1062.26 81.704 1061.99 82.208 1061.99 82.832C1061.99 83.312 1062.14 83.696 1062.45 83.984C1062.77 84.272 1063.16 84.488 1063.62 84.632C1064.09 84.76 1064.73 84.896 1065.54 85.04C1066.55 85.232 1067.36 85.424 1067.97 85.616C1068.58 85.808 1069.1 86.136 1069.53 86.6C1069.96 87.064 1070.18 87.704 1070.18 88.52C1070.18 89.624 1069.71 90.504 1068.78 91.16C1067.87 91.8 1066.6 92.12 1064.97 92.12ZM1079.97 91.232C1079.65 91.52 1079.25 91.744 1078.77 91.904C1078.31 92.048 1077.82 92.12 1077.31 92.12C1076.13 92.12 1075.21 91.8 1074.57 91.16C1073.93 90.52 1073.61 89.616 1073.61 88.448V80.816H1071.36V79.376H1073.61V76.616H1075.32V79.376H1079.16V80.816H1075.32V88.352C1075.32 89.104 1075.5 89.68 1075.87 90.08C1076.25 90.464 1076.8 90.656 1077.5 90.656C1077.85 90.656 1078.19 90.6 1078.51 90.488C1078.85 90.376 1079.13 90.216 1079.37 90.008L1079.97 91.232Z" fill="black"/>
<path d="M1235.54 75.2H1237.32V90.464H1246.72V92H1235.54V75.2ZM1254.29 92.12C1253.07 92.12 1251.97 91.848 1251 91.304C1250.02 90.744 1249.25 89.976 1248.69 89C1248.13 88.024 1247.85 86.92 1247.85 85.688C1247.85 84.456 1248.13 83.352 1248.69 82.376C1249.25 81.4 1250.02 80.64 1251 80.096C1251.97 79.552 1253.07 79.28 1254.29 79.28C1255.5 79.28 1256.6 79.552 1257.57 80.096C1258.55 80.64 1259.31 81.4 1259.85 82.376C1260.41 83.352 1260.69 84.456 1260.69 85.688C1260.69 86.92 1260.41 88.024 1259.85 89C1259.31 89.976 1258.55 90.744 1257.57 91.304C1256.6 91.848 1255.5 92.12 1254.29 92.12ZM1254.29 90.608C1255.18 90.608 1255.98 90.408 1256.69 90.008C1257.41 89.592 1257.97 89.008 1258.37 88.256C1258.77 87.504 1258.97 86.648 1258.97 85.688C1258.97 84.728 1258.77 83.872 1258.37 83.12C1257.97 82.368 1257.41 81.792 1256.69 81.392C1255.98 80.976 1255.18 80.768 1254.29 80.768C1253.39 80.768 1252.58 80.976 1251.86 81.392C1251.16 81.792 1250.6 82.368 1250.18 83.12C1249.78 83.872 1249.58 84.728 1249.58 85.688C1249.58 86.648 1249.78 87.504 1250.18 88.256C1250.6 89.008 1251.16 89.592 1251.86 90.008C1252.58 90.408 1253.39 90.608 1254.29 90.608ZM1275.86 79.376V90.464C1275.86 92.608 1275.33 94.192 1274.28 95.216C1273.24 96.256 1271.66 96.776 1269.55 96.776C1268.38 96.776 1267.27 96.6 1266.21 96.248C1265.17 95.912 1264.32 95.44 1263.67 94.832L1264.53 93.536C1265.14 94.08 1265.88 94.504 1266.74 94.808C1267.62 95.112 1268.54 95.264 1269.5 95.264C1271.1 95.264 1272.28 94.888 1273.03 94.136C1273.78 93.4 1274.16 92.248 1274.16 90.68V89.072C1273.63 89.872 1272.93 90.48 1272.07 90.896C1271.22 91.312 1270.28 91.52 1269.24 91.52C1268.05 91.52 1266.97 91.264 1266 90.752C1265.04 90.224 1264.28 89.496 1263.72 88.568C1263.17 87.624 1262.9 86.56 1262.9 85.376C1262.9 84.192 1263.17 83.136 1263.72 82.208C1264.28 81.28 1265.04 80.56 1266 80.048C1266.96 79.536 1268.04 79.28 1269.24 79.28C1270.31 79.28 1271.28 79.496 1272.14 79.928C1273 80.36 1273.7 80.984 1274.23 81.8V79.376H1275.86ZM1269.4 90.008C1270.32 90.008 1271.14 89.816 1271.88 89.432C1272.61 89.032 1273.18 88.48 1273.58 87.776C1274 87.072 1274.2 86.272 1274.2 85.376C1274.2 84.48 1274 83.688 1273.58 83C1273.18 82.296 1272.61 81.752 1271.88 81.368C1271.16 80.968 1270.33 80.768 1269.4 80.768C1268.49 80.768 1267.67 80.96 1266.93 81.344C1266.21 81.728 1265.64 82.272 1265.23 82.976C1264.83 83.68 1264.63 84.48 1264.63 85.376C1264.63 86.272 1264.83 87.072 1265.23 87.776C1265.64 88.48 1266.21 89.032 1266.93 89.432C1267.67 89.816 1268.49 90.008 1269.4 90.008ZM1285.79 92.12C1284.57 92.12 1283.47 91.848 1282.5 91.304C1281.52 90.744 1280.75 89.976 1280.19 89C1279.63 88.024 1279.35 86.92 1279.35 85.688C1279.35 84.456 1279.63 83.352 1280.19 82.376C1280.75 81.4 1281.52 80.64 1282.5 80.096C1283.47 79.552 1284.57 79.28 1285.79 79.28C1287 79.28 1288.1 79.552 1289.07 80.096C1290.05 80.64 1290.81 81.4 1291.35 82.376C1291.91 83.352 1292.19 84.456 1292.19 85.688C1292.19 86.92 1291.91 88.024 1291.35 89C1290.81 89.976 1290.05 90.744 1289.07 91.304C1288.1 91.848 1287 92.12 1285.79 92.12ZM1285.79 90.608C1286.68 90.608 1287.48 90.408 1288.19 90.008C1288.91 89.592 1289.47 89.008 1289.87 88.256C1290.27 87.504 1290.47 86.648 1290.47 85.688C1290.47 84.728 1290.27 83.872 1289.87 83.12C1289.47 82.368 1288.91 81.792 1288.19 81.392C1287.48 80.976 1286.68 80.768 1285.79 80.768C1284.89 80.768 1284.08 80.976 1283.36 81.392C1282.66 81.792 1282.1 82.368 1281.68 83.12C1281.28 83.872 1281.08 84.728 1281.08 85.688C1281.08 86.648 1281.28 87.504 1281.68 88.256C1282.1 89.008 1282.66 89.592 1283.36 90.008C1284.08 90.408 1284.89 90.608 1285.79 90.608ZM1307.05 79.376V92H1305.42V89.696C1304.97 90.464 1304.35 91.064 1303.57 91.496C1302.78 91.912 1301.89 92.12 1300.88 92.12C1299.23 92.12 1297.93 91.664 1296.97 90.752C1296.02 89.824 1295.55 88.472 1295.55 86.696V79.376H1297.26V86.528C1297.26 87.856 1297.58 88.864 1298.24 89.552C1298.9 90.24 1299.83 90.584 1301.05 90.584C1302.38 90.584 1303.42 90.184 1304.19 89.384C1304.96 88.568 1305.34 87.44 1305.34 86V79.376H1307.05ZM1318.47 91.232C1318.15 91.52 1317.75 91.744 1317.27 91.904C1316.81 92.048 1316.32 92.12 1315.81 92.12C1314.62 92.12 1313.71 91.8 1313.07 91.16C1312.43 90.52 1312.11 89.616 1312.11 88.448V80.816H1309.85V79.376H1312.11V76.616H1313.81V79.376H1317.65V80.816H1313.81V88.352C1313.81 89.104 1314 89.68 1314.37 90.08C1314.75 90.464 1315.29 90.656 1316 90.656C1316.35 90.656 1316.69 90.6 1317.01 90.488C1317.34 90.376 1317.63 90.216 1317.87 90.008L1318.47 91.232Z" fill="black"/>
<path d="M1135.78 74.2C1137.92 74.2 1139.6 74.712 1140.82 75.736C1142.03 76.76 1142.64 78.168 1142.64 79.96C1142.64 81.752 1142.03 83.16 1140.82 84.184C1139.6 85.192 1137.92 85.696 1135.78 85.696H1131.27V91H1129.49V74.2H1135.78ZM1135.73 84.136C1137.39 84.136 1138.67 83.776 1139.55 83.056C1140.43 82.32 1140.87 81.288 1140.87 79.96C1140.87 78.6 1140.43 77.56 1139.55 76.84C1138.67 76.104 1137.39 75.736 1135.73 75.736H1131.27V84.136H1135.73ZM1147.43 80.848C1147.83 80 1148.42 79.36 1149.2 78.928C1150 78.496 1150.99 78.28 1152.15 78.28V79.936L1151.75 79.912C1150.42 79.912 1149.38 80.32 1148.63 81.136C1147.87 81.952 1147.5 83.096 1147.5 84.568V91H1145.79V78.376H1147.43V80.848ZM1160.28 91.12C1159.07 91.12 1157.97 90.848 1156.99 90.304C1156.02 89.744 1155.25 88.976 1154.69 88C1154.13 87.024 1153.85 85.92 1153.85 84.688C1153.85 83.456 1154.13 82.352 1154.69 81.376C1155.25 80.4 1156.02 79.64 1156.99 79.096C1157.97 78.552 1159.07 78.28 1160.28 78.28C1161.5 78.28 1162.59 78.552 1163.57 79.096C1164.55 79.64 1165.31 80.4 1165.85 81.376C1166.41 82.352 1166.69 83.456 1166.69 84.688C1166.69 85.92 1166.41 87.024 1165.85 88C1165.31 88.976 1164.55 89.744 1163.57 90.304C1162.59 90.848 1161.5 91.12 1160.28 91.12ZM1160.28 89.608C1161.18 89.608 1161.98 89.408 1162.68 89.008C1163.4 88.592 1163.96 88.008 1164.36 87.256C1164.76 86.504 1164.96 85.648 1164.96 84.688C1164.96 83.728 1164.76 82.872 1164.36 82.12C1163.96 81.368 1163.4 80.792 1162.68 80.392C1161.98 79.976 1161.18 79.768 1160.28 79.768C1159.39 79.768 1158.58 79.976 1157.86 80.392C1157.15 80.792 1156.59 81.368 1156.18 82.12C1155.78 82.872 1155.58 83.728 1155.58 84.688C1155.58 85.648 1155.78 86.504 1156.18 87.256C1156.59 88.008 1157.15 88.592 1157.86 89.008C1158.58 89.408 1159.39 89.608 1160.28 89.608ZM1174.34 74.512C1173.61 74.512 1173.05 74.712 1172.66 75.112C1172.3 75.512 1172.11 76.104 1172.11 76.888V78.376H1176V79.816H1172.16V91H1170.46V79.816H1168.2V78.376H1170.46V76.816C1170.46 75.664 1170.78 74.752 1171.44 74.08C1172.11 73.408 1173.06 73.072 1174.27 73.072C1174.75 73.072 1175.22 73.144 1175.66 73.288C1176.11 73.416 1176.49 73.608 1176.79 73.864L1176.22 75.136C1175.72 74.72 1175.1 74.512 1174.34 74.512ZM1180.22 78.376H1181.93V91H1180.22V78.376ZM1181.09 75.616C1180.74 75.616 1180.44 75.496 1180.2 75.256C1179.96 75.016 1179.84 74.728 1179.84 74.392C1179.84 74.072 1179.96 73.792 1180.2 73.552C1180.44 73.312 1180.74 73.192 1181.09 73.192C1181.44 73.192 1181.74 73.312 1181.98 73.552C1182.22 73.776 1182.34 74.048 1182.34 74.368C1182.34 74.72 1182.22 75.016 1181.98 75.256C1181.74 75.496 1181.44 75.616 1181.09 75.616ZM1186.69 73.192H1188.4V91H1186.69V73.192ZM1204.13 85.216H1193.57C1193.67 86.528 1194.17 87.592 1195.08 88.408C1195.99 89.208 1197.15 89.608 1198.54 89.608C1199.32 89.608 1200.04 89.472 1200.7 89.2C1201.35 88.912 1201.92 88.496 1202.4 87.952L1203.36 89.056C1202.8 89.728 1202.1 90.24 1201.25 90.592C1200.42 90.944 1199.5 91.12 1198.49 91.12C1197.19 91.12 1196.04 90.848 1195.03 90.304C1194.04 89.744 1193.27 88.976 1192.71 88C1192.15 87.024 1191.87 85.92 1191.87 84.688C1191.87 83.456 1192.13 82.352 1192.66 81.376C1193.2 80.4 1193.94 79.64 1194.87 79.096C1195.81 78.552 1196.87 78.28 1198.03 78.28C1199.2 78.28 1200.25 78.552 1201.18 79.096C1202.11 79.64 1202.83 80.4 1203.36 81.376C1203.89 82.336 1204.15 83.44 1204.15 84.688L1204.13 85.216ZM1198.03 79.744C1196.82 79.744 1195.79 80.136 1194.96 80.92C1194.15 81.688 1193.68 82.696 1193.57 83.944H1202.52C1202.41 82.696 1201.94 81.688 1201.11 80.92C1200.29 80.136 1199.27 79.744 1198.03 79.744Z" fill="black"/>
<path d="M836.499 75.2V92H834.747V84.248H824.235V92H822.459V75.2H824.235V82.688H834.747V75.2H836.499ZM846.782 92.12C845.566 92.12 844.47 91.848 843.494 91.304C842.518 90.744 841.75 89.976 841.19 89C840.63 88.024 840.35 86.92 840.35 85.688C840.35 84.456 840.63 83.352 841.19 82.376C841.75 81.4 842.518 80.64 843.494 80.096C844.47 79.552 845.566 79.28 846.782 79.28C847.998 79.28 849.094 79.552 850.07 80.096C851.046 80.64 851.806 81.4 852.35 82.376C852.91 83.352 853.19 84.456 853.19 85.688C853.19 86.92 852.91 88.024 852.35 89C851.806 89.976 851.046 90.744 850.07 91.304C849.094 91.848 847.998 92.12 846.782 92.12ZM846.782 90.608C847.678 90.608 848.478 90.408 849.182 90.008C849.902 89.592 850.462 89.008 850.862 88.256C851.262 87.504 851.462 86.648 851.462 85.688C851.462 84.728 851.262 83.872 850.862 83.12C850.462 82.368 849.902 81.792 849.182 81.392C848.478 80.976 847.678 80.768 846.782 80.768C845.886 80.768 845.078 80.976 844.358 81.392C843.654 81.792 843.094 82.368 842.678 83.12C842.278 83.872 842.078 84.728 842.078 85.688C842.078 86.648 842.278 87.504 842.678 88.256C843.094 89.008 843.654 89.592 844.358 90.008C845.078 90.408 845.886 90.608 846.782 90.608ZM872.413 79.28C873.997 79.28 875.237 79.736 876.133 80.648C877.045 81.56 877.501 82.904 877.501 84.68V92H875.797V84.848C875.797 83.536 875.477 82.536 874.837 81.848C874.213 81.16 873.325 80.816 872.173 80.816C870.861 80.816 869.829 81.224 869.077 82.04C868.325 82.84 867.949 83.952 867.949 85.376V92H866.245V84.848C866.245 83.536 865.925 82.536 865.285 81.848C864.661 81.16 863.765 80.816 862.597 80.816C861.301 80.816 860.269 81.224 859.501 82.04C858.749 82.84 858.373 83.952 858.373 85.376V92H856.669V79.376H858.301V81.68C858.749 80.912 859.373 80.32 860.173 79.904C860.973 79.488 861.893 79.28 862.933 79.28C863.989 79.28 864.901 79.504 865.669 79.952C866.453 80.4 867.037 81.064 867.421 81.944C867.885 81.112 868.549 80.464 869.413 80C870.293 79.52 871.293 79.28 872.413 79.28ZM893.161 86.216H882.601C882.697 87.528 883.201 88.592 884.113 89.408C885.025 90.208 886.177 90.608 887.569 90.608C888.353 90.608 889.073 90.472 889.729 90.2C890.385 89.912 890.953 89.496 891.433 88.952L892.393 90.056C891.833 90.728 891.129 91.24 890.281 91.592C889.449 91.944 888.529 92.12 887.521 92.12C886.225 92.12 885.073 91.848 884.065 91.304C883.073 90.744 882.297 89.976 881.737 89C881.177 88.024 880.897 86.92 880.897 85.688C880.897 84.456 881.161 83.352 881.689 82.376C882.233 81.4 882.969 80.64 883.897 80.096C884.841 79.552 885.897 79.28 887.065 79.28C888.233 79.28 889.281 79.552 890.209 80.096C891.137 80.64 891.865 81.4 892.393 82.376C892.921 83.336 893.185 84.44 893.185 85.688L893.161 86.216ZM887.065 80.744C885.849 80.744 884.825 81.136 883.993 81.92C883.177 82.688 882.713 83.696 882.601 84.944H891.553C891.441 83.696 890.969 82.688 890.137 81.92C889.321 81.136 888.297 80.744 887.065 80.744Z" fill="black"/>
<path d="M622.63 285.928V289H598.87V255.4H621.91V258.472H602.422V270.424H619.798V273.448H602.422V285.928H622.63ZM652.925 253.384V289H649.661V284.008C648.637 285.704 647.277 287 645.581 287.896C643.917 288.792 642.029 289.24 639.917 289.24C637.549 289.24 635.405 288.696 633.485 287.608C631.565 286.52 630.061 285 628.973 283.048C627.885 281.096 627.341 278.872 627.341 276.376C627.341 273.88 627.885 271.656 628.973 269.704C630.061 267.752 631.565 266.248 633.485 265.192C635.405 264.104 637.549 263.56 639.917 263.56C641.965 263.56 643.805 263.992 645.437 264.856C647.101 265.688 648.461 266.92 649.517 268.552V253.384H652.925ZM640.205 286.216C641.965 286.216 643.549 285.816 644.957 285.016C646.397 284.184 647.517 283.016 648.317 281.512C649.149 280.008 649.565 278.296 649.565 276.376C649.565 274.456 649.149 272.744 648.317 271.24C647.517 269.736 646.397 268.584 644.957 267.784C643.549 266.952 641.965 266.536 640.205 266.536C638.413 266.536 636.797 266.952 635.357 267.784C633.949 268.584 632.829 269.736 631.997 271.24C631.197 272.744 630.797 274.456 630.797 276.376C630.797 278.296 631.197 280.008 631.997 281.512C632.829 283.016 633.949 284.184 635.357 285.016C636.797 285.816 638.413 286.216 640.205 286.216ZM662.416 263.752H665.824V289H662.416V263.752ZM664.144 258.232C663.44 258.232 662.848 257.992 662.368 257.512C661.888 257.032 661.648 256.456 661.648 255.784C661.648 255.144 661.888 254.584 662.368 254.104C662.848 253.624 663.44 253.384 664.144 253.384C664.848 253.384 665.44 253.624 665.92 254.104C666.4 254.552 666.64 255.096 666.64 255.736C666.64 256.44 666.4 257.032 665.92 257.512C665.44 257.992 664.848 258.232 664.144 258.232ZM688.603 287.464C687.963 288.04 687.163 288.488 686.203 288.808C685.275 289.096 684.299 289.24 683.275 289.24C680.907 289.24 679.083 288.6 677.803 287.32C676.523 286.04 675.883 284.232 675.883 281.896V266.632H671.371V263.752H675.883V258.232H679.291V263.752H686.971V266.632H679.291V281.704C679.291 283.208 679.659 284.36 680.395 285.16C681.163 285.928 682.251 286.312 683.659 286.312C684.363 286.312 685.035 286.2 685.675 285.976C686.347 285.752 686.923 285.432 687.403 285.016L688.603 287.464ZM720.665 255.4C724.953 255.4 728.313 256.424 730.745 258.472C733.177 260.52 734.393 263.336 734.393 266.92C734.393 270.504 733.177 273.32 730.745 275.368C728.313 277.384 724.953 278.392 720.665 278.392H711.641V289H708.089V255.4H720.665ZM720.569 275.272C723.897 275.272 726.441 274.552 728.201 273.112C729.961 271.64 730.841 269.576 730.841 266.92C730.841 264.2 729.961 262.12 728.201 260.68C726.441 259.208 723.897 258.472 720.569 258.472H711.641V275.272H720.569ZM743.961 268.696C744.761 267 745.945 265.72 747.513 264.856C749.113 263.992 751.081 263.56 753.417 263.56V266.872L752.601 266.824C749.945 266.824 747.865 267.64 746.361 269.272C744.857 270.904 744.105 273.192 744.105 276.136V289H740.697V263.752H743.961V268.696ZM769.674 289.24C767.242 289.24 765.05 288.696 763.098 287.608C761.146 286.488 759.61 284.952 758.49 283C757.37 281.048 756.81 278.84 756.81 276.376C756.81 273.912 757.37 271.704 758.49 269.752C759.61 267.8 761.146 266.28 763.098 265.192C765.05 264.104 767.242 263.56 769.674 263.56C772.106 263.56 774.298 264.104 776.25 265.192C778.202 266.28 779.722 267.8 780.81 269.752C781.93 271.704 782.49 273.912 782.49 276.376C782.49 278.84 781.93 281.048 780.81 283C779.722 284.952 778.202 286.488 776.25 287.608C774.298 288.696 772.106 289.24 769.674 289.24ZM769.674 286.216C771.466 286.216 773.066 285.816 774.474 285.016C775.914 284.184 777.034 283.016 777.834 281.512C778.634 280.008 779.034 278.296 779.034 276.376C779.034 274.456 778.634 272.744 777.834 271.24C777.034 269.736 775.914 268.584 774.474 267.784C773.066 266.952 771.466 266.536 769.674 266.536C767.882 266.536 766.266 266.952 764.826 267.784C763.418 268.584 762.298 269.736 761.466 271.24C760.666 272.744 760.266 274.456 760.266 276.376C760.266 278.296 760.666 280.008 761.466 281.512C762.298 283.016 763.418 284.184 764.826 285.016C766.266 285.816 767.882 286.216 769.674 286.216ZM797.799 256.024C796.327 256.024 795.207 256.424 794.439 257.224C793.703 258.024 793.335 259.208 793.335 260.776V263.752H801.111V266.632H793.431V289H790.023V266.632H785.511V263.752H790.023V260.632C790.023 258.328 790.679 256.504 791.991 255.16C793.335 253.816 795.223 253.144 797.655 253.144C798.615 253.144 799.543 253.288 800.439 253.576C801.335 253.832 802.087 254.216 802.695 254.728L801.543 257.272C800.551 256.44 799.303 256.024 797.799 256.024ZM809.559 263.752H812.967V289H809.559V263.752ZM811.287 258.232C810.583 258.232 809.991 257.992 809.511 257.512C809.031 257.032 808.791 256.456 808.791 255.784C808.791 255.144 809.031 254.584 809.511 254.104C809.991 253.624 810.583 253.384 811.287 253.384C811.991 253.384 812.583 253.624 813.063 254.104C813.543 254.552 813.783 255.096 813.783 255.736C813.783 256.44 813.543 257.032 813.063 257.512C812.583 257.992 811.991 258.232 811.287 258.232ZM822.494 253.384H825.902V289H822.494V253.384ZM857.369 277.432H836.249C836.441 280.056 837.449 282.184 839.273 283.816C841.097 285.416 843.401 286.216 846.185 286.216C847.753 286.216 849.193 285.944 850.505 285.4C851.817 284.824 852.953 283.992 853.913 282.904L855.833 285.112C854.713 286.456 853.305 287.48 851.609 288.184C849.945 288.888 848.105 289.24 846.089 289.24C843.497 289.24 841.193 288.696 839.177 287.608C837.193 286.488 835.641 284.952 834.521 283C833.401 281.048 832.841 278.84 832.841 276.376C832.841 273.912 833.369 271.704 834.425 269.752C835.513 267.8 836.985 266.28 838.841 265.192C840.729 264.104 842.841 263.56 845.177 263.56C847.513 263.56 849.609 264.104 851.465 265.192C853.321 266.28 854.777 267.8 855.833 269.752C856.889 271.672 857.417 273.88 857.417 276.376L857.369 277.432ZM845.177 266.488C842.745 266.488 840.697 267.272 839.033 268.84C837.401 270.376 836.473 272.392 836.249 274.888H854.153C853.929 272.392 852.985 270.376 851.321 268.84C849.689 267.272 847.641 266.488 845.177 266.488Z" fill="black"/>
<rect width="261.365" height="31.6147" fill="black" fill-opacity="0" transform="translate(596 479)"/>
<path d="M677.874 485.2C680.018 485.2 681.698 485.712 682.914 486.736C684.13 487.76 684.738 489.168 684.738 490.96C684.738 492.752 684.13 494.16 682.914 495.184C681.698 496.192 680.018 496.696 677.874 496.696H673.362V502H671.586V485.2H677.874ZM677.826 495.136C679.49 495.136 680.762 494.776 681.642 494.056C682.522 493.32 682.962 492.288 682.962 490.96C682.962 489.6 682.522 488.56 681.642 487.84C680.762 487.104 679.49 486.736 677.826 486.736H673.362V495.136H677.826ZM692.517 489.28C694.165 489.28 695.429 489.696 696.309 490.528C697.189 491.344 697.629 492.56 697.629 494.176V502H695.997V500.032C695.613 500.688 695.045 501.2 694.293 501.568C693.557 501.936 692.677 502.12 691.653 502.12C690.245 502.12 689.125 501.784 688.293 501.112C687.461 500.44 687.045 499.552 687.045 498.448C687.045 497.376 687.429 496.512 688.197 495.856C688.981 495.2 690.221 494.872 691.917 494.872H695.925V494.104C695.925 493.016 695.621 492.192 695.013 491.632C694.405 491.056 693.517 490.768 692.349 490.768C691.549 490.768 690.781 490.904 690.045 491.176C689.309 491.432 688.677 491.792 688.149 492.256L687.381 490.984C688.021 490.44 688.789 490.024 689.685 489.736C690.581 489.432 691.525 489.28 692.517 489.28ZM691.917 500.776C692.877 500.776 693.701 500.56 694.389 500.128C695.077 499.68 695.589 499.04 695.925 498.208V496.144H691.965C689.805 496.144 688.725 496.896 688.725 498.4C688.725 499.136 689.005 499.72 689.565 500.152C690.125 500.568 690.909 500.776 691.917 500.776ZM705.642 502.12C704.618 502.12 703.634 501.976 702.69 501.688C701.762 501.384 701.034 501.008 700.506 500.56L701.274 499.216C701.802 499.632 702.466 499.976 703.266 500.248C704.066 500.504 704.898 500.632 705.762 500.632C706.914 500.632 707.762 500.456 708.306 500.104C708.866 499.736 709.146 499.224 709.146 498.568C709.146 498.104 708.994 497.744 708.69 497.488C708.386 497.216 708.002 497.016 707.538 496.888C707.074 496.744 706.458 496.608 705.69 496.48C704.666 496.288 703.842 496.096 703.218 495.904C702.594 495.696 702.058 495.352 701.61 494.872C701.178 494.392 700.962 493.728 700.962 492.88C700.962 491.824 701.402 490.96 702.282 490.288C703.162 489.616 704.386 489.28 705.954 489.28C706.77 489.28 707.586 489.392 708.402 489.616C709.218 489.824 709.89 490.104 710.418 490.456L709.674 491.824C708.634 491.104 707.394 490.744 705.954 490.744C704.866 490.744 704.042 490.936 703.482 491.32C702.938 491.704 702.666 492.208 702.666 492.832C702.666 493.312 702.818 493.696 703.122 493.984C703.442 494.272 703.834 494.488 704.298 494.632C704.762 494.76 705.402 494.896 706.218 495.04C707.226 495.232 708.034 495.424 708.642 495.616C709.25 495.808 709.77 496.136 710.202 496.6C710.634 497.064 710.85 497.704 710.85 498.52C710.85 499.624 710.386 500.504 709.458 501.16C708.546 501.8 707.274 502.12 705.642 502.12ZM717.384 502.12C716.36 502.12 715.376 501.976 714.432 501.688C713.504 501.384 712.776 501.008 712.248 500.56L713.016 499.216C713.544 499.632 714.208 499.976 715.008 500.248C715.808 500.504 716.64 500.632 717.504 500.632C718.656 500.632 719.504 500.456 720.048 500.104C720.608 499.736 720.888 499.224 720.888 498.568C720.888 498.104 720.736 497.744 720.432 497.488C720.128 497.216 719.744 497.016 719.28 496.888C718.816 496.744 718.2 496.608 717.432 496.48C716.408 496.288 715.584 496.096 714.96 495.904C714.336 495.696 713.8 495.352 713.352 494.872C712.92 494.392 712.704 493.728 712.704 492.88C712.704 491.824 713.144 490.96 714.024 490.288C714.904 489.616 716.128 489.28 717.696 489.28C718.512 489.28 719.328 489.392 720.144 489.616C720.96 489.824 721.632 490.104 722.16 490.456L721.416 491.824C720.376 491.104 719.136 490.744 717.696 490.744C716.608 490.744 715.784 490.936 715.224 491.32C714.68 491.704 714.408 492.208 714.408 492.832C714.408 493.312 714.56 493.696 714.864 493.984C715.184 494.272 715.576 494.488 716.04 494.632C716.504 494.76 717.144 494.896 717.96 495.04C718.968 495.232 719.776 495.424 720.384 495.616C720.992 495.808 721.512 496.136 721.944 496.6C722.376 497.064 722.592 497.704 722.592 498.52C722.592 499.624 722.128 500.504 721.2 501.16C720.288 501.8 719.016 502.12 717.384 502.12ZM744.036 489.376L739.26 502H737.652L733.668 491.656L729.684 502H728.076L723.324 489.376H724.956L728.916 500.104L732.972 489.376H734.436L738.468 500.104L742.476 489.376H744.036ZM751.41 502.12C750.194 502.12 749.098 501.848 748.122 501.304C747.146 500.744 746.378 499.976 745.818 499C745.258 498.024 744.978 496.92 744.978 495.688C744.978 494.456 745.258 493.352 745.818 492.376C746.378 491.4 747.146 490.64 748.122 490.096C749.098 489.552 750.194 489.28 751.41 489.28C752.626 489.28 753.722 489.552 754.698 490.096C755.674 490.64 756.434 491.4 756.978 492.376C757.538 493.352 757.818 494.456 757.818 495.688C757.818 496.92 757.538 498.024 756.978 499C756.434 499.976 755.674 500.744 754.698 501.304C753.722 501.848 752.626 502.12 751.41 502.12ZM751.41 500.608C752.306 500.608 753.106 500.408 753.81 500.008C754.53 499.592 755.09 499.008 755.49 498.256C755.89 497.504 756.09 496.648 756.09 495.688C756.09 494.728 755.89 493.872 755.49 493.12C755.09 492.368 754.53 491.792 753.81 491.392C753.106 490.976 752.306 490.768 751.41 490.768C750.514 490.768 749.706 490.976 748.986 491.392C748.282 491.792 747.722 492.368 747.306 493.12C746.906 493.872 746.706 494.728 746.706 495.688C746.706 496.648 746.906 497.504 747.306 498.256C747.722 499.008 748.282 499.592 748.986 500.008C749.706 500.408 750.514 500.608 751.41 500.608ZM762.929 491.848C763.329 491 763.921 490.36 764.705 489.928C765.505 489.496 766.489 489.28 767.657 489.28V490.936L767.249 490.912C765.921 490.912 764.881 491.32 764.129 492.136C763.377 492.952 763.001 494.096 763.001 495.568V502H761.297V489.376H762.929V491.848ZM782.145 484.192V502H780.513V499.504C780.001 500.352 779.321 501 778.473 501.448C777.641 501.896 776.697 502.12 775.641 502.12C774.457 502.12 773.385 501.848 772.425 501.304C771.465 500.76 770.713 500 770.169 499.024C769.625 498.048 769.353 496.936 769.353 495.688C769.353 494.44 769.625 493.328 770.169 492.352C770.713 491.376 771.465 490.624 772.425 490.096C773.385 489.552 774.457 489.28 775.641 489.28C776.665 489.28 777.585 489.496 778.401 489.928C779.233 490.344 779.913 490.96 780.441 491.776V484.192H782.145ZM775.785 500.608C776.665 500.608 777.457 500.408 778.161 500.008C778.881 499.592 779.441 499.008 779.841 498.256C780.257 497.504 780.465 496.648 780.465 495.688C780.465 494.728 780.257 493.872 779.841 493.12C779.441 492.368 778.881 491.792 778.161 491.392C777.457 490.976 776.665 490.768 775.785 490.768C774.889 490.768 774.081 490.976 773.361 491.392C772.657 491.792 772.097 492.368 771.681 493.12C771.281 493.872 771.081 494.728 771.081 495.688C771.081 496.648 771.281 497.504 771.681 498.256C772.097 499.008 772.657 499.592 773.361 500.008C774.081 500.408 774.889 500.608 775.785 500.608Z" fill="black"/>
<rect x="553" y="516" width="346" height="44" fill="#C4C4C4"/>
<rect x="553" y="602" width="346" height="44" fill="#C4C4C4"/>
<path d="M594.032 571.2C596.176 571.2 597.856 571.712 599.072 572.736C600.288 573.76 600.896 575.168 600.896 576.96C600.896 578.752 600.288 580.16 599.072 581.184C597.856 582.192 596.176 582.696 594.032 582.696H589.52V588H587.744V571.2H594.032ZM593.984 581.136C595.648 581.136 596.92 580.776 597.8 580.056C598.68 579.32 599.12 578.288 599.12 576.96C599.12 575.6 598.68 574.56 597.8 573.84C596.92 573.104 595.648 572.736 593.984 572.736H589.52V581.136H593.984ZM608.675 575.28C610.323 575.28 611.587 575.696 612.467 576.528C613.347 577.344 613.787 578.56 613.787 580.176V588H612.155V586.032C611.771 586.688 611.203 587.2 610.451 587.568C609.715 587.936 608.835 588.12 607.811 588.12C606.403 588.12 605.283 587.784 604.451 587.112C603.619 586.44 603.203 585.552 603.203 584.448C603.203 583.376 603.587 582.512 604.355 581.856C605.139 581.2 606.379 580.872 608.075 580.872H612.083V580.104C612.083 579.016 611.779 578.192 611.171 577.632C610.563 577.056 609.675 576.768 608.507 576.768C607.707 576.768 606.939 576.904 606.203 577.176C605.467 577.432 604.835 577.792 604.307 578.256L603.539 576.984C604.179 576.44 604.947 576.024 605.843 575.736C606.739 575.432 607.683 575.28 608.675 575.28ZM608.075 586.776C609.035 586.776 609.859 586.56 610.547 586.128C611.235 585.68 611.747 585.04 612.083 584.208V582.144H608.123C605.963 582.144 604.883 582.896 604.883 584.4C604.883 585.136 605.163 585.72 605.723 586.152C606.283 586.568 607.067 586.776 608.075 586.776ZM621.799 588.12C620.775 588.12 619.791 587.976 618.847 587.688C617.919 587.384 617.191 587.008 616.663 586.56L617.431 585.216C617.959 585.632 618.623 585.976 619.423 586.248C620.223 586.504 621.055 586.632 621.919 586.632C623.071 586.632 623.919 586.456 624.463 586.104C625.023 585.736 625.303 585.224 625.303 584.568C625.303 584.104 625.151 583.744 624.847 583.488C624.543 583.216 624.159 583.016 623.695 582.888C623.231 582.744 622.615 582.608 621.847 582.48C620.823 582.288 619.999 582.096 619.375 581.904C618.751 581.696 618.215 581.352 617.767 580.872C617.335 580.392 617.119 579.728 617.119 578.88C617.119 577.824 617.559 576.96 618.439 576.288C619.319 575.616 620.543 575.28 622.111 575.28C622.927 575.28 623.743 575.392 624.559 575.616C625.375 575.824 626.047 576.104 626.575 576.456L625.831 577.824C624.791 577.104 623.551 576.744 622.111 576.744C621.023 576.744 620.199 576.936 619.639 577.32C619.095 577.704 618.823 578.208 618.823 578.832C618.823 579.312 618.975 579.696 619.279 579.984C619.599 580.272 619.991 580.488 620.455 580.632C620.919 580.76 621.559 580.896 622.375 581.04C623.383 581.232 624.191 581.424 624.799 581.616C625.407 581.808 625.927 582.136 626.359 582.6C626.791 583.064 627.007 583.704 627.007 584.52C627.007 585.624 626.543 586.504 625.615 587.16C624.703 587.8 623.431 588.12 621.799 588.12ZM633.541 588.12C632.517 588.12 631.533 587.976 630.589 587.688C629.661 587.384 628.933 587.008 628.405 586.56L629.173 585.216C629.701 585.632 630.365 585.976 631.165 586.248C631.965 586.504 632.797 586.632 633.661 586.632C634.813 586.632 635.661 586.456 636.205 586.104C636.765 585.736 637.045 585.224 637.045 584.568C637.045 584.104 636.893 583.744 636.589 583.488C636.285 583.216 635.901 583.016 635.437 582.888C634.973 582.744 634.357 582.608 633.589 582.48C632.565 582.288 631.741 582.096 631.117 581.904C630.493 581.696 629.957 581.352 629.509 580.872C629.077 580.392 628.861 579.728 628.861 578.88C628.861 577.824 629.301 576.96 630.181 576.288C631.061 575.616 632.285 575.28 633.853 575.28C634.669 575.28 635.485 575.392 636.301 575.616C637.117 575.824 637.789 576.104 638.317 576.456L637.573 577.824C636.533 577.104 635.293 576.744 633.853 576.744C632.765 576.744 631.941 576.936 631.381 577.32C630.837 577.704 630.565 578.208 630.565 578.832C630.565 579.312 630.717 579.696 631.021 579.984C631.341 580.272 631.733 580.488 632.197 580.632C632.661 580.76 633.301 580.896 634.117 581.04C635.125 581.232 635.933 581.424 636.541 581.616C637.149 581.808 637.669 582.136 638.101 582.6C638.533 583.064 638.749 583.704 638.749 584.52C638.749 585.624 638.285 586.504 637.357 587.16C636.445 587.8 635.173 588.12 633.541 588.12ZM660.193 575.376L655.417 588H653.809L649.825 577.656L645.841 588H644.233L639.481 575.376H641.113L645.073 586.104L649.129 575.376H650.593L654.625 586.104L658.633 575.376H660.193ZM667.567 588.12C666.351 588.12 665.255 587.848 664.279 587.304C663.303 586.744 662.535 585.976 661.975 585C661.415 584.024 661.135 582.92 661.135 581.688C661.135 580.456 661.415 579.352 661.975 578.376C662.535 577.4 663.303 576.64 664.279 576.096C665.255 575.552 666.351 575.28 667.567 575.28C668.783 575.28 669.879 575.552 670.855 576.096C671.831 576.64 672.591 577.4 673.135 578.376C673.695 579.352 673.975 580.456 673.975 581.688C673.975 582.92 673.695 584.024 673.135 585C672.591 585.976 671.831 586.744 670.855 587.304C669.879 587.848 668.783 588.12 667.567 588.12ZM667.567 586.608C668.463 586.608 669.263 586.408 669.967 586.008C670.687 585.592 671.247 585.008 671.647 584.256C672.047 583.504 672.247 582.648 672.247 581.688C672.247 580.728 672.047 579.872 671.647 579.12C671.247 578.368 670.687 577.792 669.967 577.392C669.263 576.976 668.463 576.768 667.567 576.768C666.671 576.768 665.863 576.976 665.143 577.392C664.439 577.792 663.879 578.368 663.463 579.12C663.063 579.872 662.863 580.728 662.863 581.688C662.863 582.648 663.063 583.504 663.463 584.256C663.879 585.008 664.439 585.592 665.143 586.008C665.863 586.408 666.671 586.608 667.567 586.608ZM679.086 577.848C679.486 577 680.078 576.36 680.862 575.928C681.662 575.496 682.646 575.28 683.814 575.28V576.936L683.406 576.912C682.078 576.912 681.038 577.32 680.286 578.136C679.534 578.952 679.158 580.096 679.158 581.568V588H677.454V575.376H679.086V577.848ZM698.302 570.192V588H696.67V585.504C696.158 586.352 695.478 587 694.63 587.448C693.798 587.896 692.854 588.12 691.798 588.12C690.614 588.12 689.542 587.848 688.582 587.304C687.622 586.76 686.87 586 686.326 585.024C685.782 584.048 685.51 582.936 685.51 581.688C685.51 580.44 685.782 579.328 686.326 578.352C686.87 577.376 687.622 576.624 688.582 576.096C689.542 575.552 690.614 575.28 691.798 575.28C692.822 575.28 693.742 575.496 694.558 575.928C695.39 576.344 696.07 576.96 696.598 577.776V570.192H698.302ZM691.942 586.608C692.822 586.608 693.614 586.408 694.318 586.008C695.038 585.592 695.598 585.008 695.998 584.256C696.414 583.504 696.622 582.648 696.622 581.688C696.622 580.728 696.414 579.872 695.998 579.12C695.598 578.368 695.038 577.792 694.318 577.392C693.614 576.976 692.822 576.768 691.942 576.768C691.046 576.768 690.238 576.976 689.518 577.392C688.814 577.792 688.254 578.368 687.838 579.12C687.438 579.872 687.238 580.728 687.238 581.688C687.238 582.648 687.438 583.504 687.838 584.256C688.254 585.008 688.814 585.592 689.518 586.008C690.238 586.408 691.046 586.608 691.942 586.608ZM716.985 588.144C715.321 588.144 713.817 587.776 712.473 587.04C711.145 586.304 710.097 585.288 709.329 583.992C708.577 582.68 708.201 581.216 708.201 579.6C708.201 577.984 708.577 576.528 709.329 575.232C710.097 573.92 711.153 572.896 712.497 572.16C713.841 571.424 715.345 571.056 717.009 571.056C718.257 571.056 719.409 571.264 720.465 571.68C721.521 572.096 722.417 572.704 723.153 573.504L722.025 574.632C720.713 573.304 719.057 572.64 717.057 572.64C715.729 572.64 714.521 572.944 713.433 573.552C712.345 574.16 711.489 574.992 710.865 576.048C710.257 577.104 709.953 578.288 709.953 579.6C709.953 580.912 710.257 582.096 710.865 583.152C711.489 584.208 712.345 585.04 713.433 585.648C714.521 586.256 715.729 586.56 717.057 586.56C719.073 586.56 720.729 585.888 722.025 584.544L723.153 585.672C722.417 586.472 721.513 587.088 720.441 587.52C719.385 587.936 718.233 588.144 716.985 588.144ZM731.177 588.12C729.961 588.12 728.865 587.848 727.889 587.304C726.913 586.744 726.145 585.976 725.585 585C725.025 584.024 724.745 582.92 724.745 581.688C724.745 580.456 725.025 579.352 725.585 578.376C726.145 577.4 726.913 576.64 727.889 576.096C728.865 575.552 729.961 575.28 731.177 575.28C732.393 575.28 733.489 575.552 734.465 576.096C735.441 576.64 736.201 577.4 736.745 578.376C737.305 579.352 737.585 580.456 737.585 581.688C737.585 582.92 737.305 584.024 736.745 585C736.201 585.976 735.441 586.744 734.465 587.304C733.489 587.848 732.393 588.12 731.177 588.12ZM731.177 586.608C732.073 586.608 732.873 586.408 733.577 586.008C734.297 585.592 734.857 585.008 735.257 584.256C735.657 583.504 735.857 582.648 735.857 581.688C735.857 580.728 735.657 579.872 735.257 579.12C734.857 578.368 734.297 577.792 733.577 577.392C732.873 576.976 732.073 576.768 731.177 576.768C730.281 576.768 729.473 576.976 728.753 577.392C728.049 577.792 727.489 578.368 727.073 579.12C726.673 579.872 726.473 580.728 726.473 581.688C726.473 582.648 726.673 583.504 727.073 584.256C727.489 585.008 728.049 585.592 728.753 586.008C729.473 586.408 730.281 586.608 731.177 586.608ZM747.496 575.28C749.08 575.28 750.336 575.744 751.264 576.672C752.208 577.584 752.68 578.92 752.68 580.68V588H750.976V580.848C750.976 579.536 750.648 578.536 749.992 577.848C749.336 577.16 748.4 576.816 747.184 576.816C745.824 576.816 744.744 577.224 743.944 578.04C743.16 578.84 742.768 579.952 742.768 581.376V588H741.064V575.376H742.696V577.704C743.16 576.936 743.8 576.344 744.616 575.928C745.448 575.496 746.408 575.28 747.496 575.28ZM761.482 571.512C760.746 571.512 760.186 571.712 759.802 572.112C759.434 572.512 759.25 573.104 759.25 573.888V575.376H763.138V576.816H759.298V588H757.594V576.816H755.338V575.376H757.594V573.816C757.594 572.664 757.922 571.752 758.578 571.08C759.25 570.408 760.194 570.072 761.41 570.072C761.89 570.072 762.354 570.144 762.802 570.288C763.25 570.416 763.626 570.608 763.93 570.864L763.354 572.136C762.858 571.72 762.234 571.512 761.482 571.512ZM767.362 575.376H769.066V588H767.362V575.376ZM768.226 572.616C767.874 572.616 767.578 572.496 767.338 572.256C767.098 572.016 766.978 571.728 766.978 571.392C766.978 571.072 767.098 570.792 767.338 570.552C767.578 570.312 767.874 570.192 768.226 570.192C768.578 570.192 768.874 570.312 769.114 570.552C769.354 570.776 769.474 571.048 769.474 571.368C769.474 571.72 769.354 572.016 769.114 572.256C768.874 572.496 768.578 572.616 768.226 572.616ZM775.461 577.848C775.861 577 776.453 576.36 777.237 575.928C778.037 575.496 779.021 575.28 780.189 575.28V576.936L779.781 576.912C778.453 576.912 777.413 577.32 776.661 578.136C775.909 578.952 775.533 580.096 775.533 581.568V588H773.829V575.376H775.461V577.848ZM799.018 575.28C800.602 575.28 801.842 575.736 802.738 576.648C803.65 577.56 804.106 578.904 804.106 580.68V588H802.402V580.848C802.402 579.536 802.082 578.536 801.442 577.848C800.818 577.16 799.93 576.816 798.778 576.816C797.466 576.816 796.434 577.224 795.682 578.04C794.93 578.84 794.554 579.952 794.554 581.376V588H792.85V580.848C792.85 579.536 792.53 578.536 791.89 577.848C791.266 577.16 790.37 576.816 789.202 576.816C787.906 576.816 786.874 577.224 786.106 578.04C785.354 578.84 784.978 579.952 784.978 581.376V588H783.274V575.376H784.906V577.68C785.354 576.912 785.978 576.32 786.778 575.904C787.578 575.488 788.498 575.28 789.538 575.28C790.594 575.28 791.506 575.504 792.274 575.952C793.058 576.4 793.642 577.064 794.026 577.944C794.49 577.112 795.154 576.464 796.018 576C796.898 575.52 797.898 575.28 799.018 575.28ZM813.144 575.28C814.792 575.28 816.056 575.696 816.936 576.528C817.816 577.344 818.256 578.56 818.256 580.176V588H816.624V586.032C816.24 586.688 815.672 587.2 814.92 587.568C814.184 587.936 813.304 588.12 812.28 588.12C810.872 588.12 809.752 587.784 808.92 587.112C808.088 586.44 807.672 585.552 807.672 584.448C807.672 583.376 808.056 582.512 808.824 581.856C809.608 581.2 810.848 580.872 812.544 580.872H816.552V580.104C816.552 579.016 816.248 578.192 815.64 577.632C815.032 577.056 814.144 576.768 812.976 576.768C812.176 576.768 811.408 576.904 810.672 577.176C809.936 577.432 809.304 577.792 808.776 578.256L808.008 576.984C808.648 576.44 809.416 576.024 810.312 575.736C811.208 575.432 812.152 575.28 813.144 575.28ZM812.544 586.776C813.504 586.776 814.328 586.56 815.016 586.128C815.704 585.68 816.216 585.04 816.552 584.208V582.144H812.592C810.432 582.144 809.352 582.896 809.352 584.4C809.352 585.136 809.632 585.72 810.192 586.152C810.752 586.568 811.536 586.776 812.544 586.776ZM829.532 587.232C829.212 587.52 828.812 587.744 828.332 587.904C827.868 588.048 827.38 588.12 826.868 588.12C825.684 588.12 824.772 587.8 824.132 587.16C823.492 586.52 823.172 585.616 823.172 584.448V576.816H820.916V575.376H823.172V572.616H824.876V575.376H828.716V576.816H824.876V584.352C824.876 585.104 825.06 585.68 825.428 586.08C825.812 586.464 826.356 586.656 827.06 586.656C827.412 586.656 827.748 586.6 828.068 586.488C828.404 586.376 828.692 586.216 828.932 586.008L829.532 587.232ZM832.634 575.376H834.338V588H832.634V575.376ZM833.498 572.616C833.146 572.616 832.85 572.496 832.61 572.256C832.37 572.016 832.25 571.728 832.25 571.392C832.25 571.072 832.37 570.792 832.61 570.552C832.85 570.312 833.146 570.192 833.498 570.192C833.85 570.192 834.146 570.312 834.386 570.552C834.626 570.776 834.746 571.048 834.746 571.368C834.746 571.72 834.626 572.016 834.386 572.256C834.146 572.496 833.85 572.616 833.498 572.616ZM844.239 588.12C843.023 588.12 841.927 587.848 840.951 587.304C839.975 586.744 839.207 585.976 838.647 585C838.087 584.024 837.807 582.92 837.807 581.688C837.807 580.456 838.087 579.352 838.647 578.376C839.207 577.4 839.975 576.64 840.951 576.096C841.927 575.552 843.023 575.28 844.239 575.28C845.455 575.28 846.551 575.552 847.527 576.096C848.503 576.64 849.263 577.4 849.807 578.376C850.367 579.352 850.647 580.456 850.647 581.688C850.647 582.92 850.367 584.024 849.807 585C849.263 585.976 848.503 586.744 847.527 587.304C846.551 587.848 845.455 588.12 844.239 588.12ZM844.239 586.608C845.135 586.608 845.935 586.408 846.639 586.008C847.359 585.592 847.919 585.008 848.319 584.256C848.719 583.504 848.919 582.648 848.919 581.688C848.919 580.728 848.719 579.872 848.319 579.12C847.919 578.368 847.359 577.792 846.639 577.392C845.935 576.976 845.135 576.768 844.239 576.768C843.343 576.768 842.535 576.976 841.815 577.392C841.111 577.792 840.551 578.368 840.135 579.12C839.735 579.872 839.535 580.728 839.535 581.688C839.535 582.648 839.735 583.504 840.135 584.256C840.551 585.008 841.111 585.592 841.815 586.008C842.535 586.408 843.343 586.608 844.239 586.608ZM860.558 575.28C862.142 575.28 863.398 575.744 864.326 576.672C865.27 577.584 865.742 578.92 865.742 580.68V588H864.038V580.848C864.038 579.536 863.71 578.536 863.054 577.848C862.398 577.16 861.462 576.816 860.246 576.816C858.886 576.816 857.806 577.224 857.006 578.04C856.222 578.84 855.83 579.952 855.83 581.376V588H854.126V575.376H855.758V577.704C856.222 576.936 856.862 576.344 857.678 575.928C858.51 575.496 859.47 575.28 860.558 575.28Z" fill="black"/>
<path d="M706.626 318.2V335H705.162L694.362 321.368V335H692.586V318.2H694.05L704.874 331.832V318.2H706.626ZM716.166 322.28C717.814 322.28 719.078 322.696 719.958 323.528C720.838 324.344 721.278 325.56 721.278 327.176V335H719.646V333.032C719.262 333.688 718.694 334.2 717.942 334.568C717.206 334.936 716.326 335.12 715.302 335.12C713.894 335.12 712.774 334.784 711.942 334.112C711.11 333.44 710.694 332.552 710.694 331.448C710.694 330.376 711.078 329.512 711.846 328.856C712.63 328.2 713.87 327.872 715.566 327.872H719.574V327.104C719.574 326.016 719.27 325.192 718.662 324.632C718.054 324.056 717.166 323.768 715.998 323.768C715.198 323.768 714.43 323.904 713.694 324.176C712.958 324.432 712.326 324.792 711.798 325.256L711.03 323.984C711.67 323.44 712.438 323.024 713.334 322.736C714.23 322.432 715.174 322.28 716.166 322.28ZM715.566 333.776C716.526 333.776 717.35 333.56 718.038 333.128C718.726 332.68 719.238 332.04 719.574 331.208V329.144H715.614C713.454 329.144 712.374 329.896 712.374 331.4C712.374 332.136 712.654 332.72 713.214 333.152C713.774 333.568 714.558 333.776 715.566 333.776ZM741.65 322.28C743.234 322.28 744.474 322.736 745.37 323.648C746.282 324.56 746.738 325.904 746.738 327.68V335H745.034V327.848C745.034 326.536 744.714 325.536 744.074 324.848C743.45 324.16 742.562 323.816 741.41 323.816C740.098 323.816 739.066 324.224 738.314 325.04C737.562 325.84 737.186 326.952 737.186 328.376V335H735.482V327.848C735.482 326.536 735.162 325.536 734.522 324.848C733.898 324.16 733.002 323.816 731.834 323.816C730.538 323.816 729.506 324.224 728.738 325.04C727.986 325.84 727.61 326.952 727.61 328.376V335H725.906V322.376H727.538V324.68C727.986 323.912 728.61 323.32 729.41 322.904C730.21 322.488 731.13 322.28 732.17 322.28C733.226 322.28 734.138 322.504 734.906 322.952C735.69 323.4 736.274 324.064 736.658 324.944C737.122 324.112 737.786 323.464 738.65 323C739.53 322.52 740.53 322.28 741.65 322.28ZM762.398 329.216H751.838C751.934 330.528 752.438 331.592 753.35 332.408C754.262 333.208 755.414 333.608 756.806 333.608C757.59 333.608 758.31 333.472 758.966 333.2C759.622 332.912 760.19 332.496 760.67 331.952L761.63 333.056C761.07 333.728 760.366 334.24 759.518 334.592C758.686 334.944 757.766 335.12 756.758 335.12C755.462 335.12 754.31 334.848 753.302 334.304C752.31 333.744 751.534 332.976 750.974 332C750.414 331.024 750.134 329.92 750.134 328.688C750.134 327.456 750.398 326.352 750.926 325.376C751.47 324.4 752.206 323.64 753.134 323.096C754.078 322.552 755.134 322.28 756.302 322.28C757.47 322.28 758.518 322.552 759.446 323.096C760.374 323.64 761.102 324.4 761.63 325.376C762.158 326.336 762.422 327.44 762.422 328.688L762.398 329.216ZM756.302 323.744C755.086 323.744 754.062 324.136 753.23 324.92C752.414 325.688 751.95 326.696 751.838 327.944H760.79C760.678 326.696 760.206 325.688 759.374 324.92C758.558 324.136 757.534 323.744 756.302 323.744Z" fill="black"/>
<path d="M707.021 414.464V416H695.141V399.2H706.661V400.736H696.917V406.712H705.605V408.224H696.917V414.464H707.021ZM726.58 403.28C728.164 403.28 729.404 403.736 730.3 404.648C731.212 405.56 731.668 406.904 731.668 408.68V416H729.964V408.848C729.964 407.536 729.644 406.536 729.004 405.848C728.38 405.16 727.492 404.816 726.34 404.816C725.028 404.816 723.996 405.224 723.244 406.04C722.492 406.84 722.116 407.952 722.116 409.376V416H720.412V408.848C720.412 407.536 720.092 406.536 719.452 405.848C718.828 405.16 717.932 404.816 716.764 404.816C715.468 404.816 714.436 405.224 713.668 406.04C712.916 406.84 712.54 407.952 712.54 409.376V416H710.836V403.376H712.468V405.68C712.916 404.912 713.54 404.32 714.34 403.904C715.14 403.488 716.06 403.28 717.1 403.28C718.156 403.28 719.068 403.504 719.836 403.952C720.62 404.4 721.204 405.064 721.588 405.944C722.052 405.112 722.716 404.464 723.58 404C724.46 403.52 725.46 403.28 726.58 403.28ZM740.705 403.28C742.353 403.28 743.617 403.696 744.497 404.528C745.377 405.344 745.817 406.56 745.817 408.176V416H744.185V414.032C743.801 414.688 743.233 415.2 742.481 415.568C741.745 415.936 740.865 416.12 739.841 416.12C738.433 416.12 737.313 415.784 736.481 415.112C735.649 414.44 735.233 413.552 735.233 412.448C735.233 411.376 735.617 410.512 736.385 409.856C737.169 409.2 738.409 408.872 740.105 408.872H744.113V408.104C744.113 407.016 743.809 406.192 743.201 405.632C742.593 405.056 741.705 404.768 740.537 404.768C739.737 404.768 738.969 404.904 738.233 405.176C737.497 405.432 736.865 405.792 736.337 406.256L735.569 404.984C736.209 404.44 736.977 404.024 737.873 403.736C738.769 403.432 739.713 403.28 740.705 403.28ZM740.105 414.776C741.065 414.776 741.889 414.56 742.577 414.128C743.265 413.68 743.777 413.04 744.113 412.208V410.144H740.153C737.993 410.144 736.913 410.896 736.913 412.4C736.913 413.136 737.193 413.72 737.753 414.152C738.313 414.568 739.097 414.776 740.105 414.776ZM750.445 403.376H752.149V416H750.445V403.376ZM751.309 400.616C750.957 400.616 750.661 400.496 750.421 400.256C750.181 400.016 750.061 399.728 750.061 399.392C750.061 399.072 750.181 398.792 750.421 398.552C750.661 398.312 750.957 398.192 751.309 398.192C751.661 398.192 751.957 398.312 752.197 398.552C752.437 398.776 752.557 399.048 752.557 399.368C752.557 399.72 752.437 400.016 752.197 400.256C751.957 400.496 751.661 400.616 751.309 400.616ZM756.891 398.192H758.595V416H756.891V398.192Z" fill="black"/>
<rect x="553" y="430" width="346" height="44" fill="#C4C4C4"/>
<rect x="553" y="349" width="346" height="39" fill="#C4C4C4"/>
<rect width="172" height="36" fill="black" fill-opacity="0" transform="translate(640 670)"/>
<rect x="640" y="670" width="172" height="36" fill="#C4C4C4"/>
<path d="M674.065 694.464V696H662.185V679.2H673.705V680.736H663.961V686.712H672.649V688.224H663.961V694.464H674.065ZM689.212 678.192V696H687.58V693.504C687.068 694.352 686.388 695 685.54 695.448C684.708 695.896 683.764 696.12 682.708 696.12C681.524 696.12 680.452 695.848 679.492 695.304C678.532 694.76 677.78 694 677.236 693.024C676.692 692.048 676.42 690.936 676.42 689.688C676.42 688.44 676.692 687.328 677.236 686.352C677.78 685.376 678.532 684.624 679.492 684.096C680.452 683.552 681.524 683.28 682.708 683.28C683.732 683.28 684.652 683.496 685.468 683.928C686.3 684.344 686.98 684.96 687.508 685.776V678.192H689.212ZM682.852 694.608C683.732 694.608 684.524 694.408 685.228 694.008C685.948 693.592 686.508 693.008 686.908 692.256C687.324 691.504 687.532 690.648 687.532 689.688C687.532 688.728 687.324 687.872 686.908 687.12C686.508 686.368 685.948 685.792 685.228 685.392C684.524 684.976 683.732 684.768 682.852 684.768C681.956 684.768 681.148 684.976 680.428 685.392C679.724 685.792 679.164 686.368 678.748 687.12C678.348 687.872 678.148 688.728 678.148 689.688C678.148 690.648 678.348 691.504 678.748 692.256C679.164 693.008 679.724 693.592 680.428 694.008C681.148 694.408 681.956 694.608 682.852 694.608ZM693.958 683.376H695.662V696H693.958V683.376ZM694.822 680.616C694.47 680.616 694.174 680.496 693.934 680.256C693.694 680.016 693.574 679.728 693.574 679.392C693.574 679.072 693.694 678.792 693.934 678.552C694.174 678.312 694.47 678.192 694.822 678.192C695.174 678.192 695.47 678.312 695.71 678.552C695.95 678.776 696.07 679.048 696.07 679.368C696.07 679.72 695.95 680.016 695.71 680.256C695.47 680.496 695.174 680.616 694.822 680.616ZM707.051 695.232C706.731 695.52 706.331 695.744 705.851 695.904C705.387 696.048 704.899 696.12 704.387 696.12C703.203 696.12 702.291 695.8 701.651 695.16C701.011 694.52 700.691 693.616 700.691 692.448V684.816H698.435V683.376H700.691V680.616H702.395V683.376H706.235V684.816H702.395V692.352C702.395 693.104 702.579 693.68 702.947 694.08C703.331 694.464 703.875 694.656 704.579 694.656C704.931 694.656 705.267 694.6 705.587 694.488C705.923 694.376 706.211 694.216 706.451 694.008L707.051 695.232ZM723.083 679.2C725.227 679.2 726.907 679.712 728.123 680.736C729.339 681.76 729.947 683.168 729.947 684.96C729.947 686.752 729.339 688.16 728.123 689.184C726.907 690.192 725.227 690.696 723.083 690.696H718.571V696H716.795V679.2H723.083ZM723.035 689.136C724.699 689.136 725.971 688.776 726.851 688.056C727.731 687.32 728.171 686.288 728.171 684.96C728.171 683.6 727.731 682.56 726.851 681.84C725.971 681.104 724.699 680.736 723.035 680.736H718.571V689.136H723.035ZM734.731 685.848C735.131 685 735.723 684.36 736.507 683.928C737.307 683.496 738.291 683.28 739.459 683.28V684.936L739.051 684.912C737.723 684.912 736.683 685.32 735.931 686.136C735.179 686.952 734.803 688.096 734.803 689.568V696H733.099V683.376H734.731V685.848ZM747.587 696.12C746.371 696.12 745.275 695.848 744.299 695.304C743.323 694.744 742.555 693.976 741.995 693C741.435 692.024 741.155 690.92 741.155 689.688C741.155 688.456 741.435 687.352 741.995 686.376C742.555 685.4 743.323 684.64 744.299 684.096C745.275 683.552 746.371 683.28 747.587 683.28C748.803 683.28 749.899 683.552 750.875 684.096C751.851 684.64 752.611 685.4 753.155 686.376C753.715 687.352 753.995 688.456 753.995 689.688C753.995 690.92 753.715 692.024 753.155 693C752.611 693.976 751.851 694.744 750.875 695.304C749.899 695.848 748.803 696.12 747.587 696.12ZM747.587 694.608C748.483 694.608 749.283 694.408 749.987 694.008C750.707 693.592 751.267 693.008 751.667 692.256C752.067 691.504 752.267 690.648 752.267 689.688C752.267 688.728 752.067 687.872 751.667 687.12C751.267 686.368 750.707 685.792 749.987 685.392C749.283 684.976 748.483 684.768 747.587 684.768C746.691 684.768 745.883 684.976 745.163 685.392C744.459 685.792 743.899 686.368 743.483 687.12C743.083 687.872 742.883 688.728 742.883 689.688C742.883 690.648 743.083 691.504 743.483 692.256C743.899 693.008 744.459 693.592 745.163 694.008C745.883 694.408 746.691 694.608 747.587 694.608ZM761.65 679.512C760.914 679.512 760.354 679.712 759.97 680.112C759.602 680.512 759.418 681.104 759.418 681.888V683.376H763.306V684.816H759.466V696H757.762V684.816H755.506V683.376H757.762V681.816C757.762 680.664 758.09 679.752 758.746 679.08C759.418 678.408 760.362 678.072 761.578 678.072C762.058 678.072 762.522 678.144 762.97 678.288C763.418 678.416 763.794 678.608 764.098 678.864L763.522 680.136C763.026 679.72 762.402 679.512 761.65 679.512ZM767.53 683.376H769.234V696H767.53V683.376ZM768.394 680.616C768.042 680.616 767.746 680.496 767.506 680.256C767.266 680.016 767.146 679.728 767.146 679.392C767.146 679.072 767.266 678.792 767.506 678.552C767.746 678.312 768.042 678.192 768.394 678.192C768.746 678.192 769.042 678.312 769.282 678.552C769.522 678.776 769.642 679.048 769.642 679.368C769.642 679.72 769.522 680.016 769.282 680.256C769.042 680.496 768.746 680.616 768.394 680.616ZM773.997 678.192H775.701V696H773.997V678.192ZM791.434 690.216H780.874C780.97 691.528 781.474 692.592 782.386 693.408C783.298 694.208 784.45 694.608 785.842 694.608C786.626 694.608 787.346 694.472 788.002 694.2C788.658 693.912 789.226 693.496 789.706 692.952L790.666 694.056C790.106 694.728 789.402 695.24 788.554 695.592C787.722 695.944 786.802 696.12 785.794 696.12C784.498 696.12 783.346 695.848 782.338 695.304C781.346 694.744 780.57 693.976 780.01 693C779.45 692.024 779.17 690.92 779.17 689.688C779.17 688.456 779.434 687.352 779.962 686.376C780.506 685.4 781.242 684.64 782.17 684.096C783.114 683.552 784.17 683.28 785.338 683.28C786.506 683.28 787.554 683.552 788.482 684.096C789.41 684.64 790.138 685.4 790.666 686.376C791.194 687.336 791.458 688.44 791.458 689.688L791.434 690.216ZM785.338 684.744C784.122 684.744 783.098 685.136 782.266 685.92C781.45 686.688 780.986 687.696 780.874 688.944H789.826C789.714 687.696 789.242 686.688 788.41 685.92C787.594 685.136 786.57 684.744 785.338 684.744Z" fill="black"/>
</svg>
