<?xml version="1.0" encoding="iso-8859-1"?>
<!-- Generator: Adobe Illustrator 19.0.0, SVG Export Plug-In . SVG Version: 6.00 Build 0)  -->
<svg version="1.1" id="Capa_1" xmlns="http://www.w3.org/2000/svg" xmlns:xlink="http://www.w3.org/1999/xlink" x="0px" y="0px"
	 viewBox="0 0 490.902 490.902" style="enable-background:new 0 0 490.902 490.902;" xml:space="preserve">
<g>
	<path style="fill:#ED664C;" d="M476.4,297.844h4.5c0,38.4-32.3,70.2-70.7,70.2s-70.2-31.3-70.2-70.2h4H476.4z"/>
	<path style="fill:#ED664C;" d="M345.1,431.144v14H145.9v-14c0-16.6,13.4-30,30-30h2h135.2h2
		C331.7,401.144,345.1,414.544,345.1,431.144z"/>
</g>
<path style="fill:#FDC75B;" d="M313.1,400.144v1H177.9v-1v-14c0-16.6,13.4-30,30-30h75.2c16.6,0,30,13.4,30,30L313.1,400.144
	L313.1,400.144z"/>
<g>
	<path style="fill:#ED664C;" d="M278,114.944c-4,14.1-17.1,24.5-32.5,24.5c-18.7,0-33.8-15.2-33.8-33.8c0-3.2,0.4-6.4,1.3-9.3
		c4.1-14.2,17.1-24.5,32.5-24.5c18.7,0,33.8,15.2,33.8,33.8C279.3,108.844,278.9,111.944,278,114.944z"/>
	<path style="fill:#ED664C;" d="M146.4,202.844h4.6c0,38.4-32.3,70.2-70.7,70.2s-70.2-31.3-70.2-70.2h4L146.4,202.844L146.4,202.844
		z"/>
</g>
<path d="M483.7,288.244l-56-119.9l24.2,6.9c0.9,0.3,1.8,0.4,2.8,0.4c4.3,0,8.3-2.9,9.6-7.2c1.5-5.3-1.5-10.8-6.9-12.4l-168.1-48.2
	c0-0.7,0.1-1.4,0.1-2.2c0-24.2-19.7-43.8-43.8-43.8c-16,0-30.6,8.9-38.3,22.5l-168.1-48.4c-5.3-1.5-10.8,1.5-12.4,6.9
	c-1.5,5.3,1.5,10.8,6.9,12.4l33.2,9.5l-60.2,128.6c-3.9,1.4-6.7,5.1-6.7,9.4c0,44.2,36,80.2,80.2,80.2c21.2,0,41.4-8.4,56.8-23.6
	c15.4-15.3,23.9-35.4,23.9-56.6c0-4.6-3.1-8.4-7.3-9.6l-55.8-119.5l103.9,29.8c0,0.7-0.1,1.4-0.1,2.1c0,20.7,14.5,38.1,33.8,42.7
	v198.1h-27.6c-22.1,0-40.4,17.7-40.4,39.8v5.8c-18,3.7-32,19.9-32,39.2v14c0,5.5,4.9,10.2,10.4,10.2H345c5.5,0,10.4-4.7,10.4-10.2
	v-14c0-19.3-14-35.5-32-39.2v-5.8c0-22.1-18.3-39.8-40.4-39.8h-27.5v-198.1c11.9-2.8,22.2-10.6,28.3-21.3l113.2,32.5l-60.3,128.9
	c-3.9,1.4-6.7,5.1-6.7,9.4c0,44.2,36,80.2,80.2,80.2c21.2,0,41.4-8.4,56.8-23.6c15.4-15.3,23.9-35.4,23.9-56.6
	C491,293.244,487.9,289.344,483.7,288.244z M80.3,262.544c-29.8,0-54.7-21.2-59.4-50.2h119.2
	C135.1,241.344,109.7,262.544,80.3,262.544z M131.4,192.344H29.1l51.1-109.6L131.4,192.344z M315.1,411.344c11,0,20.4,8.7,20.4,19.8
	v4.2h-180v-4.2c0-11,9.4-19.8,20.4-19.8H315.1z M283.1,366.344c11,0,20.4,8.7,20.4,19.8v5.2h-116v-5.2c0-11,9.4-19.8,20.4-19.8
	H283.1z M268.5,111.644c-0.1,0.3-0.2,0.6-0.3,0.9c0,0.1,0,0.1,0,0.2c-3.1,9.9-12.3,16.8-22.8,16.8c-13.1,0-23.8-10.5-23.8-23.7
	c0-2.3,0.3-4.4,0.9-6.4l0,0v-0.3c3-10.2,12.4-17.3,23-17.3c13.1,0,23.9,10.7,23.9,23.8C269.3,107.644,269.1,109.644,268.5,111.644z
	 M410.2,177.744l51.2,109.6H359.1L410.2,177.744z M410.3,357.544c-29.8,0-54.6-21.2-59.4-50.2h119.2
	C465.1,336.344,439.7,357.544,410.3,357.544z"/>
<g>
</g>
<g>
</g>
<g>
</g>
<g>
</g>
<g>
</g>
<g>
</g>
<g>
</g>
<g>
</g>
<g>
</g>
<g>
</g>
<g>
</g>
<g>
</g>
<g>
</g>
<g>
</g>
<g>
</g>
</svg>
