<svg height="512pt" viewBox="0 -16 512.00007 512" width="512pt" xmlns="http://www.w3.org/2000/svg"><path d="m395.035156 81.34375v246.484375c0 38.539063-77.484375 70.183594-176.292968 73.535156-5.753907.207031-11.582032.304688-17.460938.304688-107.023438 0-193.765625-33.054688-193.765625-73.839844v-246.484375zm0 0" fill="#abffdb"/><path d="m395.035156 164.839844v162.988281c0 38.535156-77.484375 70.183594-176.292968 73.535156l-13.5-23.375c-6.035157-10.453125-2.441407-23.855469 8.007812-29.886719l16.375-9.453124c-.421875-4.277344-.628906-8.582032-.628906-12.871094 0-4.296875.207031-8.59375.628906-12.871094l-16.375-9.453125c-10.449219-6.03125-14.042969-19.433594-8.007812-29.882813l32.664062-56.585937c3.894531-6.738281 11.15625-10.9375 18.945312-10.9375 3.832032 0 7.609376 1.019531 10.941407 2.929687l16.375 9.460938c7-5.035156 14.457031-9.34375 22.292969-12.890625v-18.882813c0-12.070312 9.808593-21.878906 21.875-21.878906h65.332031c.457031 0 .921875.011719 1.367187.054688zm0 0" fill="#92e0c0"/><path d="m395.03125 81.34375v34.921875c-11.265625 12.089844-28.597656 22.800781-51.339844 31.472656-38.289062 14.585938-88.871094 22.613281-142.425781 22.613281-53.566406 0-104.136719-8.027343-142.421875-22.613281-22.746094-8.671875-40.078125-19.371093-51.332031-31.460937v-34.933594zm0 0" fill="#92e0c0"/><path d="m395.035156 213.175781v114.652344c0 38.527344-77.464844 70.160156-176.292968 73.523437-5.753907.207032-11.582032.304688-17.472657.304688-107.011719 0-193.765625-33.054688-193.765625-73.828125v-114.652344c0 40.78125 86.753906 73.839844 193.765625 73.839844h1.195313c106.457031-.25 192.570312-33.210937 192.570312-73.839844zm0 0" fill="#fff"/><path d="m395.035156 213.175781v114.652344c0 38.527344-77.464844 70.160156-176.292968 73.523437l-13.5-23.363281c-6.035157-10.453125-2.441407-23.855469 8.007812-29.886719l16.375-9.453124c-.421875-4.277344-.628906-8.582032-.628906-12.871094 0-4.296875.207031-8.59375.628906-12.871094l-16.375-9.453125c-6.21875-3.589844-10.015625-9.796875-10.785156-16.4375 106.457031-.25 192.570312-33.210937 192.570312-73.839844zm0 0" fill="#e4eaf8"/><path d="m395.03125 213.175781v36.320313c-11.1875 12.199218-28.597656 23.007812-51.535156 31.753906-38.222656 14.566406-88.738282 22.585938-142.230469 22.585938-53.5 0-104.007813-8.019532-142.226563-22.585938-22.945312-8.746094-40.351562-19.554688-51.539062-31.753906v-36.320313c0 40.78125 86.753906 73.835938 193.765625 73.835938s193.765625-33.054688 193.765625-73.835938zm0 0" fill="#e4eaf8"/><path d="m395.027344 81.332031c0-40.777343-86.75-73.832031-193.761719-73.832031-107.015625 0-193.765625 33.054688-193.765625 73.832031 0 40.777344 86.75 73.832031 193.765625 73.832031 107.011719 0 193.761719-33.054687 193.761719-73.832031zm0 0" fill="#abffdb"/><path d="m477.804688 325.777344c0-7.140625-.644532-14.132813-1.871094-20.921875l25.21875-14.558594c3.195312-1.84375 4.292968-5.933594 2.445312-9.132813l-32.664062-56.578124c-1.84375-3.195313-5.933594-4.292969-9.132813-2.445313l-25.238281 14.570313c-10.609375-9.007813-22.847656-16.15625-36.214844-20.9375v-29.113282c0-3.691406-2.992187-6.683594-6.683594-6.683594h-65.328124c-3.691407 0-6.6875 2.992188-6.6875 6.683594v29.113282c-13.367188 4.78125-25.601563 11.929687-36.214844 20.9375l-25.238282-14.570313c-3.195312-1.847656-7.285156-.75-9.128906 2.445313l-32.667968 56.578124c-1.847657 3.195313-.75 7.285157 2.445312 9.132813l25.21875 14.558594c-1.226562 6.789062-1.871094 13.777343-1.871094 20.921875 0 7.140625.644532 14.132812 1.871094 20.917968l-25.21875 14.5625c-3.195312 1.84375-4.292969 5.933594-2.445312 9.128907l32.664062 56.578125c1.847656 3.199218 5.933594 4.292968 9.132812 2.449218l25.238282-14.574218c10.609375 9.011718 22.847656 16.160156 36.214844 20.941406v29.113281c0 3.691407 2.992187 6.683594 6.683593 6.683594h65.332031c3.691407 0 6.683594-2.992187 6.683594-6.683594v-29.113281c13.367188-4.78125 25.605469-11.929688 36.214844-20.941406l25.238281 14.574218c3.195313 1.84375 7.285157.75 9.132813-2.449218l32.664062-56.578125c1.84375-3.195313.75-7.285157-2.449218-9.128907l-25.214844-14.5625c1.226562-6.785156 1.871094-13.777343 1.871094-20.917968zm0 0" fill="#ffc850"/><path d="m361 379.816406c-29.800781 0-54.042969-24.242187-54.042969-54.039062 0-29.800782 24.242188-54.042969 54.042969-54.042969 29.796875 0 54.039062 24.242187 54.039062 54.042969 0 29.796875-24.242187 54.039062-54.039062 54.039062zm0 0" fill="#f9b428"/><path d="m399.105469 325.777344c0 21.046875-17.0625 38.105468-38.105469 38.105468-21.046875 0-38.109375-17.058593-38.109375-38.105468s17.0625-38.109375 38.109375-38.109375c21.042969 0 38.105469 17.0625 38.105469 38.109375zm0 0" fill="#fff"/><path d="m511.511719 363.375c-.980469-3.660156-3.328125-6.71875-6.609375-8.613281l-20.753906-11.980469c.769531-5.621094 1.15625-11.320312 1.15625-17.003906s-.386719-11.382813-1.15625-17.003906l20.753906-11.980469c6.773437-3.910157 9.101562-12.605469 5.191406-19.378907l-10.09375-17.484374c-2.070312-3.585938-6.660156-4.8125-10.246094-2.746094-3.585937 2.074218-4.816406 6.660156-2.746094 10.246094l9.6875 16.777343-24.511718 14.152344c-2.738282 1.585937-4.191406 4.71875-3.628906 7.832031 1.160156 6.425782 1.75 13.015625 1.75 19.585938 0 6.570312-.589844 13.160156-1.75 19.585937-.5625 3.113281.890624 6.246094 3.628906 7.828125l24.511718 14.152344-31.847656 55.167969-24.535156-14.164063c-2.746094-1.585937-6.1875-1.273437-8.605469.777344-10.085937 8.566406-21.488281 15.15625-33.886719 19.59375-2.980468 1.066406-4.972656 3.894531-4.972656 7.0625v28.296875h-63.699218v-28.296875c0-3.167969-1.992188-5.992188-4.972657-7.0625-12.398437-4.4375-23.800781-11.027344-33.886719-19.59375-2.417968-2.050781-5.859374-2.363281-8.605468-.777344l-24.535156 14.164063-31.847657-55.167969 24.511719-14.152344c2.738281-1.582031 4.191406-4.714844 3.628906-7.828125-1.160156-6.425781-1.75-13.015625-1.75-19.585937 0-6.570313.589844-13.160156 1.75-19.585938.5625-3.113281-.890625-6.246094-3.628906-7.832031l-24.511719-14.148437 31.851563-55.167969 24.53125 14.164062c2.746094 1.585938 6.1875 1.273438 8.605468-.777343 10.085938-8.566407 21.488282-15.160157 33.886719-19.597657 2.980469-1.066406 4.972657-3.894531 4.972657-7.0625v-28.292969h63.699218v28.292969c0 3.167969 1.992188 5.996094 4.972656 7.0625 12.398438 4.4375 23.800782 11.03125 33.886719 19.597657 2.417969 2.050781 5.859375 2.363281 8.605469.777343l24.53125-14.164062 6.316406 10.9375c2.070313 3.585937 6.65625 4.8125 10.246094 2.746093 3.585938-2.074218 4.8125-6.660156 2.742188-10.246093l-6.722657-11.644531c-3.910156-6.773438-12.601562-9.101563-19.375-5.191407l-20.765625 11.992188c-9.019531-7.027344-18.886718-12.734375-29.4375-17.027344v-23.949219c0-4.46875-2.082031-8.453125-5.320312-11.054687v-94.273438c0-28.882812-33.671875-53.964843-92.382813-68.816406-4.015625-1.019531-8.09375 1.414063-9.109375 5.429687-1.015625 4.015626 1.414063 8.09375 5.429688 9.109376 50 12.652343 81.0625 33.449218 81.0625 54.277343 0 16.148438-18.925782 32.625-51.921875 45.199219-35.765625 13.628906-83.476563 21.132812-134.339844 21.132812-21.699219 0-42.992187-1.378906-63.296875-4.101562-4.105469-.550781-7.878906 2.332031-8.429688 6.4375-.550781 4.105469 2.332032 7.878906 6.441407 8.429688 20.960937 2.808593 42.925781 4.234374 65.285156 4.234374 52.644531 0 102.253906-7.855468 139.683594-22.117187 20.441406-7.789063 36.144531-17.144531 46.578125-27.53125v59.460937h-59.191406c-7.824219 0-14.1875 6.363282-14.1875 14.183594v23.949219c-10.550782 4.292969-20.417969 10-29.4375 17.027344l-20.765626-11.992188c-3.28125-1.894531-7.101562-2.394531-10.761718-1.414062s-6.71875 3.328125-8.613282 6.605469l-32.664062 56.578124c-.371094.644532-.675781 1.3125-.9375 1.992188-2.804688 4.632812-1.386719 10.796875 3.007812 14.941406.910157.941406 1.953126 1.769532 3.121094 2.441406l20.753906 11.984376c-.769531 5.621093-1.15625 11.316406-1.15625 17.003906 0 5.683594.386719 11.378906 1.15625 17l-20.753906 11.980468c-3.28125 1.898438-5.628906 4.957032-6.609375 8.617188s-.476562 7.480469 1.417969 10.761719l11.277344 19.535156c-7.257813.316406-14.59375.488281-21.917969.488281-50.867187 0-98.574219-7.507812-134.339844-21.132812-33-12.574219-51.925781-29.046875-51.925781-45.199219v-214.8125c17.070312 16.992187 48.085938 31.082031 89.785156 40.027344.527344.113281 1.058594.167969 1.578125.167969 3.460938 0 6.570313-2.410157 7.328125-5.929688.867188-4.050781-1.710937-8.039062-5.761718-8.90625-56.453126-12.109375-92.929688-34.5-92.929688-57.042969 0-16.152343 18.925781-32.625 51.921875-45.199219 35.765625-13.628906 83.476563-21.132812 134.34375-21.132812 26.113281 0 51.417969 1.976562 75.210937 5.871094 4.082032.664062 7.945313-2.101563 8.613282-6.191406.667968-4.085938-2.101563-7.941407-6.191406-8.613282-24.589844-4.023437-50.710938-6.066406-77.632813-6.066406-52.648437 0-102.253906 7.855469-139.683594 22.117188-39.710937 15.128906-61.582031 36.160156-61.582031 59.214843v246.496094c0 23.054687 21.871094 44.082031 61.582031 59.214844 37.429688 14.261719 87.035157 22.117187 139.683594 22.117187 10.164063 0 20.351563-.3125 30.335937-.902344l12.964844 22.457032c1.894532 3.28125 4.953125 5.628906 8.613282 6.609375 3.660156.980469 7.484374.476562 10.765624-1.417969l20.765626-11.988281c9.019531 7.027343 18.882812 12.730469 29.4375 17.023437v23.949219c0 7.824219 6.363281 14.1875 14.183593 14.1875h65.332031c7.820313 0 14.183594-6.363281 14.183594-14.1875v-23.949219c10.554688-4.292968 20.421875-9.996094 29.4375-17.023437l20.765625 11.988281c3.28125 1.894531 7.105469 2.398438 10.765625 1.417969s6.71875-3.328125 8.613282-6.609375l32.664062-56.578125c1.894531-3.28125 2.398438-7.101563 1.417969-10.761719zm0 0" fill="#474d54"/></svg>