<?xml version="1.0" encoding="iso-8859-1"?>
<!-- Generator: Adobe Illustrator 19.0.0, SVG Export Plug-In . SVG Version: 6.00 Build 0)  -->
<svg version="1.1" id="Layer_1" xmlns="http://www.w3.org/2000/svg" xmlns:xlink="http://www.w3.org/1999/xlink" x="0px" y="0px"
	 viewBox="0 0 512 512" style="enable-background:new 0 0 512 512;" xml:space="preserve">
<path style="fill:#314E55;" d="M377.705,333.155c-1.775-3.37-5.26-5.475-9.065-5.475h-102.4V0h-20.48v327.68h-102.4
	c-3.805,0-7.29,2.105-9.065,5.475c-1.77,3.365-1.53,7.435,0.625,10.565l112.64,163.84c1.91,2.78,5.07,4.44,8.44,4.44
	c3.37,0,6.53-1.66,8.44-4.44l112.64-163.84C379.235,340.59,379.475,336.52,377.705,333.155z"/>
<g>
	<polygon style="fill:#E65F58;" points="245.76,348.16 245.76,468.79 162.825,348.16 	"/>
	<polygon style="fill:#E65F58;" points="266.24,468.79 266.24,348.16 349.175,348.16 	"/>
</g>
<g>
</g>
<g>
</g>
<g>
</g>
<g>
</g>
<g>
</g>
<g>
</g>
<g>
</g>
<g>
</g>
<g>
</g>
<g>
</g>
<g>
</g>
<g>
</g>
<g>
</g>
<g>
</g>
<g>
</g>
</svg>
