<svg width="1440" height="900" viewBox="0 0 1440 900" fill="none" xmlns="http://www.w3.org/2000/svg">
<rect width="1440" height="900" fill="#E5E5E5"/>
<rect width="1440" height="900" fill="white"/>
<rect width="1440" height="92" fill="black" fill-opacity="0"/>
<rect width="1440" height="92" fill="#C4C4C4"/>
<path d="M112.688 62.288C108.336 62.288 104.944 61.04 102.512 58.544C100.08 56.048 98.8637 52.416 98.8637 47.648V28.4H102.416V47.504C102.416 51.408 103.296 54.32 105.056 56.24C106.816 58.16 109.36 59.12 112.688 59.12C116.048 59.12 118.608 58.16 120.368 56.24C122.128 54.32 123.008 51.408 123.008 47.504V28.4H126.464V47.648C126.464 52.416 125.248 56.048 122.816 58.544C120.416 61.04 117.04 62.288 112.688 62.288ZM143.215 62.24C141.167 62.24 139.199 61.952 137.311 61.376C135.455 60.768 133.999 60.016 132.943 59.12L134.479 56.432C135.535 57.264 136.863 57.952 138.463 58.496C140.063 59.008 141.727 59.264 143.455 59.264C145.759 59.264 147.455 58.912 148.543 58.208C149.663 57.472 150.223 56.448 150.223 55.136C150.223 54.208 149.919 53.488 149.311 52.976C148.703 52.432 147.935 52.032 147.007 51.776C146.079 51.488 144.847 51.216 143.311 50.96C141.263 50.576 139.615 50.192 138.367 49.808C137.119 49.392 136.047 48.704 135.151 47.744C134.287 46.784 133.855 45.456 133.855 43.76C133.855 41.648 134.735 39.92 136.495 38.576C138.255 37.232 140.703 36.56 143.839 36.56C145.471 36.56 147.103 36.784 148.735 37.232C150.367 37.648 151.711 38.208 152.767 38.912L151.279 41.648C149.199 40.208 146.719 39.488 143.839 39.488C141.663 39.488 140.015 39.872 138.895 40.64C137.807 41.408 137.263 42.416 137.263 43.664C137.263 44.624 137.567 45.392 138.175 45.968C138.815 46.544 139.599 46.976 140.527 47.264C141.455 47.52 142.735 47.792 144.367 48.08C146.383 48.464 147.999 48.848 149.215 49.232C150.431 49.616 151.471 50.272 152.335 51.2C153.199 52.128 153.631 53.408 153.631 55.04C153.631 57.248 152.703 59.008 150.847 60.32C149.023 61.6 146.479 62.24 143.215 62.24ZM181.916 50.432H160.796C160.988 53.056 161.996 55.184 163.82 56.816C165.644 58.416 167.948 59.216 170.732 59.216C172.3 59.216 173.74 58.944 175.052 58.4C176.364 57.824 177.5 56.992 178.46 55.904L180.38 58.112C179.26 59.456 177.852 60.48 176.156 61.184C174.492 61.888 172.652 62.24 170.636 62.24C168.044 62.24 165.74 61.696 163.724 60.608C161.74 59.488 160.188 57.952 159.068 56C157.948 54.048 157.388 51.84 157.388 49.376C157.388 46.912 157.916 44.704 158.972 42.752C160.06 40.8 161.532 39.28 163.388 38.192C165.276 37.104 167.388 36.56 169.724 36.56C172.06 36.56 174.156 37.104 176.012 38.192C177.868 39.28 179.324 40.8 180.38 42.752C181.436 44.672 181.964 46.88 181.964 49.376L181.916 50.432ZM169.724 39.488C167.292 39.488 165.244 40.272 163.58 41.84C161.948 43.376 161.02 45.392 160.796 47.888H178.7C178.476 45.392 177.532 43.376 175.868 41.84C174.236 40.272 172.188 39.488 169.724 39.488ZM192.164 41.696C192.964 40 194.148 38.72 195.716 37.856C197.316 36.992 199.284 36.56 201.62 36.56V39.872L200.804 39.824C198.148 39.824 196.068 40.64 194.564 42.272C193.06 43.904 192.308 46.192 192.308 49.136V62H188.9V36.752H192.164V41.696ZM220.655 36.56C223.823 36.56 226.335 37.488 228.191 39.344C230.079 41.168 231.023 43.84 231.023 47.36V62H227.615V47.696C227.615 45.072 226.959 43.072 225.647 41.696C224.335 40.32 222.463 39.632 220.031 39.632C217.311 39.632 215.151 40.448 213.551 42.08C211.983 43.68 211.199 45.904 211.199 48.752V62H207.791V36.752H211.055V41.408C211.983 39.872 213.263 38.688 214.895 37.856C216.559 36.992 218.479 36.56 220.655 36.56ZM249.107 36.56C252.403 36.56 254.931 37.392 256.691 39.056C258.451 40.688 259.331 43.12 259.331 46.352V62H256.067V58.064C255.299 59.376 254.163 60.4 252.659 61.136C251.187 61.872 249.427 62.24 247.379 62.24C244.563 62.24 242.323 61.568 240.659 60.224C238.995 58.88 238.163 57.104 238.163 54.896C238.163 52.752 238.931 51.024 240.467 49.712C242.035 48.4 244.515 47.744 247.907 47.744H255.923V46.208C255.923 44.032 255.315 42.384 254.099 41.264C252.883 40.112 251.107 39.536 248.771 39.536C247.171 39.536 245.635 39.808 244.163 40.352C242.691 40.864 241.427 41.584 240.371 42.512L238.835 39.968C240.115 38.88 241.651 38.048 243.443 37.472C245.235 36.864 247.123 36.56 249.107 36.56ZM247.907 59.552C249.827 59.552 251.475 59.12 252.851 58.256C254.227 57.36 255.251 56.08 255.923 54.416V50.288H248.003C243.683 50.288 241.523 51.792 241.523 54.8C241.523 56.272 242.083 57.44 243.203 58.304C244.323 59.136 245.891 59.552 247.907 59.552ZM300.076 36.56C303.244 36.56 305.724 37.472 307.516 39.296C309.34 41.12 310.252 43.808 310.252 47.36V62H306.844V47.696C306.844 45.072 306.204 43.072 304.924 41.696C303.676 40.32 301.9 39.632 299.596 39.632C296.972 39.632 294.908 40.448 293.404 42.08C291.9 43.68 291.148 45.904 291.148 48.752V62H287.74V47.696C287.74 45.072 287.1 43.072 285.82 41.696C284.572 40.32 282.78 39.632 280.444 39.632C277.852 39.632 275.788 40.448 274.252 42.08C272.748 43.68 271.996 45.904 271.996 48.752V62H268.588V36.752H271.852V41.36C272.748 39.824 273.996 38.64 275.596 37.808C277.196 36.976 279.036 36.56 281.116 36.56C283.228 36.56 285.052 37.008 286.588 37.904C288.156 38.8 289.324 40.128 290.092 41.888C291.02 40.224 292.348 38.928 294.076 38C295.836 37.04 297.836 36.56 300.076 36.56ZM341.572 50.432H320.452C320.644 53.056 321.652 55.184 323.476 56.816C325.3 58.416 327.604 59.216 330.388 59.216C331.956 59.216 333.396 58.944 334.708 58.4C336.02 57.824 337.156 56.992 338.116 55.904L340.036 58.112C338.916 59.456 337.508 60.48 335.812 61.184C334.148 61.888 332.308 62.24 330.292 62.24C327.7 62.24 325.396 61.696 323.38 60.608C321.396 59.488 319.844 57.952 318.724 56C317.604 54.048 317.044 51.84 317.044 49.376C317.044 46.912 317.572 44.704 318.628 42.752C319.716 40.8 321.188 39.28 323.044 38.192C324.932 37.104 327.044 36.56 329.38 36.56C331.716 36.56 333.812 37.104 335.668 38.192C337.524 39.28 338.98 40.8 340.036 42.752C341.092 44.672 341.62 46.88 341.62 49.376L341.572 50.432ZM329.38 39.488C326.948 39.488 324.9 40.272 323.236 41.84C321.604 43.376 320.676 45.392 320.452 47.888H338.356C338.132 45.392 337.188 43.376 335.524 41.84C333.892 40.272 331.844 39.488 329.38 39.488ZM348.8 26.144C349.536 26.144 350.144 26.4 350.624 26.912C351.104 27.392 351.344 28 351.344 28.736C351.344 29.12 351.28 29.536 351.152 29.984C351.056 30.4 350.912 30.896 350.72 31.472L348.656 38.096H346.352L348.032 31.184C347.488 31.024 347.056 30.736 346.736 30.32C346.416 29.872 346.256 29.344 346.256 28.736C346.256 27.968 346.496 27.344 346.976 26.864C347.456 26.384 348.064 26.144 348.8 26.144ZM364.606 62.24C362.558 62.24 360.59 61.952 358.702 61.376C356.846 60.768 355.39 60.016 354.334 59.12L355.87 56.432C356.926 57.264 358.254 57.952 359.854 58.496C361.454 59.008 363.118 59.264 364.846 59.264C367.15 59.264 368.846 58.912 369.934 58.208C371.054 57.472 371.614 56.448 371.614 55.136C371.614 54.208 371.31 53.488 370.702 52.976C370.094 52.432 369.326 52.032 368.398 51.776C367.47 51.488 366.238 51.216 364.702 50.96C362.654 50.576 361.006 50.192 359.758 49.808C358.51 49.392 357.438 48.704 356.542 47.744C355.678 46.784 355.246 45.456 355.246 43.76C355.246 41.648 356.126 39.92 357.886 38.576C359.646 37.232 362.094 36.56 365.23 36.56C366.862 36.56 368.494 36.784 370.126 37.232C371.758 37.648 373.102 38.208 374.158 38.912L372.67 41.648C370.59 40.208 368.11 39.488 365.23 39.488C363.054 39.488 361.406 39.872 360.286 40.64C359.198 41.408 358.654 42.416 358.654 43.664C358.654 44.624 358.958 45.392 359.566 45.968C360.206 46.544 360.99 46.976 361.918 47.264C362.846 47.52 364.126 47.792 365.758 48.08C367.774 48.464 369.39 48.848 370.606 49.232C371.822 49.616 372.862 50.272 373.726 51.2C374.59 52.128 375.022 53.408 375.022 55.04C375.022 57.248 374.094 59.008 372.238 60.32C370.414 61.6 367.87 62.24 364.606 62.24ZM406.893 36.56C409.261 36.56 411.405 37.104 413.325 38.192C415.245 39.248 416.749 40.752 417.837 42.704C418.925 44.656 419.469 46.88 419.469 49.376C419.469 51.904 418.925 54.144 417.837 56.096C416.749 58.048 415.245 59.568 413.325 60.656C411.437 61.712 409.293 62.24 406.893 62.24C404.845 62.24 402.989 61.824 401.325 60.992C399.693 60.128 398.349 58.88 397.293 57.248V71.312H393.885V36.752H397.149V41.744C398.173 40.08 399.517 38.8 401.181 37.904C402.877 37.008 404.781 36.56 406.893 36.56ZM406.653 59.216C408.413 59.216 410.013 58.816 411.453 58.016C412.893 57.184 414.013 56.016 414.813 54.512C415.645 53.008 416.061 51.296 416.061 49.376C416.061 47.456 415.645 45.76 414.813 44.288C414.013 42.784 412.893 41.616 411.453 40.784C410.013 39.952 408.413 39.536 406.653 39.536C404.861 39.536 403.245 39.952 401.805 40.784C400.397 41.616 399.277 42.784 398.445 44.288C397.645 45.76 397.245 47.456 397.245 49.376C397.245 51.296 397.645 53.008 398.445 54.512C399.277 56.016 400.397 57.184 401.805 58.016C403.245 58.816 404.861 59.216 406.653 59.216ZM429.68 41.696C430.48 40 431.664 38.72 433.232 37.856C434.832 36.992 436.8 36.56 439.136 36.56V39.872L438.32 39.824C435.664 39.824 433.584 40.64 432.08 42.272C430.576 43.904 429.824 46.192 429.824 49.136V62H426.416V36.752H429.68V41.696ZM455.392 62.24C452.96 62.24 450.768 61.696 448.816 60.608C446.864 59.488 445.328 57.952 444.208 56C443.088 54.048 442.528 51.84 442.528 49.376C442.528 46.912 443.088 44.704 444.208 42.752C445.328 40.8 446.864 39.28 448.816 38.192C450.768 37.104 452.96 36.56 455.392 36.56C457.824 36.56 460.016 37.104 461.968 38.192C463.92 39.28 465.44 40.8 466.528 42.752C467.648 44.704 468.208 46.912 468.208 49.376C468.208 51.84 467.648 54.048 466.528 56C465.44 57.952 463.92 59.488 461.968 60.608C460.016 61.696 457.824 62.24 455.392 62.24ZM455.392 59.216C457.184 59.216 458.784 58.816 460.192 58.016C461.632 57.184 462.752 56.016 463.552 54.512C464.352 53.008 464.752 51.296 464.752 49.376C464.752 47.456 464.352 45.744 463.552 44.24C462.752 42.736 461.632 41.584 460.192 40.784C458.784 39.952 457.184 39.536 455.392 39.536C453.6 39.536 451.984 39.952 450.544 40.784C449.136 41.584 448.016 42.736 447.184 44.24C446.384 45.744 445.984 47.456 445.984 49.376C445.984 51.296 446.384 53.008 447.184 54.512C448.016 56.016 449.136 57.184 450.544 58.016C451.984 58.816 453.6 59.216 455.392 59.216ZM483.518 29.024C482.046 29.024 480.926 29.424 480.158 30.224C479.422 31.024 479.054 32.208 479.054 33.776V36.752H486.83V39.632H479.15V62H475.742V39.632H471.23V36.752H475.742V33.632C475.742 31.328 476.398 29.504 477.71 28.16C479.054 26.816 480.942 26.144 483.374 26.144C484.334 26.144 485.262 26.288 486.158 26.576C487.054 26.832 487.806 27.216 488.414 27.728L487.262 30.272C486.27 29.44 485.022 29.024 483.518 29.024ZM495.278 36.752H498.686V62H495.278V36.752ZM497.006 31.232C496.302 31.232 495.71 30.992 495.23 30.512C494.75 30.032 494.51 29.456 494.51 28.784C494.51 28.144 494.75 27.584 495.23 27.104C495.71 26.624 496.302 26.384 497.006 26.384C497.71 26.384 498.302 26.624 498.782 27.104C499.262 27.552 499.502 28.096 499.502 28.736C499.502 29.44 499.262 30.032 498.782 30.512C498.302 30.992 497.71 31.232 497.006 31.232ZM508.213 26.384H511.621V62H508.213V26.384ZM543.088 50.432H521.968C522.16 53.056 523.168 55.184 524.992 56.816C526.816 58.416 529.12 59.216 531.904 59.216C533.472 59.216 534.912 58.944 536.224 58.4C537.536 57.824 538.672 56.992 539.632 55.904L541.552 58.112C540.432 59.456 539.024 60.48 537.328 61.184C535.664 61.888 533.824 62.24 531.808 62.24C529.216 62.24 526.912 61.696 524.896 60.608C522.912 59.488 521.36 57.952 520.24 56C519.12 54.048 518.56 51.84 518.56 49.376C518.56 46.912 519.088 44.704 520.144 42.752C521.232 40.8 522.704 39.28 524.56 38.192C526.448 37.104 528.56 36.56 530.896 36.56C533.232 36.56 535.328 37.104 537.184 38.192C539.04 39.28 540.496 40.8 541.552 42.752C542.608 44.672 543.136 46.88 543.136 49.376L543.088 50.432ZM530.896 39.488C528.464 39.488 526.416 40.272 524.752 41.84C523.12 43.376 522.192 45.392 521.968 47.888H539.872C539.648 45.392 538.704 43.376 537.04 41.84C535.408 40.272 533.36 39.488 530.896 39.488Z" fill="black"/>
<path d="M1157.08 28.4H1160.63V58.928H1179.45V62H1157.08V28.4ZM1194.57 62.24C1192.14 62.24 1189.95 61.696 1188 60.608C1186.04 59.488 1184.51 57.952 1183.39 56C1182.27 54.048 1181.71 51.84 1181.71 49.376C1181.71 46.912 1182.27 44.704 1183.39 42.752C1184.51 40.8 1186.04 39.28 1188 38.192C1189.95 37.104 1192.14 36.56 1194.57 36.56C1197 36.56 1199.2 37.104 1201.15 38.192C1203.1 39.28 1204.62 40.8 1205.71 42.752C1206.83 44.704 1207.39 46.912 1207.39 49.376C1207.39 51.84 1206.83 54.048 1205.71 56C1204.62 57.952 1203.1 59.488 1201.15 60.608C1199.2 61.696 1197 62.24 1194.57 62.24ZM1194.57 59.216C1196.36 59.216 1197.96 58.816 1199.37 58.016C1200.81 57.184 1201.93 56.016 1202.73 54.512C1203.53 53.008 1203.93 51.296 1203.93 49.376C1203.93 47.456 1203.53 45.744 1202.73 44.24C1201.93 42.736 1200.81 41.584 1199.37 40.784C1197.96 39.952 1196.36 39.536 1194.57 39.536C1192.78 39.536 1191.16 39.952 1189.72 40.784C1188.32 41.584 1187.2 42.736 1186.36 44.24C1185.56 45.744 1185.16 47.456 1185.16 49.376C1185.16 51.296 1185.56 53.008 1186.36 54.512C1187.2 56.016 1188.32 57.184 1189.72 58.016C1191.16 58.816 1192.78 59.216 1194.57 59.216ZM1237.72 36.752V58.928C1237.72 63.216 1236.67 66.384 1234.55 68.432C1232.47 70.512 1229.32 71.552 1225.1 71.552C1222.76 71.552 1220.54 71.2 1218.43 70.496C1216.35 69.824 1214.65 68.88 1213.34 67.664L1215.07 65.072C1216.28 66.16 1217.75 67.008 1219.48 67.616C1221.24 68.224 1223.08 68.528 1225 68.528C1228.2 68.528 1230.55 67.776 1232.06 66.272C1233.56 64.8 1234.31 62.496 1234.31 59.36V56.144C1233.26 57.744 1231.87 58.96 1230.14 59.792C1228.44 60.624 1226.55 61.04 1224.47 61.04C1222.11 61.04 1219.95 60.528 1217.99 59.504C1216.07 58.448 1214.55 56.992 1213.43 55.136C1212.35 53.248 1211.8 51.12 1211.8 48.752C1211.8 46.384 1212.35 44.272 1213.43 42.416C1214.55 40.56 1216.07 39.12 1217.99 38.096C1219.91 37.072 1222.07 36.56 1224.47 36.56C1226.62 36.56 1228.55 36.992 1230.28 37.856C1232.01 38.72 1233.4 39.968 1234.46 41.6V36.752H1237.72ZM1224.81 58.016C1226.63 58.016 1228.28 57.632 1229.75 56.864C1231.23 56.064 1232.36 54.96 1233.16 53.552C1233.99 52.144 1234.41 50.544 1234.41 48.752C1234.41 46.96 1233.99 45.376 1233.16 44C1232.36 42.592 1231.23 41.504 1229.75 40.736C1228.31 39.936 1226.67 39.536 1224.81 39.536C1222.99 39.536 1221.34 39.92 1219.87 40.688C1218.43 41.456 1217.29 42.544 1216.46 43.952C1215.66 45.36 1215.26 46.96 1215.26 48.752C1215.26 50.544 1215.66 52.144 1216.46 53.552C1217.29 54.96 1218.43 56.064 1219.87 56.864C1221.34 57.632 1222.99 58.016 1224.81 58.016ZM1257.57 62.24C1255.14 62.24 1252.95 61.696 1251 60.608C1249.04 59.488 1247.51 57.952 1246.39 56C1245.27 54.048 1244.71 51.84 1244.71 49.376C1244.71 46.912 1245.27 44.704 1246.39 42.752C1247.51 40.8 1249.04 39.28 1251 38.192C1252.95 37.104 1255.14 36.56 1257.57 36.56C1260 36.56 1262.2 37.104 1264.15 38.192C1266.1 39.28 1267.62 40.8 1268.71 42.752C1269.83 44.704 1270.39 46.912 1270.39 49.376C1270.39 51.84 1269.83 54.048 1268.71 56C1267.62 57.952 1266.1 59.488 1264.15 60.608C1262.2 61.696 1260 62.24 1257.57 62.24ZM1257.57 59.216C1259.36 59.216 1260.96 58.816 1262.37 58.016C1263.81 57.184 1264.93 56.016 1265.73 54.512C1266.53 53.008 1266.93 51.296 1266.93 49.376C1266.93 47.456 1266.53 45.744 1265.73 44.24C1264.93 42.736 1263.81 41.584 1262.37 40.784C1260.96 39.952 1259.36 39.536 1257.57 39.536C1255.78 39.536 1254.16 39.952 1252.72 40.784C1251.32 41.584 1250.2 42.736 1249.36 44.24C1248.56 45.744 1248.16 47.456 1248.16 49.376C1248.16 51.296 1248.56 53.008 1249.36 54.512C1250.2 56.016 1251.32 57.184 1252.72 58.016C1254.16 58.816 1255.78 59.216 1257.57 59.216ZM1300.1 36.752V62H1296.83V57.392C1295.94 58.928 1294.71 60.128 1293.14 60.992C1291.57 61.824 1289.78 62.24 1287.76 62.24C1284.47 62.24 1281.86 61.328 1279.94 59.504C1278.05 57.648 1277.11 54.944 1277.11 51.392V36.752H1280.51V51.056C1280.51 53.712 1281.17 55.728 1282.48 57.104C1283.79 58.48 1285.67 59.168 1288.1 59.168C1290.75 59.168 1292.85 58.368 1294.39 56.768C1295.92 55.136 1296.69 52.88 1296.69 50V36.752H1300.1ZM1322.94 60.464C1322.3 61.04 1321.5 61.488 1320.54 61.808C1319.61 62.096 1318.63 62.24 1317.61 62.24C1315.24 62.24 1313.42 61.6 1312.14 60.32C1310.86 59.04 1310.22 57.232 1310.22 54.896V39.632H1305.71V36.752H1310.22V31.232H1313.63V36.752H1321.31V39.632H1313.63V54.704C1313.63 56.208 1313.99 57.36 1314.73 58.16C1315.5 58.928 1316.59 59.312 1317.99 59.312C1318.7 59.312 1319.37 59.2 1320.01 58.976C1320.68 58.752 1321.26 58.432 1321.74 58.016L1322.94 60.464Z" fill="black"/>
<rect width="996" height="52" fill="black" fill-opacity="0" transform="translate(222 160)"/>
<rect x="496" y="160" width="545" height="52" fill="#C4C4C4"/>
<path d="M250.468 195.216C248.596 195.216 246.796 194.916 245.068 194.316C243.364 193.716 242.044 192.924 241.108 191.94L242.152 189.888C243.064 190.8 244.276 191.544 245.788 192.12C247.3 192.672 248.86 192.948 250.468 192.948C252.724 192.948 254.416 192.54 255.544 191.724C256.672 190.884 257.236 189.804 257.236 188.484C257.236 187.476 256.924 186.672 256.3 186.072C255.7 185.472 254.956 185.016 254.068 184.704C253.18 184.368 251.944 184.008 250.36 183.624C248.464 183.144 246.952 182.688 245.824 182.256C244.696 181.8 243.724 181.116 242.908 180.204C242.116 179.292 241.72 178.056 241.72 176.496C241.72 175.224 242.056 174.072 242.728 173.04C243.4 171.984 244.432 171.144 245.824 170.52C247.216 169.896 248.944 169.584 251.008 169.584C252.448 169.584 253.852 169.788 255.22 170.196C256.612 170.58 257.812 171.12 258.82 171.816L257.92 173.94C256.864 173.244 255.736 172.728 254.536 172.392C253.336 172.032 252.16 171.852 251.008 171.852C248.8 171.852 247.132 172.284 246.004 173.148C244.9 173.988 244.348 175.08 244.348 176.424C244.348 177.432 244.648 178.248 245.248 178.872C245.872 179.472 246.64 179.94 247.552 180.276C248.488 180.588 249.736 180.936 251.296 181.32C253.144 181.776 254.632 182.232 255.76 182.688C256.912 183.12 257.884 183.792 258.676 184.704C259.468 185.592 259.864 186.804 259.864 188.34C259.864 189.612 259.516 190.776 258.82 191.832C258.148 192.864 257.104 193.692 255.688 194.316C254.272 194.916 252.532 195.216 250.468 195.216ZM281.616 186.324H265.776C265.92 188.292 266.676 189.888 268.044 191.112C269.412 192.312 271.14 192.912 273.228 192.912C274.404 192.912 275.484 192.708 276.468 192.3C277.452 191.868 278.304 191.244 279.024 190.428L280.464 192.084C279.624 193.092 278.568 193.86 277.296 194.388C276.048 194.916 274.668 195.18 273.156 195.18C271.212 195.18 269.484 194.772 267.972 193.956C266.484 193.116 265.32 191.964 264.48 190.5C263.64 189.036 263.22 187.38 263.22 185.532C263.22 183.684 263.616 182.028 264.408 180.564C265.224 179.1 266.328 177.96 267.72 177.144C269.136 176.328 270.72 175.92 272.472 175.92C274.224 175.92 275.796 176.328 277.188 177.144C278.58 177.96 279.672 179.1 280.464 180.564C281.256 182.004 281.652 183.66 281.652 185.532L281.616 186.324ZM272.472 178.116C270.648 178.116 269.112 178.704 267.864 179.88C266.64 181.032 265.944 182.544 265.776 184.416H279.204C279.036 182.544 278.328 181.032 277.08 179.88C275.856 178.704 274.32 178.116 272.472 178.116ZM292.952 175.92C295.424 175.92 297.32 176.544 298.64 177.792C299.96 179.016 300.62 180.84 300.62 183.264V195H298.172V192.048C297.596 193.032 296.744 193.8 295.616 194.352C294.512 194.904 293.192 195.18 291.656 195.18C289.544 195.18 287.864 194.676 286.616 193.668C285.368 192.66 284.744 191.328 284.744 189.672C284.744 188.064 285.32 186.768 286.472 185.784C287.648 184.8 289.508 184.308 292.052 184.308H298.064V183.156C298.064 181.524 297.608 180.288 296.696 179.448C295.784 178.584 294.452 178.152 292.7 178.152C291.5 178.152 290.348 178.356 289.244 178.764C288.14 179.148 287.192 179.688 286.4 180.384L285.248 178.476C286.208 177.66 287.36 177.036 288.704 176.604C290.048 176.148 291.464 175.92 292.952 175.92ZM292.052 193.164C293.492 193.164 294.728 192.84 295.76 192.192C296.792 191.52 297.56 190.56 298.064 189.312V186.216H292.124C288.884 186.216 287.264 187.344 287.264 189.6C287.264 190.704 287.684 191.58 288.524 192.228C289.364 192.852 290.54 193.164 292.052 193.164ZM310.01 179.772C310.61 178.5 311.498 177.54 312.674 176.892C313.874 176.244 315.35 175.92 317.102 175.92V178.404L316.49 178.368C314.498 178.368 312.938 178.98 311.81 180.204C310.682 181.428 310.118 183.144 310.118 185.352V195H307.562V176.064H310.01V179.772ZM329.402 195.18C327.53 195.18 325.85 194.772 324.362 193.956C322.898 193.14 321.746 192 320.906 190.536C320.066 189.048 319.646 187.38 319.646 185.532C319.646 183.684 320.066 182.028 320.906 180.564C321.746 179.1 322.898 177.96 324.362 177.144C325.85 176.328 327.53 175.92 329.402 175.92C331.034 175.92 332.486 176.244 333.758 176.892C335.054 177.516 336.074 178.44 336.818 179.664L334.91 180.96C334.286 180.024 333.494 179.328 332.534 178.872C331.574 178.392 330.53 178.152 329.402 178.152C328.034 178.152 326.798 178.464 325.694 179.088C324.614 179.688 323.762 180.552 323.138 181.68C322.538 182.808 322.238 184.092 322.238 185.532C322.238 186.996 322.538 188.292 323.138 189.42C323.762 190.524 324.614 191.388 325.694 192.012C326.798 192.612 328.034 192.912 329.402 192.912C330.53 192.912 331.574 192.684 332.534 192.228C333.494 191.772 334.286 191.076 334.91 190.14L336.818 191.436C336.074 192.66 335.054 193.596 333.758 194.244C332.462 194.868 331.01 195.18 329.402 195.18ZM351.206 175.92C353.582 175.92 355.466 176.616 356.858 178.008C358.274 179.376 358.982 181.38 358.982 184.02V195H356.426V184.272C356.426 182.304 355.934 180.804 354.95 179.772C353.966 178.74 352.562 178.224 350.738 178.224C348.698 178.224 347.078 178.836 345.878 180.06C344.702 181.26 344.114 182.928 344.114 185.064V195H341.558V168.288H344.114V179.376C344.81 178.272 345.77 177.42 346.994 176.82C348.218 176.22 349.622 175.92 351.206 175.92ZM386.827 195.216C384.331 195.216 382.075 194.664 380.059 193.56C378.067 192.456 376.495 190.932 375.343 188.988C374.215 187.02 373.651 184.824 373.651 182.4C373.651 179.976 374.215 177.792 375.343 175.848C376.495 173.88 378.079 172.344 380.095 171.24C382.111 170.136 384.367 169.584 386.863 169.584C388.735 169.584 390.463 169.896 392.047 170.52C393.631 171.144 394.975 172.056 396.079 173.256L394.387 174.948C392.419 172.956 389.935 171.96 386.935 171.96C384.943 171.96 383.131 172.416 381.499 173.328C379.867 174.24 378.583 175.488 377.647 177.072C376.735 178.656 376.279 180.432 376.279 182.4C376.279 184.368 376.735 186.144 377.647 187.728C378.583 189.312 379.867 190.56 381.499 191.472C383.131 192.384 384.943 192.84 386.935 192.84C389.959 192.84 392.443 191.832 394.387 189.816L396.079 191.508C394.975 192.708 393.619 193.632 392.011 194.28C390.427 194.904 388.699 195.216 386.827 195.216ZM401.218 176.064H403.774V195H401.218V176.064ZM402.514 171.924C401.986 171.924 401.542 171.744 401.182 171.384C400.822 171.024 400.642 170.592 400.642 170.088C400.642 169.608 400.822 169.188 401.182 168.828C401.542 168.468 401.986 168.288 402.514 168.288C403.042 168.288 403.486 168.468 403.846 168.828C404.206 169.164 404.386 169.572 404.386 170.052C404.386 170.58 404.206 171.024 403.846 171.384C403.486 171.744 403.042 171.924 402.514 171.924ZM420.858 193.848C420.378 194.28 419.778 194.616 419.058 194.856C418.362 195.072 417.63 195.18 416.862 195.18C415.086 195.18 413.718 194.7 412.758 193.74C411.798 192.78 411.318 191.424 411.318 189.672V178.224H407.934V176.064H411.318V171.924H413.874V176.064H419.634V178.224H413.874V189.528C413.874 190.656 414.15 191.52 414.702 192.12C415.278 192.696 416.094 192.984 417.15 192.984C417.678 192.984 418.182 192.9 418.662 192.732C419.166 192.564 419.598 192.324 419.958 192.012L420.858 193.848ZM425.511 176.064H428.067V195H425.511V176.064ZM426.807 171.924C426.279 171.924 425.835 171.744 425.475 171.384C425.115 171.024 424.935 170.592 424.935 170.088C424.935 169.608 425.115 169.188 425.475 168.828C425.835 168.468 426.279 168.288 426.807 168.288C427.335 168.288 427.779 168.468 428.139 168.828C428.499 169.164 428.679 169.572 428.679 170.052C428.679 170.58 428.499 171.024 428.139 171.384C427.779 171.744 427.335 171.924 426.807 171.924ZM451.667 186.324H435.827C435.971 188.292 436.727 189.888 438.095 191.112C439.463 192.312 441.191 192.912 443.279 192.912C444.455 192.912 445.535 192.708 446.519 192.3C447.503 191.868 448.355 191.244 449.075 190.428L450.515 192.084C449.675 193.092 448.619 193.86 447.347 194.388C446.099 194.916 444.719 195.18 443.207 195.18C441.263 195.18 439.535 194.772 438.023 193.956C436.535 193.116 435.371 191.964 434.531 190.5C433.691 189.036 433.271 187.38 433.271 185.532C433.271 183.684 433.667 182.028 434.459 180.564C435.275 179.1 436.379 177.96 437.771 177.144C439.187 176.328 440.771 175.92 442.523 175.92C444.275 175.92 445.847 176.328 447.239 177.144C448.631 177.96 449.723 179.1 450.515 180.564C451.307 182.004 451.703 183.66 451.703 185.532L451.667 186.324ZM442.523 178.116C440.699 178.116 439.163 178.704 437.915 179.88C436.691 181.032 435.995 182.544 435.827 184.416H449.255C449.087 182.544 448.379 181.032 447.131 179.88C445.907 178.704 444.371 178.116 442.523 178.116ZM461.982 195.18C460.446 195.18 458.97 194.964 457.554 194.532C456.162 194.076 455.07 193.512 454.278 192.84L455.43 190.824C456.222 191.448 457.218 191.964 458.418 192.372C459.618 192.756 460.866 192.948 462.162 192.948C463.89 192.948 465.162 192.684 465.978 192.156C466.818 191.604 467.238 190.836 467.238 189.852C467.238 189.156 467.01 188.616 466.554 188.232C466.098 187.824 465.522 187.524 464.826 187.332C464.13 187.116 463.206 186.912 462.054 186.72C460.518 186.432 459.282 186.144 458.346 185.856C457.41 185.544 456.606 185.028 455.934 184.308C455.286 183.588 454.962 182.592 454.962 181.32C454.962 179.736 455.622 178.44 456.942 177.432C458.262 176.424 460.098 175.92 462.45 175.92C463.674 175.92 464.898 176.088 466.122 176.424C467.346 176.736 468.354 177.156 469.146 177.684L468.03 179.736C466.47 178.656 464.61 178.116 462.45 178.116C460.818 178.116 459.582 178.404 458.742 178.98C457.926 179.556 457.518 180.312 457.518 181.248C457.518 181.968 457.746 182.544 458.202 182.976C458.682 183.408 459.27 183.732 459.966 183.948C460.662 184.14 461.622 184.344 462.846 184.56C464.358 184.848 465.57 185.136 466.482 185.424C467.394 185.712 468.174 186.204 468.822 186.9C469.47 187.596 469.794 188.556 469.794 189.78C469.794 191.436 469.098 192.756 467.706 193.74C466.338 194.7 464.43 195.18 461.982 195.18ZM474.771 179.844C474.243 179.844 473.787 179.652 473.403 179.268C473.043 178.884 472.863 178.416 472.863 177.864C472.863 177.312 473.043 176.856 473.403 176.496C473.787 176.112 474.243 175.92 474.771 175.92C475.299 175.92 475.755 176.112 476.139 176.496C476.523 176.856 476.715 177.312 476.715 177.864C476.715 178.416 476.523 178.884 476.139 179.268C475.755 179.652 475.299 179.844 474.771 179.844ZM474.771 195.18C474.243 195.18 473.787 194.988 473.403 194.604C473.043 194.22 472.863 193.752 472.863 193.2C472.863 192.648 473.043 192.192 473.403 191.832C473.787 191.448 474.243 191.256 474.771 191.256C475.299 191.256 475.755 191.448 476.139 191.832C476.523 192.192 476.715 192.648 476.715 193.2C476.715 193.752 476.523 194.22 476.139 194.604C475.755 194.988 475.299 195.18 474.771 195.18Z" fill="black"/>
<rect x="1060" y="161" width="158" height="49" rx="24.5" fill="#C4C4C4"/>
<path d="M1101.95 192.144C1100.71 192.144 1099.51 191.944 1098.35 191.544C1097.22 191.144 1096.34 190.616 1095.71 189.96L1096.41 188.592C1097.02 189.2 1097.83 189.696 1098.83 190.08C1099.84 190.448 1100.88 190.632 1101.95 190.632C1103.46 190.632 1104.59 190.36 1105.34 189.816C1106.09 189.256 1106.47 188.536 1106.47 187.656C1106.47 186.984 1106.26 186.448 1105.84 186.048C1105.44 185.648 1104.95 185.344 1104.35 185.136C1103.76 184.912 1102.94 184.672 1101.88 184.416C1100.62 184.096 1099.61 183.792 1098.86 183.504C1098.11 183.2 1097.46 182.744 1096.91 182.136C1096.39 181.528 1096.12 180.704 1096.12 179.664C1096.12 178.816 1096.35 178.048 1096.79 177.36C1097.24 176.656 1097.93 176.096 1098.86 175.68C1099.79 175.264 1100.94 175.056 1102.31 175.056C1103.27 175.056 1104.21 175.192 1105.12 175.464C1106.05 175.72 1106.85 176.08 1107.52 176.544L1106.92 177.96C1106.22 177.496 1105.47 177.152 1104.67 176.928C1103.87 176.688 1103.08 176.568 1102.31 176.568C1100.84 176.568 1099.73 176.856 1098.98 177.432C1098.24 177.992 1097.87 178.72 1097.87 179.616C1097.87 180.288 1098.07 180.832 1098.47 181.248C1098.89 181.648 1099.4 181.96 1100.01 182.184C1100.63 182.392 1101.47 182.624 1102.51 182.88C1103.74 183.184 1104.73 183.488 1105.48 183.792C1106.25 184.08 1106.9 184.528 1107.43 185.136C1107.95 185.728 1108.22 186.536 1108.22 187.56C1108.22 188.408 1107.99 189.184 1107.52 189.888C1107.07 190.576 1106.38 191.128 1105.43 191.544C1104.49 191.944 1103.33 192.144 1101.95 192.144ZM1123.1 179.376V192H1121.47V189.696C1121.02 190.464 1120.41 191.064 1119.62 191.496C1118.84 191.912 1117.94 192.12 1116.94 192.12C1115.29 192.12 1113.98 191.664 1113.02 190.752C1112.08 189.824 1111.61 188.472 1111.61 186.696V179.376H1113.31V186.528C1113.31 187.856 1113.64 188.864 1114.3 189.552C1114.95 190.24 1115.89 190.584 1117.1 190.584C1118.43 190.584 1119.48 190.184 1120.25 189.384C1121.02 188.568 1121.4 187.44 1121.4 186V179.376H1123.1ZM1134.38 179.28C1135.56 179.28 1136.64 179.552 1137.6 180.096C1138.56 180.624 1139.31 181.376 1139.85 182.352C1140.4 183.328 1140.67 184.44 1140.67 185.688C1140.67 186.936 1140.4 188.048 1139.85 189.024C1139.31 190 1138.56 190.76 1137.6 191.304C1136.64 191.848 1135.56 192.12 1134.38 192.12C1133.32 192.12 1132.37 191.896 1131.52 191.448C1130.69 191 1130.02 190.352 1129.51 189.504V192H1127.88V174.192H1129.58V181.776C1130.11 180.96 1130.78 180.344 1131.6 179.928C1132.43 179.496 1133.36 179.28 1134.38 179.28ZM1134.26 190.608C1135.14 190.608 1135.94 190.408 1136.66 190.008C1137.38 189.592 1137.94 189.008 1138.34 188.256C1138.76 187.504 1138.96 186.648 1138.96 185.688C1138.96 184.728 1138.76 183.872 1138.34 183.12C1137.94 182.368 1137.38 181.792 1136.66 181.392C1135.94 180.976 1135.14 180.768 1134.26 180.768C1133.36 180.768 1132.56 180.976 1131.84 181.392C1131.13 181.792 1130.57 182.368 1130.16 183.12C1129.76 183.872 1129.56 184.728 1129.56 185.688C1129.56 186.648 1129.76 187.504 1130.16 188.256C1130.57 189.008 1131.13 189.592 1131.84 190.008C1132.56 190.408 1133.36 190.608 1134.26 190.608ZM1159.89 179.28C1161.47 179.28 1162.71 179.736 1163.61 180.648C1164.52 181.56 1164.97 182.904 1164.97 184.68V192H1163.27V184.848C1163.27 183.536 1162.95 182.536 1162.31 181.848C1161.69 181.16 1160.8 180.816 1159.65 180.816C1158.33 180.816 1157.3 181.224 1156.55 182.04C1155.8 182.84 1155.42 183.952 1155.42 185.376V192H1153.72V184.848C1153.72 183.536 1153.4 182.536 1152.76 181.848C1152.13 181.16 1151.24 180.816 1150.07 180.816C1148.77 180.816 1147.74 181.224 1146.97 182.04C1146.22 182.84 1145.85 183.952 1145.85 185.376V192H1144.14V179.376H1145.77V181.68C1146.22 180.912 1146.85 180.32 1147.65 179.904C1148.45 179.488 1149.37 179.28 1150.41 179.28C1151.46 179.28 1152.37 179.504 1153.14 179.952C1153.93 180.4 1154.51 181.064 1154.89 181.944C1155.36 181.112 1156.02 180.464 1156.89 180C1157.77 179.52 1158.77 179.28 1159.89 179.28ZM1169.59 179.376H1171.3V192H1169.59V179.376ZM1170.46 176.616C1170.11 176.616 1169.81 176.496 1169.57 176.256C1169.33 176.016 1169.21 175.728 1169.21 175.392C1169.21 175.072 1169.33 174.792 1169.57 174.552C1169.81 174.312 1170.11 174.192 1170.46 174.192C1170.81 174.192 1171.11 174.312 1171.35 174.552C1171.59 174.776 1171.71 175.048 1171.71 175.368C1171.71 175.72 1171.59 176.016 1171.35 176.256C1171.11 176.496 1170.81 176.616 1170.46 176.616ZM1182.69 191.232C1182.37 191.52 1181.97 191.744 1181.49 191.904C1181.02 192.048 1180.54 192.12 1180.02 192.12C1178.84 192.12 1177.93 191.8 1177.29 191.16C1176.65 190.52 1176.33 189.616 1176.33 188.448V180.816H1174.07V179.376H1176.33V176.616H1178.03V179.376H1181.87V180.816H1178.03V188.352C1178.03 189.104 1178.22 189.68 1178.58 190.08C1178.97 190.464 1179.51 190.656 1180.22 190.656C1180.57 190.656 1180.9 190.6 1181.22 190.488C1181.56 190.376 1181.85 190.216 1182.09 190.008L1182.69 191.232Z" fill="black"/>
<path d="M374.067 522.864C364.083 522.864 355.059 520.656 346.995 516.24C339.027 511.824 332.739 505.728 328.131 497.952C323.619 490.08 321.363 481.296 321.363 471.6C321.363 461.904 323.619 453.168 328.131 445.392C332.739 437.52 339.075 431.376 347.139 426.96C355.203 422.544 364.227 420.336 374.211 420.336C381.699 420.336 388.611 421.584 394.947 424.08C401.283 426.576 406.659 430.224 411.075 435.024L404.307 441.792C396.435 433.824 386.499 429.84 374.499 429.84C366.531 429.84 359.283 431.664 352.755 435.312C346.227 438.96 341.091 443.952 337.347 450.288C333.699 456.624 331.875 463.728 331.875 471.6C331.875 479.472 333.699 486.576 337.347 492.912C341.091 499.248 346.227 504.24 352.755 507.888C359.283 511.536 366.531 513.36 374.499 513.36C386.595 513.36 396.531 509.328 404.307 501.264L411.075 508.032C406.659 512.832 401.235 516.528 394.803 519.12C388.467 521.616 381.555 522.864 374.067 522.864ZM433.791 421.2H444.447V522H433.791V421.2ZM496.828 430.416H461.404V421.2H542.908V430.416H507.484V522H496.828V430.416ZM593.789 487.152V522H583.277V487.152L542.957 421.2H554.333L588.893 477.792L623.453 421.2H634.109L593.789 487.152ZM772.562 421.2V522H763.778L698.978 440.208V522H688.322V421.2H697.106L762.05 502.992V421.2H772.562ZM868.679 495.072H812.519L800.423 522H789.335L835.415 421.2H845.927L892.007 522H880.775L868.679 495.072ZM864.791 486.432L840.599 432.288L816.407 486.432H864.791ZM1013.37 421.2V522H1003.15V441.36L963.546 509.184H958.506L918.906 441.792V522H908.682V421.2H917.466L961.242 495.936L1004.59 421.2H1013.37ZM1117.49 512.784V522H1046.21V421.2H1115.33V430.416H1056.87V466.272H1109V475.344H1056.87V512.784H1117.49Z" fill="black"/>
<path d="M564.041 591.288C561.545 591.288 559.145 590.888 556.841 590.088C554.569 589.288 552.809 588.232 551.561 586.92L552.953 584.184C554.169 585.4 555.785 586.392 557.801 587.16C559.817 587.896 561.897 588.264 564.041 588.264C567.049 588.264 569.305 587.72 570.809 586.632C572.313 585.512 573.065 584.072 573.065 582.312C573.065 580.968 572.649 579.896 571.817 579.096C571.017 578.296 570.025 577.688 568.841 577.272C567.657 576.824 566.009 576.344 563.897 575.832C561.369 575.192 559.353 574.584 557.849 574.008C556.345 573.4 555.049 572.488 553.961 571.272C552.905 570.056 552.377 568.408 552.377 566.328C552.377 564.632 552.825 563.096 553.721 561.72C554.617 560.312 555.993 559.192 557.849 558.36C559.705 557.528 562.009 557.112 564.761 557.112C566.681 557.112 568.553 557.384 570.377 557.928C572.233 558.44 573.833 559.16 575.177 560.088L573.977 562.92C572.569 561.992 571.065 561.304 569.465 560.856C567.865 560.376 566.297 560.136 564.761 560.136C561.817 560.136 559.593 560.712 558.089 561.864C556.617 562.984 555.881 564.44 555.881 566.232C555.881 567.576 556.281 568.664 557.081 569.496C557.913 570.296 558.937 570.92 560.153 571.368C561.401 571.784 563.065 572.248 565.145 572.76C567.609 573.368 569.593 573.976 571.097 574.584C572.633 575.16 573.929 576.056 574.985 577.272C576.041 578.456 576.569 580.072 576.569 582.12C576.569 583.816 576.105 585.368 575.177 586.776C574.281 588.152 572.889 589.256 571.001 590.088C569.113 590.888 566.793 591.288 564.041 591.288ZM596.884 589.464C596.244 590.04 595.444 590.488 594.484 590.808C593.556 591.096 592.58 591.24 591.556 591.24C589.188 591.24 587.364 590.6 586.084 589.32C584.804 588.04 584.164 586.232 584.164 583.896V568.632H579.652V565.752H584.164V560.232H587.572V565.752H595.252V568.632H587.572V583.704C587.572 585.208 587.94 586.36 588.676 587.16C589.444 587.928 590.532 588.312 591.94 588.312C592.644 588.312 593.316 588.2 593.956 587.976C594.628 587.752 595.204 587.432 595.684 587.016L596.884 589.464ZM611.92 565.56C615.216 565.56 617.744 566.392 619.504 568.056C621.264 569.688 622.144 572.12 622.144 575.352V591H618.88V587.064C618.112 588.376 616.976 589.4 615.472 590.136C614 590.872 612.24 591.24 610.192 591.24C607.376 591.24 605.136 590.568 603.472 589.224C601.808 587.88 600.976 586.104 600.976 583.896C600.976 581.752 601.744 580.024 603.28 578.712C604.848 577.4 607.328 576.744 610.72 576.744H618.736V575.208C618.736 573.032 618.128 571.384 616.912 570.264C615.696 569.112 613.92 568.536 611.584 568.536C609.984 568.536 608.448 568.808 606.976 569.352C605.504 569.864 604.24 570.584 603.184 571.512L601.648 568.968C602.928 567.88 604.464 567.048 606.256 566.472C608.048 565.864 609.936 565.56 611.92 565.56ZM610.72 588.552C612.64 588.552 614.288 588.12 615.664 587.256C617.04 586.36 618.064 585.08 618.736 583.416V579.288H610.816C606.496 579.288 604.336 580.792 604.336 583.8C604.336 585.272 604.896 586.44 606.016 587.304C607.136 588.136 608.704 588.552 610.72 588.552ZM644.696 589.464C644.056 590.04 643.256 590.488 642.296 590.808C641.368 591.096 640.392 591.24 639.368 591.24C637 591.24 635.176 590.6 633.896 589.32C632.616 588.04 631.976 586.232 631.976 583.896V568.632H627.464V565.752H631.976V560.232H635.384V565.752H643.064V568.632H635.384V583.704C635.384 585.208 635.752 586.36 636.488 587.16C637.256 587.928 638.344 588.312 639.752 588.312C640.456 588.312 641.128 588.2 641.768 587.976C642.44 587.752 643.016 587.432 643.496 587.016L644.696 589.464ZM671.994 579.432H650.874C651.066 582.056 652.074 584.184 653.898 585.816C655.722 587.416 658.026 588.216 660.81 588.216C662.378 588.216 663.818 587.944 665.13 587.4C666.442 586.824 667.578 585.992 668.538 584.904L670.458 587.112C669.338 588.456 667.93 589.48 666.234 590.184C664.57 590.888 662.73 591.24 660.714 591.24C658.122 591.24 655.818 590.696 653.802 589.608C651.818 588.488 650.266 586.952 649.146 585C648.026 583.048 647.466 580.84 647.466 578.376C647.466 575.912 647.994 573.704 649.05 571.752C650.138 569.8 651.61 568.28 653.466 567.192C655.354 566.104 657.466 565.56 659.802 565.56C662.138 565.56 664.234 566.104 666.09 567.192C667.946 568.28 669.402 569.8 670.458 571.752C671.514 573.672 672.042 575.88 672.042 578.376L671.994 579.432ZM659.802 568.488C657.37 568.488 655.322 569.272 653.658 570.84C652.026 572.376 651.098 574.392 650.874 576.888H668.778C668.554 574.392 667.61 572.376 665.946 570.84C664.314 569.272 662.266 568.488 659.802 568.488ZM679.363 586.008C680.099 586.008 680.707 586.264 681.187 586.776C681.667 587.256 681.907 587.864 681.907 588.6C681.907 588.984 681.843 589.4 681.715 589.848C681.619 590.296 681.459 590.808 681.235 591.384L679.219 598.008H676.915L678.547 591.048C678.035 590.888 677.619 590.6 677.299 590.184C676.979 589.736 676.819 589.208 676.819 588.6C676.819 587.864 677.059 587.256 677.539 586.776C678.019 586.264 678.627 586.008 679.363 586.008ZM717.025 591.288C713.697 591.288 710.689 590.552 708.001 589.08C705.345 587.608 703.249 585.576 701.713 582.984C700.209 580.36 699.457 577.432 699.457 574.2C699.457 570.968 700.209 568.056 701.713 565.464C703.249 562.84 705.361 560.792 708.049 559.32C710.737 557.848 713.745 557.112 717.073 557.112C719.569 557.112 721.873 557.528 723.985 558.36C726.097 559.192 727.889 560.408 729.361 562.008L727.105 564.264C724.481 561.608 721.169 560.28 717.169 560.28C714.513 560.28 712.097 560.888 709.921 562.104C707.745 563.32 706.033 564.984 704.785 567.096C703.569 569.208 702.961 571.576 702.961 574.2C702.961 576.824 703.569 579.192 704.785 581.304C706.033 583.416 707.745 585.08 709.921 586.296C712.097 587.512 714.513 588.12 717.169 588.12C721.201 588.12 724.513 586.776 727.105 584.088L729.361 586.344C727.889 587.944 726.081 589.176 723.937 590.04C721.825 590.872 719.521 591.288 717.025 591.288ZM745.408 591.24C742.976 591.24 740.784 590.696 738.832 589.608C736.88 588.488 735.344 586.952 734.224 585C733.104 583.048 732.544 580.84 732.544 578.376C732.544 575.912 733.104 573.704 734.224 571.752C735.344 569.8 736.88 568.28 738.832 567.192C740.784 566.104 742.976 565.56 745.408 565.56C747.84 565.56 750.032 566.104 751.984 567.192C753.936 568.28 755.456 569.8 756.544 571.752C757.664 573.704 758.224 575.912 758.224 578.376C758.224 580.84 757.664 583.048 756.544 585C755.456 586.952 753.936 588.488 751.984 589.608C750.032 590.696 747.84 591.24 745.408 591.24ZM745.408 588.216C747.2 588.216 748.8 587.816 750.208 587.016C751.648 586.184 752.768 585.016 753.568 583.512C754.368 582.008 754.768 580.296 754.768 578.376C754.768 576.456 754.368 574.744 753.568 573.24C752.768 571.736 751.648 570.584 750.208 569.784C748.8 568.952 747.2 568.536 745.408 568.536C743.616 568.536 742 568.952 740.56 569.784C739.152 570.584 738.032 571.736 737.2 573.24C736.4 574.744 736 576.456 736 578.376C736 580.296 736.4 582.008 737.2 583.512C738.032 585.016 739.152 586.184 740.56 587.016C742 587.816 743.616 588.216 745.408 588.216ZM787.934 565.752V591H784.67V586.392C783.774 587.928 782.542 589.128 780.974 589.992C779.406 590.824 777.614 591.24 775.598 591.24C772.302 591.24 769.694 590.328 767.774 588.504C765.886 586.648 764.942 583.944 764.942 580.392V565.752H768.35V580.056C768.35 582.712 769.006 584.728 770.318 586.104C771.63 587.48 773.502 588.168 775.934 588.168C778.59 588.168 780.686 587.368 782.222 585.768C783.758 584.136 784.526 581.88 784.526 579V565.752H787.934ZM810.343 565.56C813.511 565.56 816.023 566.488 817.879 568.344C819.767 570.168 820.711 572.84 820.711 576.36V591H817.303V576.696C817.303 574.072 816.647 572.072 815.335 570.696C814.023 569.32 812.151 568.632 809.719 568.632C806.999 568.632 804.839 569.448 803.239 571.08C801.671 572.68 800.887 574.904 800.887 577.752V591H797.479V565.752H800.743V570.408C801.671 568.872 802.951 567.688 804.583 566.856C806.247 565.992 808.167 565.56 810.343 565.56ZM843.259 589.464C842.619 590.04 841.819 590.488 840.859 590.808C839.931 591.096 838.955 591.24 837.931 591.24C835.563 591.24 833.739 590.6 832.459 589.32C831.179 588.04 830.539 586.232 830.539 583.896V568.632H826.027V565.752H830.539V560.232H833.947V565.752H841.627V568.632H833.947V583.704C833.947 585.208 834.315 586.36 835.051 587.16C835.819 587.928 836.907 588.312 838.315 588.312C839.019 588.312 839.691 588.2 840.331 587.976C841.003 587.752 841.579 587.432 842.059 587.016L843.259 589.464ZM852.727 570.696C853.527 569 854.711 567.72 856.279 566.856C857.879 565.992 859.847 565.56 862.183 565.56V568.872L861.367 568.824C858.711 568.824 856.631 569.64 855.127 571.272C853.623 572.904 852.871 575.192 852.871 578.136V591H849.463V565.752H852.727V570.696ZM890.648 565.752L878.024 594.024C877 596.392 875.816 598.072 874.472 599.064C873.128 600.056 871.512 600.552 869.624 600.552C868.408 600.552 867.272 600.36 866.216 599.976C865.16 599.592 864.248 599.016 863.48 598.248L865.064 595.704C866.344 596.984 867.88 597.624 869.672 597.624C870.824 597.624 871.8 597.304 872.6 596.664C873.432 596.024 874.2 594.936 874.904 593.4L876.008 590.952L864.728 565.752H868.28L877.784 587.208L887.288 565.752H890.648ZM667.699 616.4H681.379C684.931 616.4 688.067 617.12 690.787 618.56C693.507 619.968 695.619 621.952 697.123 624.512C698.627 627.04 699.379 629.936 699.379 633.2C699.379 636.464 698.627 639.376 697.123 641.936C695.619 644.464 693.507 646.448 690.787 647.888C688.067 649.296 684.931 650 681.379 650H667.699V616.4ZM681.187 646.928C684.131 646.928 686.707 646.352 688.915 645.2C691.123 644.016 692.835 642.4 694.051 640.352C695.267 638.272 695.875 635.888 695.875 633.2C695.875 630.512 695.267 628.144 694.051 626.096C692.835 624.016 691.123 622.4 688.915 621.248C686.707 620.064 684.131 619.472 681.187 619.472H671.251V646.928H681.187ZM715.467 624.56C718.763 624.56 721.291 625.392 723.051 627.056C724.811 628.688 725.691 631.12 725.691 634.352V650H722.427V646.064C721.659 647.376 720.523 648.4 719.019 649.136C717.547 649.872 715.787 650.24 713.739 650.24C710.923 650.24 708.683 649.568 707.019 648.224C705.355 646.88 704.523 645.104 704.523 642.896C704.523 640.752 705.291 639.024 706.827 637.712C708.395 636.4 710.875 635.744 714.267 635.744H722.283V634.208C722.283 632.032 721.675 630.384 720.459 629.264C719.243 628.112 717.467 627.536 715.131 627.536C713.531 627.536 711.995 627.808 710.523 628.352C709.051 628.864 707.787 629.584 706.731 630.512L705.195 627.968C706.475 626.88 708.011 626.048 709.803 625.472C711.595 624.864 713.483 624.56 715.467 624.56ZM714.267 647.552C716.187 647.552 717.835 647.12 719.211 646.256C720.587 645.36 721.611 644.08 722.283 642.416V638.288H714.363C710.043 638.288 707.883 639.792 707.883 642.8C707.883 644.272 708.443 645.44 709.563 646.304C710.683 647.136 712.251 647.552 714.267 647.552ZM748.243 648.464C747.603 649.04 746.803 649.488 745.843 649.808C744.915 650.096 743.939 650.24 742.915 650.24C740.547 650.24 738.723 649.6 737.443 648.32C736.163 647.04 735.523 645.232 735.523 642.896V627.632H731.011V624.752H735.523V619.232H738.931V624.752H746.611V627.632H738.931V642.704C738.931 644.208 739.299 645.36 740.035 646.16C740.803 646.928 741.891 647.312 743.299 647.312C744.003 647.312 744.675 647.2 745.315 646.976C745.987 646.752 746.563 646.432 747.043 646.016L748.243 648.464ZM775.541 638.432H754.421C754.613 641.056 755.621 643.184 757.445 644.816C759.269 646.416 761.573 647.216 764.357 647.216C765.925 647.216 767.365 646.944 768.677 646.4C769.989 645.824 771.125 644.992 772.085 643.904L774.005 646.112C772.885 647.456 771.477 648.48 769.781 649.184C768.117 649.888 766.277 650.24 764.261 650.24C761.669 650.24 759.365 649.696 757.349 648.608C755.365 647.488 753.813 645.952 752.693 644C751.573 642.048 751.013 639.84 751.013 637.376C751.013 634.912 751.541 632.704 752.597 630.752C753.685 628.8 755.157 627.28 757.013 626.192C758.901 625.104 761.013 624.56 763.349 624.56C765.685 624.56 767.781 625.104 769.637 626.192C771.493 627.28 772.949 628.8 774.005 630.752C775.061 632.672 775.589 634.88 775.589 637.376L775.541 638.432ZM763.349 627.488C760.917 627.488 758.869 628.272 757.205 629.84C755.573 631.376 754.645 633.392 754.421 635.888H772.325C772.101 633.392 771.157 631.376 769.493 629.84C767.861 628.272 765.813 627.488 763.349 627.488ZM485.111 708.288C481.783 708.288 478.775 707.552 476.087 706.08C473.431 704.608 471.335 702.576 469.799 699.984C468.295 697.36 467.543 694.432 467.543 691.2C467.543 687.968 468.295 685.056 469.799 682.464C471.335 679.84 473.447 677.792 476.135 676.32C478.823 674.848 481.831 674.112 485.159 674.112C487.655 674.112 489.959 674.528 492.071 675.36C494.183 676.192 495.975 677.408 497.447 679.008L495.191 681.264C492.567 678.608 489.255 677.28 485.255 677.28C482.599 677.28 480.183 677.888 478.007 679.104C475.831 680.32 474.119 681.984 472.871 684.096C471.655 686.208 471.047 688.576 471.047 691.2C471.047 693.824 471.655 696.192 472.871 698.304C474.119 700.416 475.831 702.08 478.007 703.296C480.183 704.512 482.599 705.12 485.255 705.12C489.287 705.12 492.599 703.776 495.191 701.088L497.447 703.344C495.975 704.944 494.167 706.176 492.023 707.04C489.911 707.872 487.607 708.288 485.111 708.288ZM526.207 682.752V708H522.943V703.392C522.047 704.928 520.815 706.128 519.247 706.992C517.679 707.824 515.887 708.24 513.871 708.24C510.575 708.24 507.967 707.328 506.047 705.504C504.159 703.648 503.215 700.944 503.215 697.392V682.752H506.623V697.056C506.623 699.712 507.279 701.728 508.591 703.104C509.903 704.48 511.775 705.168 514.207 705.168C516.863 705.168 518.959 704.368 520.495 702.768C522.031 701.136 522.799 698.88 522.799 696V682.752H526.207ZM539.016 687.696C539.816 686 541 684.72 542.568 683.856C544.168 682.992 546.136 682.56 548.472 682.56V685.872L547.656 685.824C545 685.824 542.92 686.64 541.416 688.272C539.912 689.904 539.16 692.192 539.16 695.136V708H535.752V682.752H539.016V687.696ZM557.907 687.696C558.707 686 559.891 684.72 561.459 683.856C563.059 682.992 565.027 682.56 567.363 682.56V685.872L566.547 685.824C563.891 685.824 561.811 686.64 560.307 688.272C558.803 689.904 558.051 692.192 558.051 695.136V708H554.643V682.752H557.907V687.696ZM595.283 696.432H574.163C574.355 699.056 575.363 701.184 577.187 702.816C579.011 704.416 581.315 705.216 584.099 705.216C585.667 705.216 587.107 704.944 588.419 704.4C589.731 703.824 590.867 702.992 591.827 701.904L593.747 704.112C592.627 705.456 591.219 706.48 589.523 707.184C587.859 707.888 586.019 708.24 584.003 708.24C581.411 708.24 579.107 707.696 577.091 706.608C575.107 705.488 573.555 703.952 572.435 702C571.315 700.048 570.755 697.84 570.755 695.376C570.755 692.912 571.283 690.704 572.339 688.752C573.427 686.8 574.899 685.28 576.755 684.192C578.643 683.104 580.755 682.56 583.091 682.56C585.427 682.56 587.523 683.104 589.379 684.192C591.235 685.28 592.691 686.8 593.747 688.752C594.803 690.672 595.331 692.88 595.331 695.376L595.283 696.432ZM583.091 685.488C580.659 685.488 578.611 686.272 576.947 687.84C575.315 689.376 574.387 691.392 574.163 693.888H592.067C591.843 691.392 590.899 689.376 589.235 687.84C587.603 686.272 585.555 685.488 583.091 685.488ZM615.132 682.56C618.3 682.56 620.812 683.488 622.668 685.344C624.556 687.168 625.5 689.84 625.5 693.36V708H622.092V693.696C622.092 691.072 621.436 689.072 620.124 687.696C618.812 686.32 616.94 685.632 614.508 685.632C611.788 685.632 609.628 686.448 608.028 688.08C606.46 689.68 605.676 691.904 605.676 694.752V708H602.268V682.752H605.532V687.408C606.46 685.872 607.74 684.688 609.372 683.856C611.036 682.992 612.956 682.56 615.132 682.56ZM648.048 706.464C647.408 707.04 646.608 707.488 645.648 707.808C644.72 708.096 643.744 708.24 642.72 708.24C640.352 708.24 638.528 707.6 637.248 706.32C635.968 705.04 635.328 703.232 635.328 700.896V685.632H630.816V682.752H635.328V677.232H638.736V682.752H646.416V685.632H638.736V700.704C638.736 702.208 639.104 703.36 639.84 704.16C640.608 704.928 641.696 705.312 643.104 705.312C643.808 705.312 644.48 705.2 645.12 704.976C645.792 704.752 646.368 704.432 646.848 704.016L648.048 706.464ZM674.062 677.472H662.255V674.4H689.423V677.472H677.615V708H674.062V677.472ZM713.736 696.432H692.616C692.808 699.056 693.816 701.184 695.64 702.816C697.464 704.416 699.768 705.216 702.552 705.216C704.12 705.216 705.56 704.944 706.872 704.4C708.184 703.824 709.32 702.992 710.28 701.904L712.2 704.112C711.08 705.456 709.672 706.48 707.976 707.184C706.312 707.888 704.472 708.24 702.456 708.24C699.864 708.24 697.56 707.696 695.544 706.608C693.56 705.488 692.008 703.952 690.888 702C689.768 700.048 689.208 697.84 689.208 695.376C689.208 692.912 689.736 690.704 690.792 688.752C691.88 686.8 693.352 685.28 695.208 684.192C697.096 683.104 699.208 682.56 701.544 682.56C703.88 682.56 705.976 683.104 707.832 684.192C709.688 685.28 711.144 686.8 712.2 688.752C713.256 690.672 713.784 692.88 713.784 695.376L713.736 696.432ZM701.544 685.488C699.112 685.488 697.064 686.272 695.4 687.84C693.768 689.376 692.84 691.392 692.616 693.888H710.52C710.296 691.392 709.352 689.376 707.688 687.84C706.056 686.272 704.008 685.488 701.544 685.488ZM752.209 682.56C755.377 682.56 757.857 683.472 759.649 685.296C761.473 687.12 762.385 689.808 762.385 693.36V708H758.977V693.696C758.977 691.072 758.337 689.072 757.057 687.696C755.809 686.32 754.033 685.632 751.729 685.632C749.105 685.632 747.041 686.448 745.537 688.08C744.033 689.68 743.281 691.904 743.281 694.752V708H739.873V693.696C739.873 691.072 739.233 689.072 737.953 687.696C736.705 686.32 734.913 685.632 732.577 685.632C729.985 685.632 727.921 686.448 726.385 688.08C724.881 689.68 724.129 691.904 724.129 694.752V708H720.721V682.752H723.985V687.36C724.881 685.824 726.129 684.64 727.729 683.808C729.329 682.976 731.169 682.56 733.249 682.56C735.361 682.56 737.185 683.008 738.721 683.904C740.289 684.8 741.457 686.128 742.225 687.888C743.153 686.224 744.481 684.928 746.209 684C747.969 683.04 749.969 682.56 752.209 682.56ZM784.635 682.56C787.003 682.56 789.147 683.104 791.067 684.192C792.987 685.248 794.491 686.752 795.579 688.704C796.667 690.656 797.211 692.88 797.211 695.376C797.211 697.904 796.667 700.144 795.579 702.096C794.491 704.048 792.987 705.568 791.067 706.656C789.179 707.712 787.035 708.24 784.635 708.24C782.587 708.24 780.731 707.824 779.067 706.992C777.435 706.128 776.091 704.88 775.035 703.248V717.312H771.627V682.752H774.891V687.744C775.915 686.08 777.259 684.8 778.923 683.904C780.619 683.008 782.523 682.56 784.635 682.56ZM784.395 705.216C786.155 705.216 787.755 704.816 789.195 704.016C790.635 703.184 791.755 702.016 792.555 700.512C793.387 699.008 793.803 697.296 793.803 695.376C793.803 693.456 793.387 691.76 792.555 690.288C791.755 688.784 790.635 687.616 789.195 686.784C787.755 685.952 786.155 685.536 784.395 685.536C782.603 685.536 780.987 685.952 779.547 686.784C778.139 687.616 777.019 688.784 776.187 690.288C775.387 691.76 774.987 693.456 774.987 695.376C774.987 697.296 775.387 699.008 776.187 700.512C777.019 702.016 778.139 703.184 779.547 704.016C780.987 704.816 782.603 705.216 784.395 705.216ZM826.142 696.432H805.022C805.214 699.056 806.222 701.184 808.046 702.816C809.87 704.416 812.174 705.216 814.958 705.216C816.526 705.216 817.966 704.944 819.278 704.4C820.59 703.824 821.726 702.992 822.686 701.904L824.606 704.112C823.486 705.456 822.078 706.48 820.382 707.184C818.718 707.888 816.878 708.24 814.862 708.24C812.27 708.24 809.966 707.696 807.95 706.608C805.966 705.488 804.414 703.952 803.294 702C802.174 700.048 801.614 697.84 801.614 695.376C801.614 692.912 802.142 690.704 803.198 688.752C804.286 686.8 805.758 685.28 807.614 684.192C809.502 683.104 811.614 682.56 813.95 682.56C816.286 682.56 818.382 683.104 820.238 684.192C822.094 685.28 823.55 686.8 824.606 688.752C825.662 690.672 826.19 692.88 826.19 695.376L826.142 696.432ZM813.95 685.488C811.518 685.488 809.47 686.272 807.806 687.84C806.174 689.376 805.246 691.392 805.022 693.888H822.926C822.702 691.392 821.758 689.376 820.094 687.84C818.462 686.272 816.414 685.488 813.95 685.488ZM836.391 687.696C837.191 686 838.375 684.72 839.943 683.856C841.543 682.992 843.511 682.56 845.847 682.56V685.872L845.031 685.824C842.375 685.824 840.295 686.64 838.791 688.272C837.287 689.904 836.535 692.192 836.535 695.136V708H833.127V682.752H836.391V687.696ZM860.803 682.56C864.099 682.56 866.627 683.392 868.387 685.056C870.147 686.688 871.027 689.12 871.027 692.352V708H867.763V704.064C866.995 705.376 865.859 706.4 864.355 707.136C862.883 707.872 861.123 708.24 859.075 708.24C856.259 708.24 854.019 707.568 852.355 706.224C850.691 704.88 849.859 703.104 849.859 700.896C849.859 698.752 850.627 697.024 852.163 695.712C853.731 694.4 856.211 693.744 859.603 693.744H867.619V692.208C867.619 690.032 867.011 688.384 865.795 687.264C864.579 686.112 862.803 685.536 860.467 685.536C858.867 685.536 857.331 685.808 855.859 686.352C854.387 686.864 853.123 687.584 852.067 688.512L850.531 685.968C851.811 684.88 853.347 684.048 855.139 683.472C856.931 682.864 858.819 682.56 860.803 682.56ZM859.603 705.552C861.523 705.552 863.171 705.12 864.547 704.256C865.923 703.36 866.947 702.08 867.619 700.416V696.288H859.699C855.379 696.288 853.219 697.792 853.219 700.8C853.219 702.272 853.779 703.44 854.899 704.304C856.019 705.136 857.587 705.552 859.603 705.552ZM893.579 706.464C892.939 707.04 892.139 707.488 891.179 707.808C890.251 708.096 889.275 708.24 888.251 708.24C885.883 708.24 884.059 707.6 882.779 706.32C881.499 705.04 880.859 703.232 880.859 700.896V685.632H876.347V682.752H880.859V677.232H884.267V682.752H891.947V685.632H884.267V700.704C884.267 702.208 884.635 703.36 885.371 704.16C886.139 704.928 887.227 705.312 888.635 705.312C889.339 705.312 890.011 705.2 890.651 704.976C891.323 704.752 891.899 704.432 892.379 704.016L893.579 706.464ZM922.535 682.752V708H919.271V703.392C918.375 704.928 917.143 706.128 915.575 706.992C914.007 707.824 912.215 708.24 910.199 708.24C906.903 708.24 904.295 707.328 902.375 705.504C900.487 703.648 899.543 700.944 899.543 697.392V682.752H902.951V697.056C902.951 699.712 903.607 701.728 904.919 703.104C906.231 704.48 908.103 705.168 910.535 705.168C913.191 705.168 915.287 704.368 916.823 702.768C918.359 701.136 919.127 698.88 919.127 696V682.752H922.535ZM935.344 687.696C936.144 686 937.328 684.72 938.896 683.856C940.496 682.992 942.464 682.56 944.8 682.56V685.872L943.984 685.824C941.328 685.824 939.248 686.64 937.744 688.272C936.24 689.904 935.488 692.192 935.488 695.136V708H932.08V682.752H935.344V687.696ZM972.72 696.432H951.6C951.792 699.056 952.8 701.184 954.624 702.816C956.448 704.416 958.752 705.216 961.536 705.216C963.104 705.216 964.544 704.944 965.856 704.4C967.168 703.824 968.304 702.992 969.264 701.904L971.184 704.112C970.064 705.456 968.656 706.48 966.96 707.184C965.296 707.888 963.456 708.24 961.44 708.24C958.848 708.24 956.544 707.696 954.528 706.608C952.544 705.488 950.992 703.952 949.872 702C948.752 700.048 948.192 697.84 948.192 695.376C948.192 692.912 948.72 690.704 949.776 688.752C950.864 686.8 952.336 685.28 954.192 684.192C956.08 683.104 958.192 682.56 960.528 682.56C962.864 682.56 964.96 683.104 966.816 684.192C968.672 685.28 970.128 686.8 971.184 688.752C972.24 690.672 972.768 692.88 972.768 695.376L972.72 696.432ZM960.528 685.488C958.096 685.488 956.048 686.272 954.384 687.84C952.752 689.376 951.824 691.392 951.6 693.888H969.504C969.28 691.392 968.336 689.376 966.672 687.84C965.04 686.272 962.992 685.488 960.528 685.488ZM532.161 733.4V767H528.657V751.496H507.633V767H504.081V733.4H507.633V748.376H528.657V733.4H532.161ZM542.408 741.752H545.816V767H542.408V741.752ZM544.136 736.232C543.432 736.232 542.84 735.992 542.36 735.512C541.88 735.032 541.64 734.456 541.64 733.784C541.64 733.144 541.88 732.584 542.36 732.104C542.84 731.624 543.432 731.384 544.136 731.384C544.84 731.384 545.432 731.624 545.912 732.104C546.392 732.552 546.632 733.096 546.632 733.736C546.632 734.44 546.392 735.032 545.912 735.512C545.432 735.992 544.84 736.232 544.136 736.232ZM578.675 741.752V763.928C578.675 768.216 577.619 771.384 575.507 773.432C573.427 775.512 570.275 776.552 566.051 776.552C563.715 776.552 561.491 776.2 559.379 775.496C557.299 774.824 555.603 773.88 554.291 772.664L556.019 770.072C557.235 771.16 558.707 772.008 560.435 772.616C562.195 773.224 564.035 773.528 565.955 773.528C569.155 773.528 571.507 772.776 573.011 771.272C574.515 769.8 575.267 767.496 575.267 764.36V761.144C574.211 762.744 572.819 763.96 571.091 764.792C569.395 765.624 567.507 766.04 565.427 766.04C563.059 766.04 560.899 765.528 558.947 764.504C557.027 763.448 555.507 761.992 554.387 760.136C553.299 758.248 552.755 756.12 552.755 753.752C552.755 751.384 553.299 749.272 554.387 747.416C555.507 745.56 557.027 744.12 558.947 743.096C560.867 742.072 563.027 741.56 565.427 741.56C567.571 741.56 569.507 741.992 571.235 742.856C572.963 743.72 574.355 744.968 575.411 746.6V741.752H578.675ZM565.763 763.016C567.587 763.016 569.235 762.632 570.707 761.864C572.179 761.064 573.315 759.96 574.115 758.552C574.947 757.144 575.363 755.544 575.363 753.752C575.363 751.96 574.947 750.376 574.115 749C573.315 747.592 572.179 746.504 570.707 745.736C569.267 744.936 567.619 744.536 565.763 744.536C563.939 744.536 562.291 744.92 560.819 745.688C559.379 746.456 558.243 747.544 557.411 748.952C556.611 750.36 556.211 751.96 556.211 753.752C556.211 755.544 556.611 757.144 557.411 758.552C558.243 759.96 559.379 761.064 560.819 761.864C562.291 762.632 563.939 763.016 565.763 763.016ZM601.069 741.56C604.237 741.56 606.749 742.488 608.605 744.344C610.493 746.168 611.437 748.84 611.437 752.36V767H608.029V752.696C608.029 750.072 607.373 748.072 606.061 746.696C604.749 745.32 602.877 744.632 600.445 744.632C597.725 744.632 595.565 745.448 593.965 747.08C592.397 748.68 591.613 750.904 591.613 753.752V767H588.205V731.384H591.613V746.168C592.541 744.696 593.821 743.56 595.453 742.76C597.085 741.96 598.957 741.56 601.069 741.56ZM640.5 736.472H628.692V733.4H655.86V736.472H644.052V767H640.5V736.472ZM680.174 755.432H659.054C659.246 758.056 660.254 760.184 662.078 761.816C663.902 763.416 666.206 764.216 668.99 764.216C670.558 764.216 671.998 763.944 673.31 763.4C674.622 762.824 675.758 761.992 676.718 760.904L678.638 763.112C677.518 764.456 676.11 765.48 674.414 766.184C672.75 766.888 670.91 767.24 668.894 767.24C666.302 767.24 663.998 766.696 661.982 765.608C659.998 764.488 658.446 762.952 657.326 761C656.206 759.048 655.646 756.84 655.646 754.376C655.646 751.912 656.174 749.704 657.23 747.752C658.318 745.8 659.79 744.28 661.646 743.192C663.534 742.104 665.646 741.56 667.982 741.56C670.318 741.56 672.414 742.104 674.27 743.192C676.126 744.28 677.582 745.8 678.638 747.752C679.694 749.672 680.222 751.88 680.222 754.376L680.174 755.432ZM667.982 744.488C665.55 744.488 663.502 745.272 661.838 746.84C660.206 748.376 659.278 750.392 659.054 752.888H676.958C676.734 750.392 675.79 748.376 674.126 746.84C672.494 745.272 670.446 744.488 667.982 744.488ZM718.646 741.56C721.814 741.56 724.294 742.472 726.086 744.296C727.91 746.12 728.822 748.808 728.822 752.36V767H725.414V752.696C725.414 750.072 724.774 748.072 723.494 746.696C722.246 745.32 720.47 744.632 718.166 744.632C715.542 744.632 713.478 745.448 711.974 747.08C710.47 748.68 709.718 750.904 709.718 753.752V767H706.31V752.696C706.31 750.072 705.67 748.072 704.39 746.696C703.142 745.32 701.35 744.632 699.014 744.632C696.422 744.632 694.358 745.448 692.822 747.08C691.318 748.68 690.566 750.904 690.566 753.752V767H687.158V741.752H690.422V746.36C691.318 744.824 692.566 743.64 694.166 742.808C695.766 741.976 697.606 741.56 699.686 741.56C701.798 741.56 703.622 742.008 705.158 742.904C706.726 743.8 707.894 745.128 708.662 746.888C709.59 745.224 710.918 743.928 712.646 743C714.406 742.04 716.406 741.56 718.646 741.56ZM751.073 741.56C753.441 741.56 755.585 742.104 757.505 743.192C759.425 744.248 760.929 745.752 762.017 747.704C763.105 749.656 763.649 751.88 763.649 754.376C763.649 756.904 763.105 759.144 762.017 761.096C760.929 763.048 759.425 764.568 757.505 765.656C755.617 766.712 753.473 767.24 751.073 767.24C749.025 767.24 747.169 766.824 745.505 765.992C743.873 765.128 742.529 763.88 741.473 762.248V776.312H738.065V741.752H741.329V746.744C742.353 745.08 743.697 743.8 745.361 742.904C747.057 742.008 748.961 741.56 751.073 741.56ZM750.833 764.216C752.593 764.216 754.193 763.816 755.633 763.016C757.073 762.184 758.193 761.016 758.993 759.512C759.825 758.008 760.241 756.296 760.241 754.376C760.241 752.456 759.825 750.76 758.993 749.288C758.193 747.784 757.073 746.616 755.633 745.784C754.193 744.952 752.593 744.536 750.833 744.536C749.041 744.536 747.425 744.952 745.984 745.784C744.577 746.616 743.457 747.784 742.625 749.288C741.825 750.76 741.425 752.456 741.425 754.376C741.425 756.296 741.825 758.008 742.625 759.512C743.457 761.016 744.577 762.184 745.984 763.016C747.425 763.816 749.041 764.216 750.833 764.216ZM792.58 755.432H771.46C771.652 758.056 772.66 760.184 774.484 761.816C776.308 763.416 778.612 764.216 781.396 764.216C782.964 764.216 784.404 763.944 785.716 763.4C787.028 762.824 788.164 761.992 789.124 760.904L791.044 763.112C789.924 764.456 788.516 765.48 786.82 766.184C785.156 766.888 783.316 767.24 781.3 767.24C778.708 767.24 776.404 766.696 774.388 765.608C772.404 764.488 770.852 762.952 769.732 761C768.612 759.048 768.052 756.84 768.052 754.376C768.052 751.912 768.58 749.704 769.636 747.752C770.724 745.8 772.196 744.28 774.052 743.192C775.94 742.104 778.052 741.56 780.388 741.56C782.724 741.56 784.82 742.104 786.676 743.192C788.532 744.28 789.988 745.8 791.044 747.752C792.1 749.672 792.628 751.88 792.628 754.376L792.58 755.432ZM780.388 744.488C777.956 744.488 775.908 745.272 774.244 746.84C772.612 748.376 771.684 750.392 771.46 752.888H789.364C789.14 750.392 788.196 748.376 786.532 746.84C784.9 745.272 782.852 744.488 780.388 744.488ZM802.829 746.696C803.629 745 804.813 743.72 806.381 742.856C807.981 741.992 809.949 741.56 812.285 741.56V744.872L811.469 744.824C808.812 744.824 806.733 745.64 805.229 747.272C803.725 748.904 802.973 751.192 802.973 754.136V767H799.565V741.752H802.829V746.696ZM827.24 741.56C830.536 741.56 833.064 742.392 834.824 744.056C836.584 745.688 837.464 748.12 837.464 751.352V767H834.2V763.064C833.432 764.376 832.296 765.4 830.792 766.136C829.32 766.872 827.56 767.24 825.512 767.24C822.696 767.24 820.456 766.568 818.792 765.224C817.128 763.88 816.296 762.104 816.296 759.896C816.296 757.752 817.064 756.024 818.6 754.712C820.168 753.4 822.648 752.744 826.04 752.744H834.056V751.208C834.056 749.032 833.448 747.384 832.232 746.264C831.016 745.112 829.24 744.536 826.904 744.536C825.304 744.536 823.768 744.808 822.296 745.352C820.824 745.864 819.56 746.584 818.504 747.512L816.968 744.968C818.248 743.88 819.784 743.048 821.576 742.472C823.368 741.864 825.256 741.56 827.24 741.56ZM826.04 764.552C827.96 764.552 829.608 764.12 830.984 763.256C832.36 762.36 833.384 761.08 834.056 759.416V755.288H826.136C821.816 755.288 819.656 756.792 819.656 759.8C819.656 761.272 820.216 762.44 821.336 763.304C822.456 764.136 824.024 764.552 826.04 764.552ZM860.017 765.464C859.377 766.04 858.577 766.488 857.617 766.808C856.689 767.096 855.713 767.24 854.689 767.24C852.321 767.24 850.497 766.6 849.217 765.32C847.937 764.04 847.297 762.232 847.297 759.896V744.632H842.785V741.752H847.297V736.232H850.705V741.752H858.385V744.632H850.705V759.704C850.705 761.208 851.073 762.36 851.809 763.16C852.577 763.928 853.665 764.312 855.073 764.312C855.777 764.312 856.449 764.2 857.089 763.976C857.761 763.752 858.337 763.432 858.817 763.016L860.017 765.464ZM888.973 741.752V767H885.709V762.392C884.813 763.928 883.581 765.128 882.013 765.992C880.445 766.824 878.653 767.24 876.637 767.24C873.341 767.24 870.733 766.328 868.813 764.504C866.925 762.648 865.981 759.944 865.981 756.392V741.752H869.389V756.056C869.389 758.712 870.045 760.728 871.357 762.104C872.669 763.48 874.541 764.168 876.973 764.168C879.629 764.168 881.725 763.368 883.261 761.768C884.797 760.136 885.565 757.88 885.565 755V741.752H888.973ZM901.782 746.696C902.582 745 903.766 743.72 905.334 742.856C906.934 741.992 908.902 741.56 911.238 741.56V744.872L910.422 744.824C907.766 744.824 905.686 745.64 904.182 747.272C902.678 748.904 901.926 751.192 901.926 754.136V767H898.518V741.752H901.782V746.696ZM939.158 755.432H918.038C918.23 758.056 919.238 760.184 921.062 761.816C922.886 763.416 925.19 764.216 927.974 764.216C929.542 764.216 930.982 763.944 932.294 763.4C933.606 762.824 934.742 761.992 935.702 760.904L937.622 763.112C936.502 764.456 935.094 765.48 933.398 766.184C931.734 766.888 929.894 767.24 927.878 767.24C925.286 767.24 922.982 766.696 920.966 765.608C918.982 764.488 917.43 762.952 916.31 761C915.19 759.048 914.63 756.84 914.63 754.376C914.63 751.912 915.158 749.704 916.214 747.752C917.302 745.8 918.774 744.28 920.63 743.192C922.518 742.104 924.63 741.56 926.966 741.56C929.302 741.56 931.398 742.104 933.254 743.192C935.11 744.28 936.566 745.8 937.622 747.752C938.678 749.672 939.206 751.88 939.206 754.376L939.158 755.432ZM926.966 744.488C924.534 744.488 922.486 745.272 920.822 746.84C919.19 748.376 918.262 750.392 918.038 752.888H935.942C935.718 750.392 934.774 748.376 933.11 746.84C931.478 745.272 929.43 744.488 926.966 744.488ZM513.011 792.4H516.563V822.928H535.379V826H513.011V792.4ZM550.502 826.24C548.07 826.24 545.878 825.696 543.926 824.608C541.974 823.488 540.438 821.952 539.318 820C538.198 818.048 537.638 815.84 537.638 813.376C537.638 810.912 538.198 808.704 539.318 806.752C540.438 804.8 541.974 803.28 543.926 802.192C545.878 801.104 548.07 800.56 550.502 800.56C552.934 800.56 555.126 801.104 557.078 802.192C559.03 803.28 560.55 804.8 561.638 806.752C562.758 808.704 563.318 810.912 563.318 813.376C563.318 815.84 562.758 818.048 561.638 820C560.55 821.952 559.03 823.488 557.078 824.608C555.126 825.696 552.934 826.24 550.502 826.24ZM550.502 823.216C552.294 823.216 553.894 822.816 555.302 822.016C556.742 821.184 557.862 820.016 558.662 818.512C559.462 817.008 559.862 815.296 559.862 813.376C559.862 811.456 559.462 809.744 558.662 808.24C557.862 806.736 556.742 805.584 555.302 804.784C553.894 803.952 552.294 803.536 550.502 803.536C548.71 803.536 547.094 803.952 545.654 804.784C544.246 805.584 543.126 806.736 542.294 808.24C541.494 809.744 541.094 811.456 541.094 813.376C541.094 815.296 541.494 817.008 542.294 818.512C543.126 820.016 544.246 821.184 545.654 822.016C547.094 822.816 548.71 823.216 550.502 823.216ZM606.628 800.752L597.076 826H593.86L585.892 805.312L577.924 826H574.708L565.204 800.752H568.468L576.388 822.208L584.5 800.752H587.428L595.492 822.208L603.508 800.752H606.628ZM631.57 795.472H619.762V792.4H646.93V795.472H635.122V826H631.57V795.472ZM671.244 814.432H650.124C650.316 817.056 651.324 819.184 653.148 820.816C654.972 822.416 657.276 823.216 660.06 823.216C661.628 823.216 663.068 822.944 664.38 822.4C665.692 821.824 666.828 820.992 667.788 819.904L669.708 822.112C668.588 823.456 667.18 824.48 665.484 825.184C663.82 825.888 661.98 826.24 659.964 826.24C657.372 826.24 655.068 825.696 653.052 824.608C651.068 823.488 649.516 821.952 648.396 820C647.276 818.048 646.716 815.84 646.716 813.376C646.716 810.912 647.244 808.704 648.3 806.752C649.388 804.8 650.86 803.28 652.716 802.192C654.604 801.104 656.716 800.56 659.052 800.56C661.388 800.56 663.484 801.104 665.34 802.192C667.196 803.28 668.652 804.8 669.708 806.752C670.764 808.672 671.292 810.88 671.292 813.376L671.244 814.432ZM659.052 803.488C656.62 803.488 654.572 804.272 652.908 805.84C651.276 807.376 650.348 809.392 650.124 811.888H668.028C667.804 809.392 666.86 807.376 665.196 805.84C663.564 804.272 661.516 803.488 659.052 803.488ZM709.717 800.56C712.885 800.56 715.365 801.472 717.157 803.296C718.981 805.12 719.893 807.808 719.893 811.36V826H716.485V811.696C716.485 809.072 715.845 807.072 714.565 805.696C713.317 804.32 711.541 803.632 709.237 803.632C706.613 803.632 704.549 804.448 703.045 806.08C701.541 807.68 700.789 809.904 700.789 812.752V826H697.381V811.696C697.381 809.072 696.741 807.072 695.461 805.696C694.213 804.32 692.421 803.632 690.085 803.632C687.493 803.632 685.429 804.448 683.893 806.08C682.389 807.68 681.637 809.904 681.637 812.752V826H678.229V800.752H681.493V805.36C682.389 803.824 683.637 802.64 685.237 801.808C686.837 800.976 688.677 800.56 690.757 800.56C692.869 800.56 694.693 801.008 696.229 801.904C697.797 802.8 698.965 804.128 699.733 805.888C700.661 804.224 701.989 802.928 703.717 802C705.477 801.04 707.477 800.56 709.717 800.56ZM742.143 800.56C744.511 800.56 746.655 801.104 748.575 802.192C750.495 803.248 751.999 804.752 753.087 806.704C754.175 808.656 754.719 810.88 754.719 813.376C754.719 815.904 754.175 818.144 753.087 820.096C751.999 822.048 750.495 823.568 748.575 824.656C746.687 825.712 744.543 826.24 742.143 826.24C740.095 826.24 738.239 825.824 736.575 824.992C734.943 824.128 733.599 822.88 732.543 821.248V835.312H729.135V800.752H732.399V805.744C733.423 804.08 734.767 802.8 736.431 801.904C738.127 801.008 740.031 800.56 742.143 800.56ZM741.903 823.216C743.663 823.216 745.263 822.816 746.703 822.016C748.143 821.184 749.263 820.016 750.063 818.512C750.895 817.008 751.311 815.296 751.311 813.376C751.311 811.456 750.895 809.76 750.063 808.288C749.263 806.784 748.143 805.616 746.703 804.784C745.263 803.952 743.663 803.536 741.903 803.536C740.111 803.536 738.495 803.952 737.055 804.784C735.647 805.616 734.527 806.784 733.695 808.288C732.895 809.76 732.495 811.456 732.495 813.376C732.495 815.296 732.895 817.008 733.695 818.512C734.527 820.016 735.647 821.184 737.055 822.016C738.495 822.816 740.111 823.216 741.903 823.216ZM783.65 814.432H762.53C762.722 817.056 763.73 819.184 765.554 820.816C767.378 822.416 769.682 823.216 772.466 823.216C774.034 823.216 775.474 822.944 776.786 822.4C778.098 821.824 779.234 820.992 780.194 819.904L782.114 822.112C780.994 823.456 779.586 824.48 777.89 825.184C776.226 825.888 774.386 826.24 772.37 826.24C769.778 826.24 767.474 825.696 765.458 824.608C763.474 823.488 761.922 821.952 760.802 820C759.682 818.048 759.122 815.84 759.122 813.376C759.122 810.912 759.65 808.704 760.706 806.752C761.794 804.8 763.266 803.28 765.122 802.192C767.01 801.104 769.122 800.56 771.458 800.56C773.794 800.56 775.89 801.104 777.746 802.192C779.602 803.28 781.058 804.8 782.114 806.752C783.17 808.672 783.698 810.88 783.698 813.376L783.65 814.432ZM771.458 803.488C769.026 803.488 766.978 804.272 765.314 805.84C763.682 807.376 762.754 809.392 762.53 811.888H780.434C780.21 809.392 779.266 807.376 777.602 805.84C775.97 804.272 773.922 803.488 771.458 803.488ZM793.899 805.696C794.699 804 795.883 802.72 797.451 801.856C799.051 800.992 801.019 800.56 803.355 800.56V803.872L802.539 803.824C799.883 803.824 797.803 804.64 796.299 806.272C794.795 807.904 794.043 810.192 794.043 813.136V826H790.635V800.752H793.899V805.696ZM818.311 800.56C821.607 800.56 824.135 801.392 825.895 803.056C827.655 804.688 828.535 807.12 828.535 810.352V826H825.271V822.064C824.503 823.376 823.367 824.4 821.863 825.136C820.391 825.872 818.631 826.24 816.583 826.24C813.767 826.24 811.527 825.568 809.863 824.224C808.199 822.88 807.367 821.104 807.367 818.896C807.367 816.752 808.135 815.024 809.671 813.712C811.239 812.4 813.719 811.744 817.111 811.744H825.127V810.208C825.127 808.032 824.519 806.384 823.303 805.264C822.087 804.112 820.311 803.536 817.975 803.536C816.375 803.536 814.839 803.808 813.367 804.352C811.895 804.864 810.631 805.584 809.575 806.512L808.039 803.968C809.319 802.88 810.855 802.048 812.647 801.472C814.439 800.864 816.327 800.56 818.311 800.56ZM817.111 823.552C819.031 823.552 820.679 823.12 822.055 822.256C823.431 821.36 824.455 820.08 825.127 818.416V814.288H817.207C812.887 814.288 810.727 815.792 810.727 818.8C810.727 820.272 811.287 821.44 812.407 822.304C813.527 823.136 815.095 823.552 817.111 823.552ZM851.087 824.464C850.447 825.04 849.647 825.488 848.687 825.808C847.759 826.096 846.783 826.24 845.759 826.24C843.391 826.24 841.567 825.6 840.287 824.32C839.007 823.04 838.367 821.232 838.367 818.896V803.632H833.855V800.752H838.367V795.232H841.775V800.752H849.455V803.632H841.775V818.704C841.775 820.208 842.143 821.36 842.879 822.16C843.647 822.928 844.735 823.312 846.143 823.312C846.847 823.312 847.519 823.2 848.159 822.976C848.831 822.752 849.407 822.432 849.887 822.016L851.087 824.464ZM880.043 800.752V826H876.779V821.392C875.883 822.928 874.651 824.128 873.083 824.992C871.515 825.824 869.723 826.24 867.707 826.24C864.411 826.24 861.803 825.328 859.883 823.504C857.995 821.648 857.051 818.944 857.051 815.392V800.752H860.459V815.056C860.459 817.712 861.115 819.728 862.427 821.104C863.739 822.48 865.611 823.168 868.043 823.168C870.699 823.168 872.795 822.368 874.331 820.768C875.867 819.136 876.635 816.88 876.635 814V800.752H880.043ZM892.852 805.696C893.652 804 894.836 802.72 896.404 801.856C898.004 800.992 899.972 800.56 902.308 800.56V803.872L901.492 803.824C898.836 803.824 896.756 804.64 895.252 806.272C893.748 807.904 892.996 810.192 892.996 813.136V826H889.588V800.752H892.852V805.696ZM930.228 814.432H909.108C909.3 817.056 910.308 819.184 912.132 820.816C913.956 822.416 916.26 823.216 919.044 823.216C920.612 823.216 922.052 822.944 923.364 822.4C924.676 821.824 925.812 820.992 926.772 819.904L928.692 822.112C927.572 823.456 926.164 824.48 924.468 825.184C922.804 825.888 920.964 826.24 918.948 826.24C916.356 826.24 914.052 825.696 912.036 824.608C910.052 823.488 908.5 821.952 907.38 820C906.26 818.048 905.7 815.84 905.7 813.376C905.7 810.912 906.228 808.704 907.284 806.752C908.372 804.8 909.844 803.28 911.7 802.192C913.588 801.104 915.7 800.56 918.036 800.56C920.372 800.56 922.468 801.104 924.324 802.192C926.18 803.28 927.636 804.8 928.692 806.752C929.748 808.672 930.276 810.88 930.276 813.376L930.228 814.432ZM918.036 803.488C915.604 803.488 913.556 804.272 911.892 805.84C910.26 807.376 909.332 809.392 909.108 811.888H927.012C926.788 809.392 925.844 807.376 924.18 805.84C922.548 804.272 920.5 803.488 918.036 803.488Z" fill="black"/>
<rect width="196" height="168" fill="white" transform="translate(622 234)"/>
<path d="M737 243.5C732.333 254.833 722.4 276.6 720 273V332V402L752.5 363L779 332L810 304L818 273L799 243.5L779 234L737 243.5Z" stroke="black"/>
<path d="M703 243.5C707.667 254.833 717.6 276.6 720 273V332V402L687.5 363L661 332L630 304L622 273L641 243.5L661 234L703 243.5Z" stroke="black"/>
</svg>
