<svg width="1440" height="900" viewBox="0 0 1440 900" fill="none" xmlns="http://www.w3.org/2000/svg">
<rect width="1440" height="900" fill="#E5E5E5"/>
<rect width="1440" height="900" fill="white"/>
<rect width="1440" height="92" fill="black" fill-opacity="0"/>
<rect width="1440" height="92" fill="#C4C4C4"/>
<path d="M112.895 28.4H116.447V58.928H135.263V62H112.895V28.4ZM150.385 62.24C147.953 62.24 145.761 61.696 143.809 60.608C141.857 59.488 140.321 57.952 139.201 56C138.081 54.048 137.521 51.84 137.521 49.376C137.521 46.912 138.081 44.704 139.201 42.752C140.321 40.8 141.857 39.28 143.809 38.192C145.761 37.104 147.953 36.56 150.385 36.56C152.817 36.56 155.009 37.104 156.961 38.192C158.913 39.28 160.433 40.8 161.521 42.752C162.641 44.704 163.201 46.912 163.201 49.376C163.201 51.84 162.641 54.048 161.521 56C160.433 57.952 158.913 59.488 156.961 60.608C155.009 61.696 152.817 62.24 150.385 62.24ZM150.385 59.216C152.177 59.216 153.777 58.816 155.185 58.016C156.625 57.184 157.745 56.016 158.545 54.512C159.345 53.008 159.745 51.296 159.745 49.376C159.745 47.456 159.345 45.744 158.545 44.24C157.745 42.736 156.625 41.584 155.185 40.784C153.777 39.952 152.177 39.536 150.385 39.536C148.593 39.536 146.977 39.952 145.537 40.784C144.129 41.584 143.009 42.736 142.177 44.24C141.377 45.744 140.977 47.456 140.977 49.376C140.977 51.296 141.377 53.008 142.177 54.512C143.009 56.016 144.129 57.184 145.537 58.016C146.977 58.816 148.593 59.216 150.385 59.216ZM193.535 36.752V58.928C193.535 63.216 192.479 66.384 190.367 68.432C188.287 70.512 185.135 71.552 180.911 71.552C178.575 71.552 176.351 71.2 174.239 70.496C172.159 69.824 170.463 68.88 169.151 67.664L170.879 65.072C172.095 66.16 173.567 67.008 175.295 67.616C177.055 68.224 178.895 68.528 180.815 68.528C184.015 68.528 186.367 67.776 187.871 66.272C189.375 64.8 190.127 62.496 190.127 59.36V56.144C189.071 57.744 187.679 58.96 185.951 59.792C184.255 60.624 182.367 61.04 180.287 61.04C177.919 61.04 175.759 60.528 173.807 59.504C171.887 58.448 170.367 56.992 169.247 55.136C168.159 53.248 167.615 51.12 167.615 48.752C167.615 46.384 168.159 44.272 169.247 42.416C170.367 40.56 171.887 39.12 173.807 38.096C175.727 37.072 177.887 36.56 180.287 36.56C182.431 36.56 184.367 36.992 186.095 37.856C187.823 38.72 189.215 39.968 190.271 41.6V36.752H193.535ZM180.623 58.016C182.447 58.016 184.095 57.632 185.567 56.864C187.039 56.064 188.175 54.96 188.975 53.552C189.807 52.144 190.223 50.544 190.223 48.752C190.223 46.96 189.807 45.376 188.975 44C188.175 42.592 187.039 41.504 185.567 40.736C184.127 39.936 182.479 39.536 180.623 39.536C178.799 39.536 177.151 39.92 175.679 40.688C174.239 41.456 173.103 42.544 172.271 43.952C171.471 45.36 171.071 46.96 171.071 48.752C171.071 50.544 171.471 52.144 172.271 53.552C173.103 54.96 174.239 56.064 175.679 56.864C177.151 57.632 178.799 58.016 180.623 58.016ZM203.065 36.752H206.473V62H203.065V36.752ZM204.793 31.232C204.089 31.232 203.497 30.992 203.017 30.512C202.537 30.032 202.297 29.456 202.297 28.784C202.297 28.144 202.537 27.584 203.017 27.104C203.497 26.624 204.089 26.384 204.793 26.384C205.497 26.384 206.089 26.624 206.569 27.104C207.049 27.552 207.289 28.096 207.289 28.736C207.289 29.44 207.049 30.032 206.569 30.512C206.089 30.992 205.497 31.232 204.793 31.232ZM228.82 36.56C231.988 36.56 234.5 37.488 236.356 39.344C238.244 41.168 239.188 43.84 239.188 47.36V62H235.78V47.696C235.78 45.072 235.124 43.072 233.812 41.696C232.5 40.32 230.628 39.632 228.196 39.632C225.476 39.632 223.316 40.448 221.716 42.08C220.148 43.68 219.364 45.904 219.364 48.752V62H215.956V36.752H219.22V41.408C220.148 39.872 221.428 38.688 223.06 37.856C224.724 36.992 226.644 36.56 228.82 36.56Z" fill="black"/>
<rect x="656" y="544" width="143" height="46" rx="20" fill="#C4C4C4"/>
<rect width="389" height="353" fill="black" fill-opacity="0" transform="translate(525 237)"/>
<rect width="389" height="353" fill="black" fill-opacity="0" transform="translate(525 237)"/>
<rect x="525" y="317" width="389" height="63" fill="#C4C4C4"/>
<rect x="525" y="446" width="389" height="63" fill="#C4C4C4"/>
<path d="M690.954 577.144C689.706 577.144 688.506 576.944 687.354 576.544C686.218 576.144 685.338 575.616 684.714 574.96L685.41 573.592C686.018 574.2 686.826 574.696 687.834 575.08C688.842 575.448 689.882 575.632 690.954 575.632C692.458 575.632 693.586 575.36 694.338 574.816C695.09 574.256 695.466 573.536 695.466 572.656C695.466 571.984 695.258 571.448 694.842 571.048C694.442 570.648 693.946 570.344 693.354 570.136C692.762 569.912 691.938 569.672 690.882 569.416C689.618 569.096 688.61 568.792 687.858 568.504C687.106 568.2 686.458 567.744 685.914 567.136C685.386 566.528 685.122 565.704 685.122 564.664C685.122 563.816 685.346 563.048 685.794 562.36C686.242 561.656 686.93 561.096 687.858 560.68C688.786 560.264 689.938 560.056 691.314 560.056C692.274 560.056 693.21 560.192 694.122 560.464C695.05 560.72 695.85 561.08 696.522 561.544L695.922 562.96C695.218 562.496 694.466 562.152 693.666 561.928C692.866 561.688 692.082 561.568 691.314 561.568C689.842 561.568 688.73 561.856 687.978 562.432C687.242 562.992 686.874 563.72 686.874 564.616C686.874 565.288 687.074 565.832 687.474 566.248C687.89 566.648 688.402 566.96 689.01 567.184C689.634 567.392 690.466 567.624 691.506 567.88C692.738 568.184 693.73 568.488 694.482 568.792C695.25 569.08 695.898 569.528 696.426 570.136C696.954 570.728 697.218 571.536 697.218 572.56C697.218 573.408 696.986 574.184 696.522 574.888C696.074 575.576 695.378 576.128 694.434 576.544C693.49 576.944 692.33 577.144 690.954 577.144ZM712.104 564.376V577H710.472V574.696C710.024 575.464 709.408 576.064 708.624 576.496C707.84 576.912 706.944 577.12 705.936 577.12C704.288 577.12 702.984 576.664 702.024 575.752C701.08 574.824 700.608 573.472 700.608 571.696V564.376H702.312V571.528C702.312 572.856 702.64 573.864 703.296 574.552C703.952 575.24 704.888 575.584 706.104 575.584C707.432 575.584 708.48 575.184 709.248 574.384C710.016 573.568 710.4 572.44 710.4 571V564.376H712.104ZM723.38 564.28C724.564 564.28 725.636 564.552 726.596 565.096C727.556 565.624 728.308 566.376 728.852 567.352C729.396 568.328 729.668 569.44 729.668 570.688C729.668 571.936 729.396 573.048 728.852 574.024C728.308 575 727.556 575.76 726.596 576.304C725.636 576.848 724.564 577.12 723.38 577.12C722.324 577.12 721.372 576.896 720.524 576.448C719.692 576 719.02 575.352 718.508 574.504V577H716.876V559.192H718.58V566.776C719.108 565.96 719.78 565.344 720.596 564.928C721.428 564.496 722.356 564.28 723.38 564.28ZM723.26 575.608C724.14 575.608 724.94 575.408 725.66 575.008C726.38 574.592 726.94 574.008 727.34 573.256C727.756 572.504 727.964 571.648 727.964 570.688C727.964 569.728 727.756 568.872 727.34 568.12C726.94 567.368 726.38 566.792 725.66 566.392C724.94 565.976 724.14 565.768 723.26 565.768C722.364 565.768 721.556 565.976 720.836 566.392C720.132 566.792 719.572 567.368 719.156 568.12C718.756 568.872 718.556 569.728 718.556 570.688C718.556 571.648 718.756 572.504 719.156 573.256C719.572 574.008 720.132 574.592 720.836 575.008C721.556 575.408 722.364 575.608 723.26 575.608ZM748.886 564.28C750.47 564.28 751.71 564.736 752.606 565.648C753.518 566.56 753.974 567.904 753.974 569.68V577H752.27V569.848C752.27 568.536 751.95 567.536 751.31 566.848C750.686 566.16 749.798 565.816 748.646 565.816C747.334 565.816 746.302 566.224 745.55 567.04C744.798 567.84 744.422 568.952 744.422 570.376V577H742.718V569.848C742.718 568.536 742.398 567.536 741.758 566.848C741.134 566.16 740.238 565.816 739.07 565.816C737.774 565.816 736.742 566.224 735.974 567.04C735.222 567.84 734.846 568.952 734.846 570.376V577H733.142V564.376H734.774V566.68C735.222 565.912 735.846 565.32 736.646 564.904C737.446 564.488 738.366 564.28 739.406 564.28C740.462 564.28 741.374 564.504 742.142 564.952C742.926 565.4 743.51 566.064 743.894 566.944C744.358 566.112 745.022 565.464 745.886 565C746.766 564.52 747.766 564.28 748.886 564.28ZM758.595 564.376H760.299V577H758.595V564.376ZM759.459 561.616C759.107 561.616 758.811 561.496 758.571 561.256C758.331 561.016 758.211 560.728 758.211 560.392C758.211 560.072 758.331 559.792 758.571 559.552C758.811 559.312 759.107 559.192 759.459 559.192C759.811 559.192 760.107 559.312 760.347 559.552C760.587 559.776 760.707 560.048 760.707 560.368C760.707 560.72 760.587 561.016 760.347 561.256C760.107 561.496 759.811 561.616 759.459 561.616ZM771.688 576.232C771.368 576.52 770.968 576.744 770.488 576.904C770.024 577.048 769.536 577.12 769.024 577.12C767.84 577.12 766.928 576.8 766.288 576.16C765.648 575.52 765.328 574.616 765.328 573.448V565.816H763.072V564.376H765.328V561.616H767.032V564.376H770.872V565.816H767.032V573.352C767.032 574.104 767.216 574.68 767.584 575.08C767.968 575.464 768.512 575.656 769.216 575.656C769.568 575.656 769.904 575.6 770.224 575.488C770.56 575.376 770.848 575.216 771.088 575.008L771.688 576.232Z" fill="black"/>
<path d="M297.645 362.216C294.381 362.216 291.837 361.28 290.013 359.408C288.189 357.536 287.277 354.812 287.277 351.236V336.8H289.941V351.128C289.941 354.056 290.601 356.24 291.921 357.68C293.241 359.12 295.149 359.84 297.645 359.84C300.165 359.84 302.085 359.12 303.405 357.68C304.725 356.24 305.385 354.056 305.385 351.128V336.8H307.977V351.236C307.977 354.812 307.065 357.536 305.241 359.408C303.441 361.28 300.909 362.216 297.645 362.216ZM320.54 362.18C319.004 362.18 317.528 361.964 316.112 361.532C314.72 361.076 313.628 360.512 312.836 359.84L313.988 357.824C314.78 358.448 315.776 358.964 316.976 359.372C318.176 359.756 319.424 359.948 320.72 359.948C322.448 359.948 323.72 359.684 324.536 359.156C325.376 358.604 325.796 357.836 325.796 356.852C325.796 356.156 325.568 355.616 325.112 355.232C324.656 354.824 324.08 354.524 323.384 354.332C322.688 354.116 321.764 353.912 320.612 353.72C319.076 353.432 317.84 353.144 316.904 352.856C315.968 352.544 315.164 352.028 314.492 351.308C313.844 350.588 313.52 349.592 313.52 348.32C313.52 346.736 314.18 345.44 315.5 344.432C316.82 343.424 318.656 342.92 321.008 342.92C322.232 342.92 323.456 343.088 324.68 343.424C325.904 343.736 326.912 344.156 327.704 344.684L326.588 346.736C325.028 345.656 323.168 345.116 321.008 345.116C319.376 345.116 318.14 345.404 317.3 345.98C316.484 346.556 316.076 347.312 316.076 348.248C316.076 348.968 316.304 349.544 316.76 349.976C317.24 350.408 317.828 350.732 318.524 350.948C319.22 351.14 320.18 351.344 321.404 351.56C322.916 351.848 324.128 352.136 325.04 352.424C325.952 352.712 326.732 353.204 327.38 353.9C328.028 354.596 328.352 355.556 328.352 356.78C328.352 358.436 327.656 359.756 326.264 360.74C324.896 361.7 322.988 362.18 320.54 362.18ZM349.566 353.324H333.726C333.87 355.292 334.626 356.888 335.994 358.112C337.362 359.312 339.09 359.912 341.178 359.912C342.354 359.912 343.434 359.708 344.418 359.3C345.402 358.868 346.254 358.244 346.974 357.428L348.414 359.084C347.574 360.092 346.518 360.86 345.246 361.388C343.998 361.916 342.618 362.18 341.106 362.18C339.162 362.18 337.434 361.772 335.922 360.956C334.434 360.116 333.27 358.964 332.43 357.5C331.59 356.036 331.17 354.38 331.17 352.532C331.17 350.684 331.566 349.028 332.358 347.564C333.174 346.1 334.278 344.96 335.67 344.144C337.086 343.328 338.67 342.92 340.422 342.92C342.174 342.92 343.746 343.328 345.138 344.144C346.53 344.96 347.622 346.1 348.414 347.564C349.206 349.004 349.602 350.66 349.602 352.532L349.566 353.324ZM340.422 345.116C338.598 345.116 337.062 345.704 335.814 346.88C334.59 348.032 333.894 349.544 333.726 351.416H347.154C346.986 349.544 346.278 348.032 345.03 346.88C343.806 345.704 342.27 345.116 340.422 345.116ZM357.252 346.772C357.852 345.5 358.74 344.54 359.916 343.892C361.116 343.244 362.592 342.92 364.344 342.92V345.404L363.732 345.368C361.74 345.368 360.18 345.98 359.052 347.204C357.924 348.428 357.36 350.144 357.36 352.352V362H354.804V343.064H357.252V346.772ZM378.62 342.92C380.996 342.92 382.88 343.616 384.272 345.008C385.688 346.376 386.396 348.38 386.396 351.02V362H383.84V351.272C383.84 349.304 383.348 347.804 382.364 346.772C381.38 345.74 379.976 345.224 378.152 345.224C376.112 345.224 374.492 345.836 373.292 347.06C372.116 348.26 371.528 349.928 371.528 352.064V362H368.972V343.064H371.42V346.556C372.116 345.404 373.076 344.516 374.3 343.892C375.548 343.244 376.988 342.92 378.62 342.92ZM399.959 342.92C402.431 342.92 404.327 343.544 405.647 344.792C406.967 346.016 407.627 347.84 407.627 350.264V362H405.179V359.048C404.603 360.032 403.751 360.8 402.623 361.352C401.519 361.904 400.199 362.18 398.663 362.18C396.551 362.18 394.871 361.676 393.623 360.668C392.375 359.66 391.751 358.328 391.751 356.672C391.751 355.064 392.327 353.768 393.479 352.784C394.655 351.8 396.515 351.308 399.059 351.308H405.071V350.156C405.071 348.524 404.615 347.288 403.703 346.448C402.791 345.584 401.459 345.152 399.707 345.152C398.507 345.152 397.355 345.356 396.251 345.764C395.147 346.148 394.199 346.688 393.407 347.384L392.255 345.476C393.215 344.66 394.367 344.036 395.711 343.604C397.055 343.148 398.471 342.92 399.959 342.92ZM399.059 360.164C400.499 360.164 401.735 359.84 402.767 359.192C403.799 358.52 404.567 357.56 405.071 356.312V353.216H399.131C395.891 353.216 394.271 354.344 394.271 356.6C394.271 357.704 394.691 358.58 395.531 359.228C396.371 359.852 397.547 360.164 399.059 360.164ZM438.186 342.92C440.562 342.92 442.422 343.604 443.766 344.972C445.134 346.34 445.818 348.356 445.818 351.02V362H443.262V351.272C443.262 349.304 442.782 347.804 441.822 346.772C440.886 345.74 439.554 345.224 437.826 345.224C435.858 345.224 434.31 345.836 433.182 347.06C432.054 348.26 431.49 349.928 431.49 352.064V362H428.934V351.272C428.934 349.304 428.454 347.804 427.494 346.772C426.558 345.74 425.214 345.224 423.462 345.224C421.518 345.224 419.97 345.836 418.818 347.06C417.69 348.26 417.126 349.928 417.126 352.064V362H414.57V343.064H417.018V346.52C417.69 345.368 418.626 344.48 419.826 343.856C421.026 343.232 422.406 342.92 423.966 342.92C425.55 342.92 426.918 343.256 428.07 343.928C429.246 344.6 430.122 345.596 430.698 346.916C431.394 345.668 432.39 344.696 433.686 344C435.006 343.28 436.506 342.92 438.186 342.92ZM469.308 353.324H453.468C453.612 355.292 454.368 356.888 455.736 358.112C457.104 359.312 458.832 359.912 460.92 359.912C462.096 359.912 463.176 359.708 464.16 359.3C465.144 358.868 465.996 358.244 466.716 357.428L468.156 359.084C467.316 360.092 466.26 360.86 464.988 361.388C463.74 361.916 462.36 362.18 460.848 362.18C458.904 362.18 457.176 361.772 455.664 360.956C454.176 360.116 453.012 358.964 452.172 357.5C451.332 356.036 450.912 354.38 450.912 352.532C450.912 350.684 451.308 349.028 452.1 347.564C452.916 346.1 454.02 344.96 455.412 344.144C456.828 343.328 458.412 342.92 460.164 342.92C461.916 342.92 463.488 343.328 464.88 344.144C466.272 344.96 467.364 346.1 468.156 347.564C468.948 349.004 469.344 350.66 469.344 352.532L469.308 353.324ZM460.164 345.116C458.34 345.116 456.804 345.704 455.556 346.88C454.332 348.032 453.636 349.544 453.468 351.416H466.896C466.728 349.544 466.02 348.032 464.772 346.88C463.548 345.704 462.012 345.116 460.164 345.116ZM474.798 346.844C474.27 346.844 473.814 346.652 473.43 346.268C473.07 345.884 472.89 345.416 472.89 344.864C472.89 344.312 473.07 343.856 473.43 343.496C473.814 343.112 474.27 342.92 474.798 342.92C475.326 342.92 475.782 343.112 476.166 343.496C476.55 343.856 476.742 344.312 476.742 344.864C476.742 345.416 476.55 345.884 476.166 346.268C475.782 346.652 475.326 346.844 474.798 346.844ZM474.798 362.18C474.27 362.18 473.814 361.988 473.43 361.604C473.07 361.22 472.89 360.752 472.89 360.2C472.89 359.648 473.07 359.192 473.43 358.832C473.814 358.448 474.27 358.256 474.798 358.256C475.326 358.256 475.782 358.448 476.166 358.832C476.55 359.192 476.742 359.648 476.742 360.2C476.742 360.752 476.55 361.22 476.166 361.604C475.782 361.988 475.326 362.18 474.798 362.18Z" fill="black"/>
<path d="M303.974 465.8C307.19 465.8 309.71 466.568 311.534 468.104C313.358 469.64 314.27 471.752 314.27 474.44C314.27 477.128 313.358 479.24 311.534 480.776C309.71 482.288 307.19 483.044 303.974 483.044H297.206V491H294.542V465.8H303.974ZM303.902 480.704C306.398 480.704 308.306 480.164 309.626 479.084C310.946 477.98 311.605 476.432 311.605 474.44C311.605 472.4 310.946 470.84 309.626 469.76C308.306 468.656 306.398 468.104 303.902 468.104H297.206V480.704H303.902ZM325.938 471.92C328.41 471.92 330.306 472.544 331.626 473.792C332.946 475.016 333.606 476.84 333.606 479.264V491H331.158V488.048C330.582 489.032 329.73 489.8 328.602 490.352C327.498 490.904 326.178 491.18 324.642 491.18C322.53 491.18 320.85 490.676 319.602 489.668C318.354 488.66 317.73 487.328 317.73 485.672C317.73 484.064 318.306 482.768 319.458 481.784C320.634 480.8 322.494 480.308 325.038 480.308H331.05V479.156C331.05 477.524 330.594 476.288 329.682 475.448C328.77 474.584 327.438 474.152 325.686 474.152C324.486 474.152 323.334 474.356 322.23 474.764C321.126 475.148 320.178 475.688 319.386 476.384L318.234 474.476C319.194 473.66 320.346 473.036 321.69 472.604C323.034 472.148 324.45 471.92 325.938 471.92ZM325.038 489.164C326.478 489.164 327.714 488.84 328.746 488.192C329.778 487.52 330.546 486.56 331.05 485.312V482.216H325.11C321.87 482.216 320.25 483.344 320.25 485.6C320.25 486.704 320.67 487.58 321.51 488.228C322.35 488.852 323.526 489.164 325.038 489.164ZM345.624 491.18C344.088 491.18 342.612 490.964 341.196 490.532C339.804 490.076 338.712 489.512 337.92 488.84L339.072 486.824C339.864 487.448 340.86 487.964 342.06 488.372C343.26 488.756 344.508 488.948 345.804 488.948C347.532 488.948 348.804 488.684 349.62 488.156C350.46 487.604 350.88 486.836 350.88 485.852C350.88 485.156 350.652 484.616 350.196 484.232C349.74 483.824 349.164 483.524 348.468 483.332C347.772 483.116 346.848 482.912 345.696 482.72C344.16 482.432 342.924 482.144 341.988 481.856C341.052 481.544 340.248 481.028 339.576 480.308C338.928 479.588 338.604 478.592 338.604 477.32C338.604 475.736 339.264 474.44 340.584 473.432C341.904 472.424 343.74 471.92 346.092 471.92C347.316 471.92 348.54 472.088 349.764 472.424C350.988 472.736 351.996 473.156 352.788 473.684L351.672 475.736C350.112 474.656 348.252 474.116 346.092 474.116C344.46 474.116 343.224 474.404 342.384 474.98C341.568 475.556 341.16 476.312 341.16 477.248C341.16 477.968 341.388 478.544 341.844 478.976C342.324 479.408 342.912 479.732 343.608 479.948C344.304 480.14 345.264 480.344 346.488 480.56C348 480.848 349.212 481.136 350.124 481.424C351.036 481.712 351.816 482.204 352.464 482.9C353.112 483.596 353.436 484.556 353.436 485.78C353.436 487.436 352.74 488.756 351.348 489.74C349.98 490.7 348.072 491.18 345.624 491.18ZM363.238 491.18C361.702 491.18 360.226 490.964 358.81 490.532C357.418 490.076 356.326 489.512 355.534 488.84L356.686 486.824C357.478 487.448 358.474 487.964 359.674 488.372C360.874 488.756 362.122 488.948 363.418 488.948C365.146 488.948 366.418 488.684 367.234 488.156C368.074 487.604 368.494 486.836 368.494 485.852C368.494 485.156 368.266 484.616 367.81 484.232C367.354 483.824 366.778 483.524 366.082 483.332C365.386 483.116 364.462 482.912 363.31 482.72C361.774 482.432 360.538 482.144 359.602 481.856C358.666 481.544 357.862 481.028 357.19 480.308C356.542 479.588 356.218 478.592 356.218 477.32C356.218 475.736 356.878 474.44 358.198 473.432C359.518 472.424 361.354 471.92 363.706 471.92C364.93 471.92 366.154 472.088 367.378 472.424C368.602 472.736 369.61 473.156 370.402 473.684L369.286 475.736C367.726 474.656 365.866 474.116 363.706 474.116C362.074 474.116 360.838 474.404 359.998 474.98C359.182 475.556 358.774 476.312 358.774 477.248C358.774 477.968 359.002 478.544 359.458 478.976C359.938 479.408 360.526 479.732 361.222 479.948C361.918 480.14 362.878 480.344 364.102 480.56C365.614 480.848 366.826 481.136 367.738 481.424C368.65 481.712 369.43 482.204 370.078 482.9C370.726 483.596 371.05 484.556 371.05 485.78C371.05 487.436 370.354 488.756 368.962 489.74C367.594 490.7 365.686 491.18 363.238 491.18ZM403.215 472.064L396.051 491H393.639L387.663 475.484L381.687 491H379.275L372.147 472.064H374.595L380.535 488.156L386.619 472.064H388.815L394.863 488.156L400.875 472.064H403.215ZM414.277 491.18C412.453 491.18 410.809 490.772 409.345 489.956C407.881 489.116 406.729 487.964 405.889 486.5C405.049 485.036 404.629 483.38 404.629 481.532C404.629 479.684 405.049 478.028 405.889 476.564C406.729 475.1 407.881 473.96 409.345 473.144C410.809 472.328 412.453 471.92 414.277 471.92C416.101 471.92 417.745 472.328 419.209 473.144C420.673 473.96 421.813 475.1 422.629 476.564C423.469 478.028 423.889 479.684 423.889 481.532C423.889 483.38 423.469 485.036 422.629 486.5C421.813 487.964 420.673 489.116 419.209 489.956C417.745 490.772 416.101 491.18 414.277 491.18ZM414.277 488.912C415.621 488.912 416.821 488.612 417.877 488.012C418.957 487.388 419.797 486.512 420.397 485.384C420.997 484.256 421.297 482.972 421.297 481.532C421.297 480.092 420.997 478.808 420.397 477.68C419.797 476.552 418.957 475.688 417.877 475.088C416.821 474.464 415.621 474.152 414.277 474.152C412.933 474.152 411.721 474.464 410.641 475.088C409.585 475.688 408.745 476.552 408.121 477.68C407.521 478.808 407.221 480.092 407.221 481.532C407.221 482.972 407.521 484.256 408.121 485.384C408.745 486.512 409.585 487.388 410.641 488.012C411.721 488.612 412.933 488.912 414.277 488.912ZM431.555 475.772C432.155 474.5 433.043 473.54 434.219 472.892C435.419 472.244 436.895 471.92 438.647 471.92V474.404L438.035 474.368C436.043 474.368 434.483 474.98 433.355 476.204C432.227 477.428 431.663 479.144 431.663 481.352V491H429.107V472.064H431.555V475.772ZM460.379 464.288V491H457.931V487.256C457.163 488.528 456.143 489.5 454.871 490.172C453.623 490.844 452.207 491.18 450.623 491.18C448.847 491.18 447.239 490.772 445.799 489.956C444.359 489.14 443.231 488 442.415 486.536C441.599 485.072 441.191 483.404 441.191 481.532C441.191 479.66 441.599 477.992 442.415 476.528C443.231 475.064 444.359 473.936 445.799 473.144C447.239 472.328 448.847 471.92 450.623 471.92C452.159 471.92 453.539 472.244 454.763 472.892C456.011 473.516 457.031 474.44 457.823 475.664V464.288H460.379ZM450.839 488.912C452.159 488.912 453.347 488.612 454.403 488.012C455.483 487.388 456.323 486.512 456.923 485.384C457.547 484.256 457.859 482.972 457.859 481.532C457.859 480.092 457.547 478.808 456.923 477.68C456.323 476.552 455.483 475.688 454.403 475.088C453.347 474.464 452.159 474.152 450.839 474.152C449.495 474.152 448.283 474.464 447.203 475.088C446.147 475.688 445.307 476.552 444.683 477.68C444.083 478.808 443.783 480.092 443.783 481.532C443.783 482.972 444.083 484.256 444.683 485.384C445.307 486.512 446.147 487.388 447.203 488.012C448.283 488.612 449.495 488.912 450.839 488.912ZM467.75 475.844C467.222 475.844 466.766 475.652 466.382 475.268C466.022 474.884 465.842 474.416 465.842 473.864C465.842 473.312 466.022 472.856 466.382 472.496C466.766 472.112 467.222 471.92 467.75 471.92C468.278 471.92 468.734 472.112 469.118 472.496C469.502 472.856 469.694 473.312 469.694 473.864C469.694 474.416 469.502 474.884 469.118 475.268C468.734 475.652 468.278 475.844 467.75 475.844ZM467.75 491.18C467.222 491.18 466.766 490.988 466.382 490.604C466.022 490.22 465.842 489.752 465.842 489.2C465.842 488.648 466.022 488.192 466.382 487.832C466.766 487.448 467.222 487.256 467.75 487.256C468.278 487.256 468.734 487.448 469.118 487.832C469.502 488.192 469.694 488.648 469.694 489.2C469.694 489.752 469.502 490.22 469.118 490.604C468.734 490.988 468.278 491.18 467.75 491.18Z" fill="black"/>
<path d="M672.004 225.8H674.668V248.696H688.78V251H672.004V225.8ZM700.122 251.18C698.298 251.18 696.654 250.772 695.19 249.956C693.726 249.116 692.574 247.964 691.734 246.5C690.894 245.036 690.474 243.38 690.474 241.532C690.474 239.684 690.894 238.028 691.734 236.564C692.574 235.1 693.726 233.96 695.19 233.144C696.654 232.328 698.298 231.92 700.122 231.92C701.946 231.92 703.59 232.328 705.054 233.144C706.518 233.96 707.658 235.1 708.474 236.564C709.314 238.028 709.734 239.684 709.734 241.532C709.734 243.38 709.314 245.036 708.474 246.5C707.658 247.964 706.518 249.116 705.054 249.956C703.59 250.772 701.946 251.18 700.122 251.18ZM700.122 248.912C701.466 248.912 702.666 248.612 703.722 248.012C704.802 247.388 705.642 246.512 706.242 245.384C706.842 244.256 707.142 242.972 707.142 241.532C707.142 240.092 706.842 238.808 706.242 237.68C705.642 236.552 704.802 235.688 703.722 235.088C702.666 234.464 701.466 234.152 700.122 234.152C698.778 234.152 697.566 234.464 696.486 235.088C695.43 235.688 694.59 236.552 693.966 237.68C693.366 238.808 693.066 240.092 693.066 241.532C693.066 242.972 693.366 244.256 693.966 245.384C694.59 246.512 695.43 247.388 696.486 248.012C697.566 248.612 698.778 248.912 700.122 248.912ZM732.485 232.064V248.696C732.485 251.912 731.693 254.288 730.109 255.824C728.549 257.384 726.185 258.164 723.017 258.164C721.265 258.164 719.597 257.9 718.013 257.372C716.453 256.868 715.181 256.16 714.197 255.248L715.493 253.304C716.405 254.12 717.509 254.756 718.805 255.212C720.125 255.668 721.505 255.896 722.945 255.896C725.345 255.896 727.109 255.332 728.237 254.204C729.365 253.1 729.929 251.372 729.929 249.02V246.608C729.137 247.808 728.093 248.72 726.797 249.344C725.525 249.968 724.109 250.28 722.549 250.28C720.773 250.28 719.153 249.896 717.689 249.128C716.249 248.336 715.109 247.244 714.269 245.852C713.453 244.436 713.045 242.84 713.045 241.064C713.045 239.288 713.453 237.704 714.269 236.312C715.109 234.92 716.249 233.84 717.689 233.072C719.129 232.304 720.749 231.92 722.549 231.92C724.157 231.92 725.609 232.244 726.905 232.892C728.201 233.54 729.245 234.476 730.037 235.7V232.064H732.485ZM722.801 248.012C724.169 248.012 725.405 247.724 726.509 247.148C727.613 246.548 728.465 245.72 729.065 244.664C729.689 243.608 730.001 242.408 730.001 241.064C730.001 239.72 729.689 238.532 729.065 237.5C728.465 236.444 727.613 235.628 726.509 235.052C725.429 234.452 724.193 234.152 722.801 234.152C721.433 234.152 720.197 234.44 719.093 235.016C718.013 235.592 717.161 236.408 716.537 237.464C715.937 238.52 715.637 239.72 715.637 241.064C715.637 242.408 715.937 243.608 716.537 244.664C717.161 245.72 718.013 246.548 719.093 247.148C720.197 247.724 721.433 248.012 722.801 248.012ZM739.632 232.064H742.188V251H739.632V232.064ZM740.928 227.924C740.4 227.924 739.956 227.744 739.596 227.384C739.236 227.024 739.056 226.592 739.056 226.088C739.056 225.608 739.236 225.188 739.596 224.828C739.956 224.468 740.4 224.288 740.928 224.288C741.456 224.288 741.9 224.468 742.26 224.828C742.62 225.164 742.8 225.572 742.8 226.052C742.8 226.58 742.62 227.024 742.26 227.384C741.9 227.744 741.456 227.924 740.928 227.924ZM758.948 231.92C761.324 231.92 763.208 232.616 764.6 234.008C766.016 235.376 766.724 237.38 766.724 240.02V251H764.168V240.272C764.168 238.304 763.676 236.804 762.692 235.772C761.708 234.74 760.304 234.224 758.48 234.224C756.44 234.224 754.82 234.836 753.62 236.06C752.444 237.26 751.856 238.928 751.856 241.064V251H749.3V232.064H751.748V235.556C752.444 234.404 753.404 233.516 754.628 232.892C755.876 232.244 757.316 231.92 758.948 231.92Z" fill="black"/>
</svg>
